<mxfile host="Electron" agent="Mozilla/5.0 (Windows NT 10.0; Win64; x64) AppleWebKit/537.36 (KHTML, like Gecko) draw.io/27.0.9 Chrome/134.0.6998.205 Electron/35.4.0 Safari/537.36" version="27.0.9">
  <diagram name="第 1 页" id="hSZzOovucL0i58xrLDIp">
    <mxGraphModel dx="792" dy="467" grid="1" gridSize="5" guides="1" tooltips="1" connect="1" arrows="1" fold="1" page="1" pageScale="1" pageWidth="3300" pageHeight="2339" background="none" math="0" shadow="0">
      <root>
        <mxCell id="0" />
        <mxCell id="1" parent="0" />
        <mxCell id="OVYCunuswZ6QjZjq1MuV-24" value="" style="group;strokeColor=default;perimeterSpacing=0;" vertex="1" connectable="0" parent="1">
          <mxGeometry x="5" y="5" width="411" height="295" as="geometry" />
        </mxCell>
        <mxCell id="dE0_XPoRY15QC2PA_eT_-7" style="edgeStyle=orthogonalEdgeStyle;rounded=0;orthogonalLoop=1;jettySize=auto;html=1;exitX=1;exitY=0.5;exitDx=0;exitDy=0;entryX=0;entryY=0.5;entryDx=0;entryDy=0;strokeWidth=2;endArrow=classicThin;endFill=1;endSize=2;startSize=2;" parent="OVYCunuswZ6QjZjq1MuV-24" source="dE0_XPoRY15QC2PA_eT_-2" target="dE0_XPoRY15QC2PA_eT_-6" edge="1">
          <mxGeometry relative="1" as="geometry" />
        </mxCell>
        <mxCell id="dE0_XPoRY15QC2PA_eT_-2" value="&lt;font face=&quot;Times New Roman&quot;&gt;JAKA&amp;nbsp;&lt;/font&gt;&lt;font face=&quot;宋体&quot;&gt;机械臂&lt;/font&gt;&lt;font face=&quot;Times New Roman&quot;&gt;+ RealSense&amp;nbsp;&lt;/font&gt;&lt;font face=&quot;宋体&quot;&gt;相机&lt;/font&gt;&lt;font face=&quot;Times New Roman&quot;&gt;+&lt;/font&gt;&lt;font face=&quot;宋体&quot;&gt;二值夹爪&lt;/font&gt;&lt;div&gt;&lt;font face=&quot;宋体&quot;&gt;柑橘采摘机器人&lt;/font&gt;&lt;/div&gt;&lt;div&gt;&lt;font face=&quot;Times New Roman&quot;&gt;Ubuntu18.04.6/ROS-melodic/Python3.6&lt;/font&gt;&lt;/div&gt;" style="rounded=1;whiteSpace=wrap;html=1;fillColor=#d5e8d4;strokeColor=#82b366;" parent="OVYCunuswZ6QjZjq1MuV-24" vertex="1">
          <mxGeometry x="60" y="15" width="220" height="70" as="geometry" />
        </mxCell>
        <mxCell id="dE0_XPoRY15QC2PA_eT_-3" value="&lt;font face=&quot;宋体&quot;&gt;现有基础&lt;/font&gt;" style="text;html=1;align=center;verticalAlign=middle;whiteSpace=wrap;rounded=0;" parent="OVYCunuswZ6QjZjq1MuV-24" vertex="1">
          <mxGeometry x="145" width="50" height="15" as="geometry" />
        </mxCell>
        <mxCell id="dE0_XPoRY15QC2PA_eT_-5" value="" style="shape=image;imageAspect=0;verticalLabelPosition=bottom;verticalAlign=top;image=data:image/jpeg,/9j/4AAQSkZJRgABAQAAAQABAAD/2wBDAAYEBQYFBAYGBQYHBwYIChAKCgkJChQODwwQFxQYGBcUFhYaHSUfGhsjHBYWICwgIyYnKSopGR8tMC0oMCUoKSj/2wBDAQcHBwoIChMKChMoGhYaKCgoKCgoKCgoKCgoKCgoKCgoKCgoKCgoKCgoKCgoKCgoKCgoKCgoKCgoKCgoKCgoKCj/wAARCAZNBP8DASIAAhEBAxEB/8QAHwAAAQUBAQEBAQEAAAAAAAAAAAECAwQFBgcICQoL/8QAtRAAAgEDAwIEAwUFBAQAAAF9AQIDAAQRBRIhMUEGE1FhByJxFDKBkaEII0KxwRVS0fAkM2JyggkKFhcYGRolJicoKSo0NTY3ODk6Q0RFRkdISUpTVFVWV1hZWmNkZWZnaGlqc3R1dnd4eXqDhIWGh4iJipKTlJWWl5iZmqKjpKWmp6ipqrKztLW2t7i5usLDxMXGx8jJytLT1NXW19jZ2uHi4+Tl5ufo6erx8vP09fb3+Pn6/8QAHwEAAwEBAQEBAQEBAQAAAAAAAAECAwQFBgcICQoL/8QAtREAAgECBAQDBAcFBAQAAQJ3AAECAxEEBSExBhJBUQdhcRMiMoEIFEKRobHBCSMzUvAVYnLRChYkNOEl8RcYGRomJygpKjU2Nzg5OkNERUZHSElKU1RVVldYWVpjZGVmZ2hpanN0dXZ3eHl6goOEhYaHiImKkpOUlZaXmJmaoqOkpaanqKmqsrO0tba3uLm6wsPExcbHyMnK0tPU1dbX2Nna4uPk5ebn6Onq8vP09fb3+Pn6/9oADAMBAAIRAxEAPwD6pooooAKKKKACiiigAooooAKKKKACiiigAooooAKKKKACiiigAooooAKKKKACiiigAooooAKKKKACiiigAooooAKKKKACiiigAooooAKKKKACiiigAooooAKKKKACiiigApPuims/UKRn1qB5VBz1PqaAJi3rxUTsmcnk+9VZbgnpVNpWPc1VhXPKfip8YB4W1mTToFVGjwSfXNdZ8LPHf/CY6D9sZNjqxRvesvx18MdA8ZXcd1qUTpcpx5kZwSPeui8NaDYeHNLhsNLjEcEY4wOvuaegjqUugCcHFTR3QJwy/iprGz70ocjvU2C5veanHzY+tOWZGBIPA9RiufNw470iXrryGxSHc6NXVvusD9KdWHFqSPhXxn3q9HdAr8pxQMvUVXjnBHP6GpY5FcZU5/Qj8KAH0UUUAFFFFABRRRQAUUUUAFFFFABRRRQAUUUUAFFFFABRRRQAUUUUAFFFFABRRRQAUUUUAFFFFABRRRQAUUUUAFFFFABRRRQAUUUUAFFFFABRRRQAUUUUAFFFFABRRRQAUUUUAFFFFABRRRQAUUUUAFFFFABRRRQAUUUUAFFFFABRRRQAUUUUAFFFFABRRRQAUUUUAFFFFABRRRQAUUUUAFFFFABRRRQAUUUUAFFFFABRRRQAUUUUAFFFFABRRRQAUUUUAFFFFABRRRQAUUUUAFFFFABRRRQAUUUUAFFFFABRRRQAUUUUAFFFFABRRRQAUUUUAFFFFABRRRQAUUUUAFFFFABRRRQAUUUUAFFFFABRRRQAUUUUAFFFFABRRRQAVCX5Jydvb3p7EAED8az7qfHANAMdcXAAwOAOKpPMW78VC8mTzSyzWzw/LuSRfyNWkSLJJkCpLeQC2nGeorPeXPftUDylRjd25pAW0bjrSq9UBKAPvUgn560hF8v70wufWqZm96YZvegC00nXmo2f5cVWMnvSeZxQNErHv3q1aXRzsc4NUC/FMLY6daBHSRyNtPNPEuQAwBHXmsy0uCycmritmgovJdMD1JHvzUi3TBQFZfcsuSfyxVCigDQW5ctnev8A3z/9erCT7urL+VZGSKfG53CgDYEgI96UOu7bn5vQGqUbEVLvyMHkehpBct0VSNxghVbBz35qRJwT83H45oGWciiohNGcc4z7U5Hjf7jq30OaAH0UUUAFFFGaACiiigAooooAKKKKACiiigAooooAKKKKACiiigAooooAKKKKACiiigAooooAKKKKACiiigAooooAKKKKACiiigAooooAKKKKACiiigAooooAKKKKACiiigAooooAKKKKACiiigAooooAKKKKACiiigAooooAKKKKACiiigAooooAKKKKACiiigAooooAKKKKACiiigAooooAKKKKACiiigAooooAKKKKACiiigAooooAKKKKACiiigAooooAKKKKACiiigAooooAKKKKACiiigAooooAKKKKACiiigAooooAKKKKACiiigAooooAKKKKACiiigAooooAKKKKACiiigApsrbVpx6VBcSBVOewoArXU+1cDrWW7lmyaS5m3OcVE8y20XzbTIRxkZxVIli3MtsExFu3e9Zsk49qrXF1yeeaznuSScUAazXIHcCql3fwwRNJM4RFGSzHAFUTNmvEPjh4mna6j0e2kZIgoaXacbvQGlJ2R0YWh7efKeo2Pj3R9R1ZdPsrjzZzn7o44966EXR96+bfhHYXk3ia3u4oW+zoSHk7DNfQW6pjK5rjKMKU+WDNH7Ufej7VWfuNJuNM47GkLoU9bjPescOfWniUjvTJNgTZ707zKyknPrVhJcjrQBq20u1wa1kkyAa56BssBmtu3PyDNAIuq9SBuapq2KlEgxmgCyTxmpbYgvn0qnvyPrU9mpLY9KALob5j1pkxkJGwr+NH3GHWh23E84/CgCrLK0aNJPgAelULC71C7uiUiWGzH8TjJb6VqGNX681KoCjAoAjuZCtu5HYU5GJRNwyMD+VV9RfbbScjpT4pMxp9P6UAW/PZcYJ4pr3jortvzjnkDA/lVYtmqt82IZP90/yoKTNax1AXFukvADDI5q0LhMEluntXL6TmPTrdf9mrwlI70WC5uiZSOuPwo81fX/x01ii5IHWj7S3qaLBc2vMX1H5UGeMdWxWQt2e5qKa7DAhgCPSkFyv4n8T22m2rssgGO56//qqv4L8cab4jUwxSBL1fvRk/f91/wrzz4nWIfTrqWHcgVCxA5r548PeJbjTNXWaOYxFJBhlPNOwXPvqiuB+H/jFtZ0aGa6VpGAxvTGfxFdUdbtwcESZ/3f8A69IZqUVmDWbY92H1A/xp39r2394/l/8AXoA0aKzv7Xtv7/6f/XoOr2w6sfy/+vQBo0Vnf2pbt03H/P1qz9qix97p7Z/lQBYoqFLhG6EVKGB70ALRRRQAUUUUAFFFFABRRRQAUUUUAFFFFABRRRQAUUUUAFFFFABRRRQAUUUUAFFFFABRRRQAUUUUAFFFFABRRRQAUUUUAFFFFABRRRQAUUUUAFFFFABRRRQAUUUUAFFFFABRRRQAUUUUAFFFFABRRRQAUUUUAFFFFABRRRQAUUUUAFFFFABRRRQAUUUUAFFFFABRRRQAUUUUAFFFFABRRRQAUUUUAFFFFABRRRQAUUUUAFFFFABRRRQAUUUUAFFFFABRRRQAUUUUAFFFFABRRRQAUUUUAFFFFABRRRQAUUUUAFZmpTBYieOa0JD8rD6frXM+ILkKpGe+KaEyl5pklIXkDqayb26LSNk5xTftrRROqdW6ms93J5piFklLHk1HnPtSdetLikIWvnr402ckHixpmH7uVAVNfQwFcv498J2/ifTPKciO4TmOTHQ1M1dHbgayo1byPNPht420zR9I+xagzQshLA7chh9a63/haPh5f+W8rfSM15Rq3w/8Q2czItk8yjo0fIIqpF4G8RyMNumTD/e4rFSkj1p0sNVfM2evt8V9AB+X7S3/AGzrpPC/iSz8SW0s1iJAsZ2neMV4bb/DjxLJ1sdn1cV6n8LPDepaBa3aanGsfmEFQDmrjJvc48TRw8IXg9Tuqa1TY4phFanlDASDUqy4qI0lAGtYyZcE1uRScCuZsnxW5A+Y80EmhuoZ8cVUjlyetPd+KALMc3zAHpWpavtORWEh/Kr1vPtxnpQBru5lf5R0pjHjAP1qBJvlJQ9etSA98UAOU7aDJUTvUJbJoAj1Nt0BXP3iBVlMBQB24rO1AnEI9XFXcFApPcZoAlZsVla7L5enTt/smtBnzWD4nffprp/fIX9aBo17UYtoR6IP5VL+FV4mxGi+ij+VShuKYxc0mabmlBoEO3VDK3WlJqCQ0hWOZ8YSrFplxLIPkRCT+VfEWu3/ANq1a5kh+SLzCQPxr7S+IjZ8P3q9jE38q+IruBorl9w+UtwfxoA+mf2bdba506e2ZySjZxmvdkO/71fK/wCzhO8OsXqA4TC8V9SwnNAEr2yOOBVOayYH5WxWjGfelkGaAuc9PBcJna24VWMk4OPmzXQv7AYqpPErjpz7UDuZsd3OpwwarK6m68NuxSINpw3Wr8Ecbrh0BoC5mS6izdHcVJb6tdQ/du3APbqK2VsLZx/qV/KhtJtifuYoC4y38Q3AUAyhvqoq0niCXu6/lVY6HCfus61Xk0LH3Jj+NIdzS/t+T++n5Uv/AAkD/wB9fyFYUmj3C/dYH8aqvYXafwE/SnYLnT/2+/8AfX8hR/b7/wB5fyFcg8Uy/eVxQNw6k0WC52tvrRdhvbC+1X11WLHJB/SvPRK46MalF1KO5osFz0WC/hl6E1ZV1b7pBrzm3vpgeRWhFfz54V6VgudxRmuZg1W6XGYyR7iteDUEkUZRg3uKBl+iokkBGQcexqUGgAooooAKKKKACiiigAooooAKKKKACiiigAooooAKKKKACiiigAooooAKKKKACiiigAooooAKKKKACiiigAooooAKKKKACiiigAooooAKKKKACiiigAooooAKKKKACiiigAooooAKKKKACiiigAooooAKKKKACiiigAooooAKKKKACiiigAooooAKKKKACiiigAooooAKKKKACiiigAooooAKKKKACiiigAooooAKKKKACiiigAooooAKKKKACiiigAooooAiuP8AVMfp/OuC8Sz4lx713l0f3D/h/OvOPEhzcn600JmYDmg01KfimAlFFFIBRXF+O/GzeFbu1VrfzoZgc84IxXZ1xHxJ8GP4pigaCcRTQ52gjg5pPY3w3J7Re02K+mfEzQ73Akla2Y9pV/rXV6dqlnfLvtLmKbP9xga+cdc8FavpVw8RiSdl6iJsn8qxIrzUNKl/dyXFs4PYlaxU7dD15YClNc1N2PrtHp1fOmh/FHXLHaszx3SDtIOfzFeq+BvHsHia4No0DQ3IXd1yDVqaZw1sDUpxct0dmRUbDipWHNMYcVoeeRGkbpTjSUASWrYArWt5cKRWRb8DNXom70xFhJtkpGateZkjmsa4l2zZqzHOGUHNSBrRv6VNuyorOt5csKtb+nNMC7DMUI54rRimDLxWMhyPepoZSjUCNFzmoC9OR1LKcZ55HqKdeQxiJZrV8qThk/u0AVpzvMS9w26r92QtvbN6rg1lwvm5ct0VKlknLRqp6L0oAeZfesXW5VNxYQnnzJwPy5q+zVgXcnm+IbCPsgaT9MUDR0ympAarK1SqaBEoPNIWqPdRupgOY8VXlNSE1BIaYzlfHCFtFugeQY2H6V8kz2yG1uXdfuk7frmvrzxcvmaZcAdChH6V8nao6w6dcRMfmMpC/QGgDvv2fLJozeXR/idVr6XhPyD6V4N+znZM9ldTSMPK34C47171EMVIi1EakZuKjj6UrUARuahYVK9R0AVZUy2as2xwcVHJ0FKrhXoA1oCMVODyKpQNkVYDdKALGaQmmbqN3oaAHhRS7KFqRSMUAQNCpHKiqlxaW4BLIpP0q7KxP3aSK33HL9KAMU6Ws5zHGVHrVmDRIYxmUkn0Najusfyxjc3tTPKdxmZgB/dFAXIkgtYvuICfapQWIwkXHuKkREXooFOY+hoAg2y+iLTleZT1U04t64ppOelAEy3Lj768e1WY7xcYJx9azGJz1ppY9+aB3N9JkYhQ3ze/epK5xZmT7p49DyK1LO9R1CvwegpDTNCigcgYooGFFFFABRRRQAUUUUAFFFFABRRRQAUUUUAFFFFABRRRQAUUUUAFFFFABRRRQAUUUUAFFFFABRRRQAUUUUAFFFFABRRRQAUUUUAFFFFABRRRQAUUUUAFFFFABRRRQAUUUUAFFFFABRRRQAUUUUAFFFFABRRRQAUUUUAFFFFABRRRQAUUUUAFFFFABRRRQAUUUUAFFFFABRRRQAUUUUAFFFFABRRRQAUUUUAFFFFABRRRQAUUUUAFFFFABRRQelAEF5/qH/CvN/EY/wBJ/GvS513RFfXH86888Ux7Lg8d6aEzCTrUlRp1qSmA6iiikAUtJWP4s12Lw9o8l9PE0qqQNq9aTKhFydkeKfGV57XxgZo5ZELxqflYitvSNX8OHwfbP4gaCe5wQVYbnNee+NfEkviXVDdSxLCqjaiL2HvWZpekX+qSiPT7SWdvZePzrnck2fTRoxVGMajtYt+IbjSri7J0e0e3jzyWbOfw7V1nwYkI8YRBRw0bA1s+F/hDNNtm12fyk/54x/e/OvVNC8M6ZocQXT7ZI2xguRlj+NVGLZy4rG0uR04amu3So26VL2qNulbngkTU3FPammgBYPu1aiNU0O0CrUR70wKl8+Dmiwn3DaTVfUnwTVCzuCs2M1IHYWh61OX+YVTsXygPtUhf94KBGismEpN/OQareYcdRis/V9TTT7fzGBf2FMR0MMnvT2c5rktB8TW2ozGJSY5gM7GPWuh8/PegB1vLunmb3AqZjVCyb90zHuxNWPMFADnauctpPM8VSk9IoQPzrWuZscA1z+iP5t7qU/cyBAfYCgZ10clSCSs2N+OtTCSgRdD0b6pCWnebVDLZeoWPNR+ZUbSe9IDM8Rsv2GUHpsNfIPiZ8TkAZXzH/nX1f4nnCadNlv4TXyRrt3FcXEqxH7sjKfzpoD239n+5aHRZF/haavdoWyoPqK8D+BnGiL7zV7rAcIPpUiNCJ6fuzVSNqlDUAOkNR0jvzTd1AAxyKhmO1qczc1HOeM0AWoZyoHNW47gZHNZqDKKaeuS4FAGwHB70oNV/sskI3xyCaL+8O1TJyBQBKkh7VOM44qGNcVMDgVQxdv8AepPtA+ZYiD79hVeaUyN5cZ/3j6VyfjXxxpHg6GL+05CC/wB1F5JpAdfuWPlevrQsu4+tc54M8U6Z4vsxPpk3yZwwbqv1FdfPbR21vnHzdzQIr5HrSFwKgaUdqjMhpAWtynvTGJFVjL9KY03vTAsFqaziqpmHrSGYetICwWxTRKyMCpqu0uelN8ygDestRCsFflT1rYRwygg5BriBIVGc1raRqmGEUh+Q+vagpM6OimowIBByD3p1IYUUUUAFFFFABRRRQAUUUUAFFFFABRRRQAUUUUAFFFFABRRRQAUUUUAFFFFABRRRQAUUUUAFFFFABRRRQAUUUUAFFFFABRRRQAUUUUAFFFFABRRRQAUUUUAFFFFABRRRQAUUUUAFFFFABRRRQAUUUUAFFFFABRRRQAUUUUAFFFFABRRRQAUUUUAFFFFABRRRQAUUUUAFFFFABRRRQAUUUUAFFFFABRRRQAUUUUAFFFFABRRRQAUUUUARy8Rn2Oa4bxemJSfeu6cZUg1xnjFeCaAOQj61MKhiqYVQhaKKKQBXO+OdGl1/w/cWMBUSMQQW6CuirC8ZTzW3hzUJbZisixkgjtUy2NKTtNNHEaF8KdNstsuqzNcyjny14X/69d5YWtjp8QjtYoYYx2GK+Z7nxJrEv39Ruf8Avs1RfWL5/v3tw31c1jdLoe7LAzq6zmfWaX9qv3p4x9WFINWsDKIlu4TIeAu8ZNfJsd1eT/clnf6E1t+FoL467ZO0c5AlUkkHjmtI1L9DGeWwhFtyPqE8jIph605OUpp6mtDxH1IyOaO1OI5NN/hNADcZqwv3agjGRUoNAGNrBwB/vGskPg/lWlrZwB9axHfFSSdfotzvtsZ6VcE2JOtcnpF4YmZc9a2rSfzHY56Uxm2smRntTJI4Z1KTgHPqOKrLJimPJz15oAxoPD6W2ux3kUgVEydvqa6N7jajHPQGqW8etVr+fFs4/ibApiNm0mIt4x7VM0/BrLilwqj2p7TcdaRRJdz7I2JPQZrK8NHbp3mHrLIz/rUet3Bj064fuFIFP0weVYWyekYJpiZtLN71Is/NZiycU4S80hmmJvenCb3rNElOWSmBoedTZJuOtUTJUcsvFAHP+O7rytFu2z/yzb+VfIG5jdvJzlmJr6k+Jd15fh29OefLIr5dm+83uaYj6O+CYC6DbsP4nJr2qJ+BzXinwczF4bsM9+a9ejn6UhGqknNSeZxWck1Sedx1oAtM/PWgNVTzacJB60AWCcmo5ulND5PWmzPxQBoWQDwD24NShhEzkDOVwKp6S42uu7pzWiignnnNAFSFnUbBnBrSiICAZOajCruGMVKB1wRQBYQ5FMnk2oAv3jxTUcqNx7VGriSUyD7vQVQyZF2pjvXkfxx+HF54yS2utMdPtNupXy3ONw+tevSxyJCJSPl9c1UeTNIDzb4K+B77wZYTtqTIJ5jnYpzt+tenT3k0o2sw2+lVHkNQvL70AWS4HU1FJN71QluQOhqq9yfWkI0muQpJJyKoXV/gEIcVn3Nw/RTVGQuDknNIo0jdl2+9zU8M7cZbNYcasTnOBV+A7QOaQGykmRzTwwPSs5JalEvvTApeLtZGh6JdX5Tf5KFiM1w3wl+JzeLb+e1uLcQyKNy4Ociu31e0h1Swms7pd0MqlWH1rk/AHw70/wAH391dQTvLJJlVzj5R6UwPcdDvlliETHnsTWzXnen3Rik68V3Gn3YubYMDlwMGkMuUUDpRQAUUUUAFFFFABRRRQAUUUUAFFFFABRRRQAUUUUAFFFFABRRRQAUUUUAFFFFABRRRQAUUUUAFFFFABRRRQAUUUUAFFFFABRRRQAUUUUAFFFFABRRRQAUUUUAFFFFABRRRQAUUUUAFFFFABRRRQAUUUUAFFFFABRRRQAUUUUAFFFFABRRRQAUUUUAFFFFABRRRQAUUUUAFFFFABRRRQAUUUUAFFFFABRRRQAUUUUAFFFFABRRRQBFL/q3/AN01yHi//V12TDqO1cd4r+eL8KAOLjqcVDHUwqhDqKKKQB/F6VDc28dxDJDOoaOQYINT9x3pkzKkbO3GKAWhyWo+G/DenWkk8+n2scKcszLXgvjPV7HUr8x6VZw29pEcAogBf3rZ+JHjO416+ktIGaKxiYqEHViD1NO+HngCbX5Vu75WisEPHYyewrnk7uyPfoU3Qh7Wq9Sp4C8WRaFOsN/aQz2hPUoNy++a+g9DvdN1OzjudPELIRkFQMivHvGnwxlske80RWkjA5hPJ/CuT8KeItR8NakrW7Mqg4kifofwppOO4VYU8XFypvU+o6j/AIqg026N7p9vc9BKgfH1qf8AiNbnhTi4tpjTTSOKeaTFBJEh61IDxUS9TTieKAMXXG4P1Fc9I/y1ua79x/wrnJDxUsRLFLh81vaNLuVq5dW+fFbGjTbSy0gOnEpprS+tUfOqN56Yy+0ozVK9lDzwIRn5s/lUfn8E1nmfdqeM/cXP50Ab4np3n1kiY0omNAyDxJM0lvHAh+aWVVx6jNa0cu1QvoAK5y7Yza3p6dkLSN+XFbAkFNCZeEnvTg9URNSiWkBf8ylEuKpebSeafWmBdMx9ahln96qtNzUUspxQBxHxYudvh26GeSK+fFXdXtnxZn/4ksoz1IFeKxU0B9EfDGdJNCsmiXaoUDHuK9PhlyorzP4bxrF4es1A/gzXeQy4A5pMRsLKaf5tZyS+9P8ANoGXhLTxLVBXqVXoAvRvzSXEvHWoEfiq88pzQBoaXNtuMZ610SPwK4m2m2TqQe9dSJ8QqfamIvLJlj7VKjZ79ayoZ+T71oQt8maBEkxOAvXPFKgAXA6DvTWkBxwBjqaS6nXYqxqBjgmmMdLO+Mb2x6ZqrLLjuaieTNQv74pCHSTH1NVpZT60rmoJDQMiYkmmGpDTSM0ARlc0wpmpwKU9KQysEUdqCoFTEelMPvQA0N6UokI6mkIFNIzTAmWTNTK2apgYp4fFAF0NtOa2tC1MW14okb5H4Oa5sSZ70+LLNg+vBoGesiis7QpXm0y3aU/MMg/hxWjSAKKKKACiiigAooooAKKKKACiiigAooooAKKKKACiiigAooooAKKKKACiiigAooooAKKKKACiiigAooooAKKKKACiiigAooooAKKKKACiiigAooooAKKKKACiiigAooooAKKKKACiiigAooooAKKKKACiiigAooooAKKKKACiiigAooooAKKKKACiiigAooooAKKKKACiiigAooooAKKKKACiiigAooooAKKKKACiiigAooooAD0rj/Ey/ufwrsK5jxLEfIY+5x+dAHBRjBNTAcUxRh2+tSjpVCEA5oanYxSNQA0UydRLGQeQRT6Tvj1pAeK+G/hzJe+JLq81SPZYJMxVD1fn+VexWtvFbQrFAgSNOFVRgAVxGo/ErT9M12fTr23kjETbTIOR9cV0Gk+KtG1MA2d9EzHsWwfyNZq1zvrrEVUnJaG9tVutcT41+Htlram4tVW3vuoccBvrXaRzK4BDKwPcVP1q9zmjOdJ3WhmaDaSWWj2ltNjzIowjY9qufxGpTUZ+9TRnOTlqxppKcabQSQdzRn5aR/vGkzxQSYmun5X/AN0Vzbng10OuH5iP9k/zrnJD1pMZCWw9XtOk23AHrWYTlzVm2bE0Z96kDpGeoHkqNpOOarvIaALTTbVrMtZd81xN6naPwourjbEW/ugmqti+LRSf4uaYzTWX0NPEp9azhIakWQ0hjbGVpdeu3OdkcSoD755rYWSud8POz288zDBllJH0rYD8UwLm+l31T3+9G8+tIC5vPrS+YfWqgc+tLvoAsNJgVWuLjC02WT5azrqX5aAPOfiveb7RYgfvNXmUNdn8Tbz544c/ebd+FcZYp5txCn95gP1q0I+i/BGYtJtlPZBXXJKNork9EzDawL6IK30l4GakDTSbAqVZs1mB/Q1NCxzQBqLJUqyZFUA9Sq9MC/5uB1qtLKM1C8vHWqc03NICys+JVro1uf8ARVOa4ozfODW1BdbrQc0AbdnNuk69637d8Rg+1cfpcu6Uc966dHxBVXEW1lCqxxnNVXkDGoy+UA6VCjEuRg0AWD9KY/SnE01jwaBkTVXfrU7VA3WgBppKU0lABRTqKAGN0qI1K3SojQAgpDTqRqAG1XuZ1i2g9WOBViqlxEZLiNsfKnP40ATwsSa6/QtINzGJSAEzjcfWuQj++K9Q8M4/sS1GRnBPH1P+NAy9bwJDCscakKOeanoopAFFFFABRRRQAUUUUAFFFFABRRRQAUUUUAFFFFABRRRQAUUUUAFFFFABRRRQAUUUUAFFFFABRRRQAUUUUAFFFFABRRRQAUUUUAFFFFABRRRQAUUUUAFFFFABRRRQAUUUUAFFFFABRRRQAUUUUAFFFFABRRRQAUUUUAFFFFABRRRQAUUUUAFFFFABRRRQAUUUUAFFFFABRRRQAUUUUAFFFFABRRRQAUUUUAFFFFABRRRQAUUUUAFYuvxhrdh6EmtqsrWR+5f3/wAKAPN5l2zMPelFPuuLp/rSCqEFNNONNNADTTTSmmmkB478Sfh9f32p3Wq2EsbK43GM8MMCvHN7wSkBmVwccV9eX6eZauPUV8umwlfxZJHFAzrHc8gDOBurnnE93LsTKcHGXQm0jxlrelMPs19LtH8DnIrvNF+MN1HtXVLVZB3aPg1Y8WN4Mgs/9Lhje72422/Bz+HFeQ3LQtcyNbIyRE/KrNkgUk3E64whiPjhY+rPDOu2viHTVvbPcEJKkN1BrTPWvN/gZIzeGJEb+GU16S1dEXdXPnsVBQqOK2GGmtTzUbUzAgc/PUZY806Y4aq7SgGgky9ZBZlx/dIrn5I32n5TXouk6SNRnRCuQ3Ga6hfAcAT5SD9RSYzwVY23nIIqZQ6SIzLlR6V7JefD0tkxBfwrLbwFPASzJkUrBY87muVEwVuI3+6TSMcMQDmuk1zwpKAwVGKnkcdDXOTWN3bRBZ0JZeM+tAGXqcp8tUHV221OvyoqDoBVGZi96PSMZqQTY+vWgZOH2sN1NvZhHp87g87SB9arPPuIz9ao6jMZDb26nh3BP0HNIZ0elxeXYwJ3CDP1q3iqVtMAoHtVgTZpgS4NHNM8wUu8UgHHNIWNLvGKQkUAQzSHBrLvZNqNmtKfHNYesPthcigDx7x9cCfVyAeIxiqHhOH7TrlrFjOXDVFr832jUbhuvzV1vwv0CaW+GozDbEgwme59asR6/p42xovoAK00PIqnaxYFX4k5qGBImasx8VGq4qRaBkoY5pWkI71GDzTJWpgOeQ+tVZZKV2qpK+M0gFaXmr1tcYhxmsOWXBNT21xmOgR1eiy5lAzXXMf3AFefaBMTeoM13xOY1+oqkIk9KVPvUlOXrVASHpUbGnt0qFjSGNc1AeTUjmo6AG0lLVae382aNwzAqexoAtU2lpKAGmmVIaZ/FQISmmnU00ANpp6GnNUbGgY3OGzXo/gyQPo6+qOV/ka837iu+8DkiCVSOCAc+/SgZ1VFA6UUgCiiigAooooAKKKKACiiigAooooAKKKKACiiigAooooAKKKKACiiigAooooAKKKKACiiigAooooAKKKKACiiigAooooAKKKKACiiigAooooAKKKKACiiigAooooAKKKKACiiigAooooAKKKKACiiigAooooAKKKKACiiigAooooAKKKKACiiigAooooAKKKKACiiigAooooAKKKKACiiigAooooAKKKKACiiigAooooAKKKKACsvWcCGQnoBmtSsnW8NDKp+6V/xoA8KuviHoTeKW0r7QVuCxUEj5SfTNdghyAeteGeKfhXqknj0X1pLE1iZxKX3YK85r2y3+WJFLEkDFUIsUUlFAEbU005qYaQHE/EPxqvhhUhWAzTzDK84A+teFax4mv8AUZpWDLAshJZIRtz9TXt/xF8Ez+KruyeCdIUiBDswz1PFHh/4Z6JpW150N5OO8n3fyrKcXI9fC4mhQp3tqeIaH4Y1jW5QLO1kIJ5kYYH51614Z+E9lb7JdXkNzL12Lwor0mGGOEBYkVEHAVRgCrKHAoVO25jXzGpU0joiDT7C2sLZYLSFIYl/hUYqc0pORTDWqSPNbbeopqN6UtUZagZVvW2xlq+Y/HPiTXZvGc0UdxcReTLtijUkDH9a+nrj5+DXPXei6dJffa5bOF7lfuuVGRQKx3fwta4ksbCS7BE5Rd+fXFerGvN/A3EkQ969HPakNC0hAPUZpaKBkElrBJkNEpzWFf8AhSyu2JKgH6V0lFAHlupfDxWEnkoCW74rj9W+Hd1BkqrivoKmSxpIMSKCKVgPlC/8N6hbsdqFgPUVhm0uhqTNLEVWJdo47mvrq90SyuVO+JR+Fc7e+ArKdW2EZJyeKLAfOUcpU9T+VXYbgdzivXbn4aoXJWNfwqrJ8OzGnEQP4UWEeahx3p4bPQ1b8R6d/ZUrI6spB4NYkc5bpSA0QxoLc1TSb3p5lpjJJ24rlvFU4jsJTu2nbmtyeevP/iFe7LLywfvnH4UgPN8l5WZuSTmvZvhfNNPoebgcI21D6ivGoBlvqa928E2v2LQLWMjDFdx/GrEdXbtkir47Vm233qvK3IqGBZFOU1EGpwNMY9jVZjlqkc/LUOc0gGTPgGqMj9aluW5qjMSB1oArzvkmiKYqpqJ+tMY4WgDo/C0u/VIR716a3Ij+teT+DTnWoR9a9ZHWP61cREx709O1MPenr2piFk+7Vc9ank6VXJ5pDGMetRmnE9aYaAA0lBNJQAtFFJQAhpMj1pGpvegBaaaKQmgQ1qhepm6VE/WgYicsK9J8IRY08vj7xxXm0f3xXqnhpNmjW55G4E4P1/8ArUDNSigdKKQBRRRQAUUUUAFFFFABRRRQAUUUUAFFFFABRRRQAUUUUAFFFFABRRRQAUUUUAFFFFABRRRQAUUUUAFFFFABRRRQAUUUUAFFFFABRRRQAUUUUAFFFFABRRRQAUUUUAFFFFABRRRQAUUUUAFFFFABRRRQAUUUUAFFFFABRRRQAUUUUAFFFFABRRRQAUUUUAFFFFABRRRQAUUUUAFFFFABRRRQAUUUUAFFFFABRRRQAUUUUAFFFFABWfq8W+BsdxWhUNwm6B1HU0AeN6+/kXxyT1qvb3gOfmP51L43XZck1zEVwVI5piOrW7X1pwuh61za3VSC7oA6Azj1FIZh6isD7X7mlF0PWkBueavqKQzD1rFN2PWmm6oGbPnjNO+0KBWKLil884oEbH2gGmmbNZSz+9SrNnvTEXjLSGSqofNODc0DJmYmoSgJ5p5YYqPJzQB2ngnBvUA6CvRj1FeceAzuvCfQ4r0c9RSBC0UUUDCiiigAooooAKKDxVea8t4h+8mQf8CoAnIB7UyRQsfArjdR+IukWmRv3fQg1574o+LS+XKloSU7EGgDoviTqOhWkcjas8G0diMmvANd8ZeFwZ49JtXEvaQNtA98VzHxB8STa28hYSHPvXmbQTCQlQwb3oA7K78cahA58udJV9MYpkfxCvT/AK2JT9DXHGFweR81N8ps9KAsduPHjN96NvzrE1rWG1M46CsQ28gH+qar+kWZlvI1dDz2NAHS+CfCl1rOo26JESuck+1e9W3hi8hjVfLYADsK7f4GeD7Gz0SK+MYM0nQkdq9a/s63P3o0P4UxHzwmjXUfJRvyqN4ZY2wyGvoZ9Isn6xJ+VY9/4Ss5nLRqB+FTYDxIZ9CKeG5r0/UvBUZiJjGa5S+8NzWxOFOBSGc3IR0qGQhRxVm8geBiGU1nStg80xEMoJ5qlcK1Xi421A5BpDM8xMaUwEirmMmkYEGgC/4GiP8Abq57Ka9T/jQfU1554Ii/4mrP6LXoS/69R/s5q4iJqetNFOBpgJL0quetWJfu1VfrSAjPemmnGmmgBKKKUUAFIaWkNAEdNNOpDQIbSUtBoGMNMbpTzTWoAIl3SoB1Jr16xi+z2cER6qgBrzDw9CJ9YtUPeQfpzXqh6igY6iiikAUUUUAFFFFABRRRQAUUUUAFFFFABRRRQAUUUUAFFFFABRRRQAUUUUAFFFFABRRRQAUUUUAFFFFABRRRQAUUUUAFFFFABRRRQAUUUUAFFFFABRRRQAUUUUAFFFFABRRRQAUUUUAFFFFABRRRQAUUUUAFFFFABRRRQAUUUUAFFFFABRRRQAUUUUAFFFFABRRRQAUUUUAFFFFABRRRQAUUUUAFFFFABRRRQAUUUUAFFFFABRRRQAUUUUAeU/Eu023MrIP9r8xmvMi2DXsvxFjVg7Y/hB/SvGLnhyPc0xDlmPvUgmPrVPcBSGSkMumc0n2iqPmGk8ykBoCb3p4lrNWSpkekBopJUgfiqSNU6GgCwrVNG1VVNTx9aYi7HyKdnmiHoKGHNMBwoNA70khwppgdr8Px+8DerV6QeorznwCMOtejHqKGCFooopDCiiigAooooAq6m2ywnb0QmvmTxfrusz3zRWu8kt719RyoskbI4ypGCK53/hD9KefzjCrN6mgD5gtPBuuavNvmWQ57ANXf6B8GZbiAG8cIT2brXvcFlBAMRxKPoKsAAdBigDxCf4H22z5GR2/2q5XxV8GrxLPybW3iVD1aNQT+dfTVBAPUA0AfHen/AAZuvPAe2kkA9VrutD+BMUkIa6jjiB7Y5r6H8tOyr+VO2igDwi++A+nC2PkfO3oRXnGq/Ct9M1TcIWKDkbRX19tFZN7p6y3StsBB65oAyvhxp76Z4YtY5Rg4zXWdRUSIFiRFAA9qloAMUUUUABGaq3VlDOpDxg571ZBpaAOJ1bwclyzGPH0rjdW8FTRucKSPYV7RSMit1UH6igD5xvdAubcnCH8ax5rKaMnepH4V9K3mj2l0SZIwD6isW/8AB9pIh8vG4+opWA+ftjA9Ka2a9fvfAJbJRV/CuW1LwfPAxxG3HtRYCh4IXM0zfQV3Mf8ArSfRQK53wvpklmJ96kfMK6GP77+2BVoRPSimCnCmA2XvVZutWJO9V260gIzSGlNIaQBRmiigBTTCacaYetADTTTSsaaTQAUGkooAQ0xqdSGgDY8JqTrdtjqGzXpleceDONbi4JyGA9uM/wBK9HpDFooooAKKKKACiiigAooooAKKKKACiiigAooooAKKKKACiiigAooooAKKKKACiiigAooooAKKKKACiiigAooooAKKKKACiiigAooooAKKKKACiiigAooooAKKKKACiiigAooooAKKKKACiiigAooooAKKKKACiiigAooooAKKKKACiiigAooooAKKKKACiiigAooooAKKKKACiiigAooooAKKKKACiiigAooooAKKKKACiiigAooooAKKKKAOJ8fx/uG9Sua8UvVxI31r3Xx4gazDdypH614rfxfO3saYjIccVCTVuRD6VVcc0hjM0hPvQRxTCKQD0bNWI2qonWrEfWkBcjNWENVI6spQBOnJq1GORVaPqKtp1FMRchHAp7CiHpSv0pgIOnuKinHzovqcn6VKWC5Zuwyaigy7GRujfdpkne+Bf9cPrXoh6ivN/BEircqDXpC0MpC0UUUhhRRRQAUUUUAFAGOlFFABRRRQAUUUUAFFFFABRRRQAUUUUAFFFFABRRRQAUUUUAFFFFAARkVC9vG/3lU/VRU1Jg+tAHPavp8UaMY0C1yiLtkkB/vV3Ws/6k1xB+8/uxqkIUUopBS9qbAik71AetTS1AetIBppDSmmmkAUUmaM0ALTGpxphNADGpppxpDQAlFFFACGmtTzTGoA6PwHHu1Vn/uIT/T+teg1wfw+T/iYXD46RbfzI/wrvOlIYtFFFABRRRQAUUUUAFFFFABRRRQAUUUUAFFFFABRRRQAUUUUAFFFFABRRRQAUUUUAFFFFABRRRQAUUUUAFFFFABRRRQAUUUUAFFFFABRRRQAUUUUAFFFFABRRRQAUUUUAFFFFABRRRQAUUUUAFFFFABRRRQAUUUUAFFFFABRRRQAUUUUAFFFFABRRRQAUUUUAFFFFABRRRQAUUUUAFFFFABRRRQAUUUUAFFFFABRRRQAUUUUAFFFFABRRQelAHOeMo91iv0b+leL367J2VuVJ5r3HxKm+02+it/SvHNXhxctxTEc1c290gJgHnx+g61nSyzpkS2ky++3NdA8RByM1WlMg/jb86QHPPeAD5oZR9VqI6hCDyJB9Qa25TJj7xqszP3/AJUDM0ahAehI/Cpo76LsSfwqbDZ52n8KkT8vwqQFivIzjAc/8Bq5FcA9IpD/AMBqGMn1NWoyccE0ASJM56QSflU6ST9oAP8AecVEM1YioQEqNfv90QJ9STQ9reP9+7Cf7iVag6VNVCKVtYLGB50ss5/2zx+Qq/07dKFHc08CgDc8NTFLlB716tZtmBPpXkegHF2v1r1uwwbVPpTYIsDpRRRSGFFFFABRRRQAUUUUAFFFFABRRRQAUUUUAFFFFABRRRQAUUUUAFFFFABRRRQAUUUUAFFFFAGZrRxA1cU/H512euf8e7fSuOkGHxVIQw04/dFNbrTj90U2BXlHNQk1NJzmoWHNIBuKa1PpjdaQCUUylBoEKelMNPaozQMSkpaSgANJSmkoAKY/en0x+9AHa/D6Pal43c7R/OuvrlfAX/Htc/VP611VIYtFFFABRRRQAUUUUAFFFFABRRRQAUUUUAFFFFABRRRQAUUUUAFFFFABRRRQAUUUUAFFFFABRRRQAUUUUAFFFFABRRRQAUUUUAFFFFABRRRQAUUUUAFFFFABRRRQAUUUUAFFFFABRRRQAUUUUAFFFFABRRRQAUUUUAFFFFABRRRQAUUUUAFFFFABRRRQAUUUUAFFFFABRRRQAUUUUAFFFFABRRRQAUUUUAFFFFABRRRQAUUUUAFFFFABQaKD0oAzNaGYf+At/SvJNcizfPXr2sDMI/3T/SvKtZX/AE96YjAeI1VlhBHStlk3dqryQ0AYEsFVJIsV0EkFVZbfjpQBhGOnKlaDwYPSm+TipGQIvSrCLSpDU6RcUANQVOgpBHip40oESxCp0FNRalUUwJFHFLQOlLTJNHQ/+PpfrXrem/8AHmn0ryPQv+PpfrXrmm/8eafShlIs0UUUhhRRRQAUUUUAFFFFABRRRQAUUUUAFFFFABRRRQAUUUUAFFFFABRRRQAUUUUAFFFFABRRRQBla5/x7tXHzf6011mvSKsWAeprj5TmQ1SEGeacxyKjB5pzdKYiJ+9QN71M/eoWFIY01GTzzSyHHSol5PNIB1KBTqKBCNUZqQ9KYaBjaSlpKAA0lKaSgBDUT9TUopjCgDufh/8A8et19U/rXWVyfgD/AI9rv6p/WuspDFooooAKKKKACiiigAooooAKKKKACiiigAooooAKKKKACiiigAooooAKKKKACiiigAooooAKKKKACiiigAooooAKKKKACiiigAooooAKKKKACiiigAooooAKKKKACiiigAooooAKKKKACiiigAooooAKKKKACiiigAooooAKKKKACiiigAooooAKKKKACiiigAooooAKKKKACiiigAooooAKKKKACiiigAooooAKKKKACiiigAooooAKKKKAM/V+Ix/un+Yry/V1/wBOavVNRj8yP/gJ/pXmWtptvTTEZ6x8UxofarCHinYBNAGe8PtUD2+e1a5QGkMa0Ac+9rzwKiNofSuhMS+gqJ4RSAwvs+OtKIfrWo8IzSCIelICmsHtUqQetWgoHSl20ARpGBSlPSplAFB6UwIDSd6cetN70yTR0P8A4+l+tet6Z/x5p9K8k0P/AI+l+tet6Z/x5x/ShlItUUUUhhRRRQAUUUUAFFFFABRRRQAUUUUAFFFFABRRRQAUUUUAFFFFABRRRQAUUUUAFFFFABQTgUVDcsViJHagDmPEM5M20HgVw/iLxHpugQiTU7pIQegJ5P4V02sSl7o/jXhHxz8Fatr91bX2loZxGux4lPP1qkI9W0HXNP121+0aZcJNH6qelahNeXfA/wAIaj4a0y4l1VTFJORtiJ6AV6hQA01HJ0qWo5OlICE1GRzxUhph60ALSikooAD0qM1IelRmgBtJS0hoAXtSUUmaACo2PNOfpXD6r4/0qw8RR6RIztcFgHK9EPvQB7h4BI8i69yv9a6uuc8FRBdNMg6OQR+X/wBeujpDFooooAKKKKACiiigAooooAKKKKACiiigAooooAKKKKACiiigAooooAKKKKACiiigAooooAKKKKACiiigAooooAKKKKACiiigAooooAKKKKACiiigAooooAKKKKACiiigAooooAKKKKACiiigAooooAKKKKACiiigAooooAKKKKACiiigAooooAKKKKACiiigAooooAKKKKACiiigAooooAKKKKACiiigAooooAKKKKACiiigAooooAKKKKAILn/VY9Sf5GvNvEybLg8V6XN90H0rzvxf/rTQJmBG1ShhmqyGnimBOWFITURpM0ASEimEmkyaKAI360zA705qbg0gFFLQFp2PSgBAKCKcB70EACgCBhzUbCpyKYRTE0WNJk8u5X616lpep2/2WNZJFTjHNeR5KnI4Ncp8UPFFzouj2ksErITMAcH2oHsfTUUscgzFIrD2NS18o+D/AIwXMQXzZ8j617b4T+JGnatEiyyKJT3BpDPQaKZDKk0YkjYMp5BFPoAKKKKACiiigAooooAKKKKACiiigAooooAKKKKACiiigAooooAKKKKACiiigAqC8/493qeqOqTCOBhnnFAHE6r/AMfhqoQD1AqW8kL3r+wplUIaBSig0maQC1HL0qSo5elAEJptKaTFACClpo60uaAA9KYaeelRt1oASkNLSUAFNJpTSGgBshwpryG7+GN1e+PH1X7VGLJ5BIQSd3XpXrMjZpsX+tWgD1HwmgTRo0HRTgfkK2jWV4ZBGlRAjucVq0hi0UUUAFFFFABRRRQAUUUUAFFFFABRRRQAUUUUAFFFFABRRRQAUUUUAFFFFABRRRQAUUUUAFFFFABRRRQAUUUUAFFFFABRRRQAUUUUAFFFFABRRRQAUUUUAFFFFABRRRQAUUUUAFFFFABRRRQAUUUUAFFFFABRRRQAUUUUAFFFFABRRRQAUUUUAFFFFABRRRQAUUUUAFFFFABRRRQAUUUUAFFFFABRRRQAUUUUAFFFFABRRRQAUUUUAFB6UUGgCKYfuj+Brzvxf/rK9EuTiBvbH86808Y3cIlI3qSO2aEJmFFUoAqtDOrAEd6nVgaYC0UtFACUUtFADWWmbalJphoAVVpxWmq1OLUgDAHWkwG6UjTqB/jULXkQ+86igCXFMxzWdc69ptvnzr2FfqwrIu/HGkw5ELyTt6Ip5oA6KTrXLeN/D48T28OnE7cktn3ArMuPGd5dPtsrUQ/7UpyfyFej/DXRptQu1u7t2kbaQSTwPoKAPkrxH4e1Dw9q89iyOpByCp4Ip/h/xHqGkzDLuQp79RX274p+G+la0rTugFyFwG29a+Wfix4Fm0G6lEcZxkkECgEj2X4Q/FSK8SK0v5eMYyTXvVvOk8SyRMGRhkEV+buhapNpd8jqSpU819kfBXxkNUsY7aWTfxjk9DQM9fooFFABRRRQAUUUUAFFFFABRRRQAUUUUAFFFFABRRRQAUUUUAFFFFABRRRQAVi+IThPwrazxmuU8R3Q5WgDmnbdcsfank4zVTf+9J9qm3ZqiR+6imZpQaBjzUcvSpKjl6UgIMUmKdjijFADcUYp2KMUANNRkVKRTGFAEZpvenEEU0kdutACE1GwP1psjsn3ulNWXd9ygBGzRDnzlppLZqxYxmSdaAPVPDwH9kwY9K0apaIgj0uBc54J/WrtIYtFFFABRRRQAUUUUAFFFFABRRRQAUUUUAFFFFABRRRQAUUUUAFFFFABRRRQAUUUUAFFFFABRRRQAUUUUAFFFFABRRRQAUUUUAFFFFABRRRQAUUUUAFFFFABRRRQAUUUUAFFFFABRRRQAUUUUAFFFFABRRRQAUUUUAFFFFABRRRQAUUUUAFFFFABRRRQAUUUUAFFFFABRRRQAUUUUAFFFFABRRRQAUUUUAFFFFABRRRQAUUUUAFFFFABRRRQBFcD9zJ64rwP402bRSs6b1Oc5U4NfQJGRg9K8k+Llp9osPMcfw5poD54g1fULdsRX1wuD0LZ/nWlD4u1ePG27Df78dYEq4mkHox/nQBV2EdOPHesq/3rdvqpqZPHmsf3LT9a49hk0AUrAdp/wnuq/wBy0/Wnf8J5qv8Azztf1ri6kSiwHWP451j+FLX9ahPjTWn/AI7dfopNc5SVNgOi/wCEr1p+t1GPolRvr2rP97UZvwAFYqVLRYC2+oX7/fv7pv8AgdVZMy8yvI5/2nJooqrARLGi/dRR/wABFP7UpFM70wLNgf8ASk+tfS3wjObNh/s1806fxcofevo/4RTL5DLnkrUyA9MrgviX4Rj1zTZWVAZQMj3rvTTJEDoVNSM/PHx/4al0PUpDg43HtWz8KfFsukapEvmlF3DPNe4/tBeGbaRZJ4IQCR82B3r5s8PaHd3OrlYEPytQB+gXhbVoNW0iCeCUSEqN2PWtivOfg1p13p2hKl2jKWUda9FoAWiiigAooooAKKKKACiiigAooooAKKKKACiiigAooooAKKKKACiiigCOZwkbE8DFed+I7xTOw3d66nxRqS2toy7vmIryHUdVM10xLZ5poTNd5+hzUiXOOM1z6Xu4Fc9acl1kYzytMR0azipBMK59bz3qRbz3pDOgWUGgvmseO796nW5z3oAv5FGRVL7R70faPegC9kUVUFx70onHqKALRAqNlqI3Ax2phnFAD2NN4qJpxUT3AoAlkAP3qgIC/d4qJ5/SoTPnrQBOTzWnoI33aL6msLzvet/wcpm1WDg4DZJFAHrMSCKJUUYAGKdQaKQxaKKKACiiigAooooAKKKKACiiigAooooAKKKKACiiigAooooAKKKKACiiigAooooAKKKKACiiigAooooAKKKKACiiigAooooAKKKKACiiigAooooAKKKKACiiigAooooAKKKKACiiigAooooAKKKKACiiigAooooAKKKKACiiigAooooAKKKKACiiigAooooAKKKKACiiigAooooAKKKKACiiigAooooAKKKKACiiigAooooAKKKKACiiigArzL4pj/iVv+I/mBXptecfFNGNjN8vy9vy/wD100B8tXH/AB8S/wC8f51G7BFyxxUt2MXU3++f51z099NNqzQ27xIy4AeTkA/SrEbIlQ9MU6tTw54vTw5Bcwa3p9pqEdzGY0uFUfuz61mkBXO05B5U0AKBUqimgVIBSbAQ9aSnHpTaQEidBUlMjq3YIZL+3jChwzDKnuKAKksyRsF+ZmPQKuai+3QCURSM0ch6K64zXUeJbq01DV3h8NWwsIYUAnbqS/tXL38E9vKJ3kF4iH545l5I9jRcCzSY5oQowVoG3QuNyeo9qU0wJLfiQYr3X4QzOZo0J6rXhUB+cV7X8IpALyEe1DA9vH3s+1OpE+6D7UDvUDPLPjZCzaOXwArcVyHwU8M2s13LPNCr7TuGR3rv/inbvd2axiMsv9an+Fmj/wBn6U7uhVnNAHdRxrFGFQAAegp46UA5FIKAFooooAKKKKACiiigAooooAKKKKACiiigAooooAKKKKACiigmgArO1TVYLC3aSRhkDgVQ8Q6/DYRMAw3V4/4o8RzXcrAMdueBQBc8YeJWvJmVG4z0ri2uTvOTyagd2kdmZmOaY6bhycEd6BF+Kcggg81Ya4OQ351jI7xnB+YdjVlJQ65PHtSuM1hNkZU0q3DKfmrMErI2V5X0qYShxx09KLiNSO9HrVqO8Hc1hfQ04MwPNO4G+Lz3pRd1hiWl873ouM3BdZ704XXvWEJvel80n+KlcRuNdj1qE3nvWOZPemiWi4G0LvPemtPnvWZHJxTmlx3p3AumX3phl96pmXnrTfM5oAvK5ZgPWvTPhzp+N9ywyFGAfc//AFs1yHgzw5Pq90JGBW2Q/PIemPQe9ey2NpDZ26w26hY19O9AFiiiigYUUUUAFFFFABRRRQAUUUUAFFFFABRRRQAUUUUAFFFFABRRRQAUUUUAFFFFABRRRQAUUUUAFFFFABRRRQAUUUUAFFFFABRRRQAUUUUAFFFFABRRRQAUUUUAFFFFABRRRQAUUUUAFFFFABRRRQAUUUUAFFFFABRRRQAUUUUAFFFFABRRRQAUUUUAFFFFABRRRQAUUUUAFFFFABRRRQAUUUUAFFFFABRRRQAUUUUAFFFFABRRRQAUUUUAFFFFABXFfEuHzNGm+ldrWB4vg8/T24yu0j8eo/rQB8d6vAYr6ZT6151eRzJrT+X/AKwSZH41614zg8jVJB61w+r2T+at7bIHdPvpjkj1FaCOduL6SSa6jm4DA8HsRXaaPfG78OWKSD96jFQx6kfWuGvI5by6Pkxbd559q7XSLcwWsMCEtHGOT6mpAv08GgLSgUAGKTFSFaTFIAQVkeJ5ZIGsZY2ZAsw3EHHFbSioNTskvrR4XOMjg+hpgO8Pz4juE3kSiQsxPf0q7qUYSyklZh8qnOe9c2i/ZRGJZZILtRhpNm5XHariTPcSIZJzeAdI1TaoPvUjDR0kjt4Uk7Jn8zxWiabBEyhi/LsctUpXFaIQ1Tgg1678IZcapAM15FivUvhGf+JzAfpSYH0V/AMUD5VJNKnKiqmp3CwWzknBxUDKOsrDfgWaYMmd1alrCLe3SJAMKMVzfhe3nlupbyX7p4Ga6qgAHSiiigAooooAKKKKACiiigAooooAKKKKACiiigAooooAKKKCcUAFZ+t3kdlYSO5+bHFTS3kMedzgYNef/ELW0e2ZIzwB270Aef8AivWpLq6dQx/OubG9x81VpblpLgsw6mrETBz1xQK44LTxFmrCw1MsVICqlvntT/swq8sYxS+WKAKX2YUC3x0Jq75dHl0AUghXrS9avGMHqKYYcdKAKuw0bDVgpSbaBkKx5oaMDvVgL6GkK560hEHy00n0FSyYHQVXPmMflFAAXx3xSeYx6c1KlmW++atw2aKOOaYFOKORz0ro/C2gyatqccHRfvM390VThgywAFex+BdKXT9FWRkAln+Y8c7ew/rQBt6fZQafbLBaoEjUdB3q3QKKYwooooAKKKKACiiigAooooAKKKKACiiigAooooAKKKKACiiigAooooAKKKKACiiigAooooAKKKKACiiigAooooAKKKKACiiigAooooAKKKKACiiigAooooAKKKKACiiigAooooAKKKKACiiigAooooAKKKKACiiigAooooAKKKKACiiigAooooAKKKKACiiigAooooAKKKKACiiigAooooAKKKKACiiigAooooAKKKKACiiigAooooAKKKKACiiigAqrqEAntpEPpkVapGoA+UPiZpbxarLJjjca4MAg4NfXPjrwjBrtpJJFGBcAE7cfe/8Ar18w+LrFNHvWSYNEueCwNUmTYwDHG8m4wruz1xVhAM4C47VXju7Vvu3KZz61NFPCT/rEzn1pgWNppcf5zTRLD2kX86d5sfZ1/OpCzFxRgelM8+P++tHnx/31ouGpKB7U8Zx0qATxdnB/GnidMcBj9FouGpF9oLfKEXjn5hmoTcSKWxtAHYDHFWY7eaQBY7advcJVuHRr6TJSxkJ6ZbikMrWwYruZt27FTkVopoF+ifMscf1asrW45bC23CZfMJxgCqQDwOtekfDKzvFvkuNjRwIeXbjNcZ4U1PS47uxjuI1kunIBB+Yk+uK9R8R69aeHdIlurhlRYx8iDqx9BTYHea347s9FhjWZlaZ+FTPNR6PqP/CT3ofdtiAzgV8u6PJq/jTxKb+5aQRu3yRg8KPSvrjwJow0nQ4UdNsxGWNQM6GCIRRKijAAp5+8KWkPWgBaKKKACiiigAooooAKKKKACiiigAooooAKKKKACiiigAqlqjsto2z71XaZKgdCCAaAPJ/FGtTW9sNpIZjXnepalPehsuTzXfePrQo7nHyBia86ji+ZgO9BLKaQ5PIqxHCFIxVsQe1OWLBoGOTOOalXrQBUiLSAcKcBmhRzUyigCErRtqwFo2UAQYpNpNW9lJtoAq+WTR5XtVrbSbaAK4i9qXyqmwRTHOO9ADDEopuBUckh9aiaQjvQBZyo7inLKB0xVFDk9anjz2xTA6Dw7AL7UoIVGWZwP1r3GNAiqqgBVGAK8u+Ftj5mpS3LjiFMj6nj/GvUqBi0UUUAFFFFABRRRQAUUUUAFFFFABRRRQAUUUUAFFFFABRRRQAUUUUAFFFFABRRRQAUUUUAFFFFABRRRQAUUUUAFFFFABRRRQAUUUUAFFFFABRRRQAUUUUAFFFFABRRRQAUUUUAFFFFABRRRQAUUUUAFFFFABRRRQAUUUUAFFFFABRRRQAUUUUAFFFFABRRRQAUUUUAFFFFABRRRQAUUUUAFFFFABRRRQAUUUUAFFFFABRRRQAUUUUAFFFFABRRRQAUUUUAFFFFABivmn9pPTVjuWPlnY48xWA9ev619LV5r8bvDx1rw+ssKgywtsb6Hkfr/OgD4a+zoCQrsvPrigW8ynKSOR9Sa7rUvDc0FyyyW4ODj7tVH0BCM+S6/wC6DVCOdgWfpvar8cTlfmY/nUsujor4R5Qf941D/ZUmeJJv++qmw7nV6NDbfZP3qKX9TVOa1i85zwR6ZrB+wSoP9fcY9mqP7I5OTNP+L0WC53vhlra2dvMMXJ/iANdidW01E/e3NqnHYCvFUs043GRs+rmrH2O3XrHu+pJosK563L4y0O14N8hPolUZfiLpEZxF58hP91DXmywRIPkhQfhTgQOgA+lFhXOs1Xx/PMhWx09vZpGx+lcDrWq6lfyk3dzsAOQsfapb28VU/wBYornLu9858Jlj6npTC50WgX8Olzx3krHMbBsk5Zq6ia91P4h6/G8gZLVGxFFngD1rB8J+Db3WbqHzEJA6AV9a/C34dW+h20VzdIPOH3RigET/AAu8B2+jWcdxcRDzcAqCOlemAdhwPShVCgADAFLSKCjFFFABRRRQAUUUUAFFFFABRRRQAUUUUAFFFFABRRRQAUUUUAFBoooA4D4lW6raZA6qTXk0UeHBIr2L4kAm0UD0NeTKMN9KCWL5YNIYuasIuak2e1AymUxTkX0qSaM9qjXKnmkBIiVIFpY6mAoAYi0/FSImacY6AIcUlP200igBpOKbxT8U0j2oAjYk9agkIqdie9QsgPegCq554FM2Fu1WxHk1IsNAFSODHarMceKmVKlWOmB6X8M4QunXEnTLKv5Z/wAa7SuY+H0YGiFh3fB49B/9eunFAxaKKKACiiigAooooAKKKKACiiigAooooAKKKKACiiigAooooAKKKKACiiigAooooAKKKKACiiigAooooAKKKKACiiigAooooAKKKKACiiigAooooAKKKKACiiigAooooAKKKKACiiigAooooAKKKKACiiigAooooAKKKKACiiigAooooAKKKKACiiigAooooAKKKKACiiigAooooAKKKKACiiigAooooAKKKKACiiigAooooAKKKKACiiigAooooAKKKKACiiigApGVWGGAI9xS0UAZ13o2l3YxdafaTf78Kn+lYt54A8NXYO/TlQnvG7L+ma6ujg0AeA/EL4TQWUb32kbmtxyyOfmU+ue9fP8A4kun0m7eN48bT3FfeOsgNpF8Mf8ALB//AEE18RfGiHbqUpA6sRQByi+JLdh84C/ga1hYX0pQpb5DruX5u1edF9vFdPF46vre0SKOCHKrtDnOaAL+ozNpcuy7jIbsAc1SOtKxxHEeeuTXO6hrF3qdx5l2dzduwqLzH2/PJj/dFMR0b6qy9dq/jVvTtf0pLeX7ZaSXdyx+Tnao+tcflT1+b6mux+HnhW+8R6kkdnblkHJY8AUCsMg0S78Q3KyQ2qww5+VEFet+APg5NdzRvcRFV6nPAr2z4e/Dmw0zT4XulEk6jJx0zXpFvBDAm2KNUA7AUDscz4V8EaboMMXlQo0qjrjpXWgACjNFIYUUUUAFFFFABRRRQAUUUUAFFFFABRRRQAUUUUAFFFFABRRRQAUUUUAFFFFAHE/EY4tlx1wa8rQFnOa9T+JH+oT6V5lEvzGgTJI0qYJkdKWNKsInFAFZosjpVV4DWv5eRUbw8dKAMyNcNVpEpXi2nNOjPakA9BinNzQOtLtoAjIqIrVrbTSlAFUikIqdlqJhQBXcdaZtqwVpAlAESpUm2pVTFO20wI1XpU0Iy4HvQBU1uP3yfWgD1fwnD5GhWwAwWBY/n/gK2aq6XH5On28fTbGv545q0KBi0UUUAFFFFABRRRQAUUUUAFFFFABRRRQAUUUUAFFFFABRRRQAUUUUAFFFFABRRRQAUUUUAFFFFABRRRQAUUUUAFFFFABRRRQAUUUUAFFFFABRRRQAUUUUAFFFFABRRRQAUUUUAFFFFABRRRQAUUUUAFFFFABRRRQAUUUUAFFFFABRRRQAUUUUAFFFFABRRRQAUUUUAFFFFABRRRQAUUUUAFFFFABRRRQAUUUUAFFFFABRRRQAUUUUAFFFFABRRRQAUUVHNLHEMyOFoAkorMm1uxi6zA1Vk8SWCqWE0OB97dJg/hgEH86AN2iuB1X4naPp2c4cj0k/+tWMfjZoQ6x/+RR/hQB6vSH5RXj938btJWI/Zo1U/wC0+7+ledeKfjdLLuVCxXttPH5UAe8eLPE9laafOvnR8jHX73/1q+MPixq9tf6lLhnbknHak8SfEe71FWCqQDxksSa87vLtrp2aQkk9STQBWaRCfkQCmsxxyBSfKTxkUvGPvGgByozkY4q9BaAj52NUBuzw2KkWSVeklAG5b29vFg7Mn1Jr074X+JJdDvlFuisspAYHtXi/nT/89a1tH1WezlRxL905oA/Q7wfq0Wo6Wjg7X7iuiHTmvj74a/FKW3uIop5+OhGa+pfDOu2+r2MckUgLsORmgDcooooAKKKKACiiigAooooAKKKKACiiigAooooAKKKKACiiigAooooAKKKKACiig9KAOI+JH+oX/drzaFfmr0Tx/N5sYUdhXAwJg0CZZjXirMa8VGgqwg6UAPVMilMQxUiDiptvFAGRcR4qkQVaty4jzWfLFk0gK6Sc81OJAarOm00qgg0AWQaXGajWpR0pgMZc1GY6npdtAFUxn0pNlWSKaRQBDtpdtS7aCtMBmKsWK7rqJf7zAVFirukITqEJXghwRSA9fRQqgDoKcKBSigYUUUUAFFFFABRRRQAUUUUAFFFFABRRRQAUUUUAFFFFABRRRQAUUUUAFFFFABRRRQAUUUUAFFFFABRRRQAUUUUAFFFFABRRRQAUUUUAFFFFABRRRQAUUUUAFFFFABRRRQAUUUUAFFFFABRRRQAUUUUAFFFFABRRRQAUUUUAFFFFABRRRQAUUUUAFFFFABRRRQAUUUUAFFFFABRRRQAUUUUAFFFFABRRRQAUUUUAFFFFABRRRQAUUUUAFFFFABQelFcn448TW+iaZI8r4B4oAseIvFNrpEbFnUgdef5V454l+KdxLcSx6WjyHpkDNeY694xl8S+IFtI7n90SSwU9hWjEqxptiUKvtTSERanq/iXUmP7zyVP95v6VBbw6sRi41Ej2UVfXrTs0WAxbzRBcHNxdzv8ASq//AAjem/xRSN9XNdFXK61d3Md5JGshWMelOwFk6RpFt96CMf7zZrmtbm0tUxbQRf8AARUreZM3OZPrWbc27xoVeMbR6nAosBzskBuZcRxEjPQCiXT44B+/wvtU8+pvASsChfcVkz3DzSFpXJJ9aQFx9NGwOvK9qpzWpQVu2FwDp/luRuWtSx0D7ZbrOz4BoA463tfM7nIqV7LaM5Nbl1ZJZ6t5AbgrmmXiKF69RQBz8UBkcqDzU5s5EGcGmfcmO01s6XciX91MAR/eoGV9LdradZE+Vxzwetew+DfiVLpIjSQNu7srVwR0c3Cq0YXaP4kHX8KyLsNYzGOY4b2oEfTMPxnDAAzyL9a09M+K0lzPtS43j+VfKAvU/vV0fhO6Zrjy0JG49aAPujwxrSaxYrIPvAc1tV5n8HJGewIY5wBXplIaFooooAKKKKACiiigAooooAKKKKACiiigAooooAKKKKACiiigApH4U/Slpsv+qfHXBoA8z8ZzZuWXPrXMxCtnxa27UG5/irKiHFAieIdKsqOBUcY6VOBQA9alHSmIvFTqmRQBEygrVWWKtSO2aQ4UUr2LA/MKAOeki56VCy4rdns8dqoTW+KAKS8VIppdmO1OWgAAop4XNP8AL4oAiprDmpdtMYUAMooopgJWr4eTffx/7wrKrY8Nf8fo+tAHqlLSUtIYUUUUAFFFFABRRRQAUUUUAFFFFABRRRQAUUUUAFFFFABRRRQAUUUUAFFFFABRRRQAUUUUAFFFFABRRRQAUUUUAFFFFABRRRQAUUUUAFFFFABRRRQAUUUUAFFFFABRRRQAUUUUAFFFFABRRRQAUUUUAFFFFABRRRQAUUUUAFFFFABRRRQAUUUUAFFFFABRRRQAUUUUAFFFFABRRRQAUUUUAFFFFABRRRQAUUUUAFFFFABRRRQAUUUUAFFFVb2dYIgd+00AZviHV0sLdyXAOK+bPi1q02rRSRxzyAZruPiX4kIldEznONq815VfFpgWfJz600hHnWhaZLaautz5jA813kLyYH7w1R8hRJ0q7DimBYEkvqKeHk9RTB+FOB+lUIa0k49K5zVIJ5LlnPeulJzUMkW80Acza+bATuGMmuX1u4nnvJVlYsAcAV32o2zGPhSOetc5dWAMzMRhvWlYZw80Uhz8pquYJS33TXcPZL6Covsif3RSA5iGOZG+4cHivS9I2ppcCngla5wQgYOK14borAiBegosScprNwx1+Z8Z28AVBPI8wxtx6Vt3VrFNdPIFwx5JpEgjWMqEyeuaCjmHs23g8/lWjp9qyuDtJ+layWZZwAjAE85B4FdHJYWFtbAWsjPIR/Dkc/jQBl2t1JbWk6wnBYYrKksXvW3nlvetkWbkEsAGPvUyWqgHexwD/DTEZdr4fcoGaIkDqcV0XhzT1guN4GMdKmk1bESxJHtUDBIHWrGiymafGAAOeO9ID6P+Dw22JH+yK9NrzP4Q/wDHmf8Adr0ypKFooooAKKKKACiiigAooooAKKKKACiiigAooooAKKKKACiiigANQXn/AB7v9KmPSoLz/j2koA8o8SjN8frVKIcVf8RD/TfxqpEOBQImiXjNWI13HApkQ3AAVo2kODkigAhgOORirUVvg1Y69QBTiQB8tMkdCDEwIwMd6klYuSz5YnvUAGc5yc1MCwQJxtoAqTRhgaoS22Sa2CgNRMntQBhNZse1RtZMO1dCIc9qd9nHpQBzJgde1NIYda6N7UHtUL2IPagdzCyOlNZQfetKfTjzVN7d4u2RQIpuuO1Mq0y5qCRcUDI61/DX/H6PrWRWv4a/4/R9aBnqlLSUtIYUUUUAFFFFABRRRQAUUUUAFFFFABRRRQAUUUUAFFFFABRRRQAUUUUAFFFFABRRRQAUUUUAFFFFABRRRQAUUUUAFFFFABRRRQAUUUUAFFFFABRRRQAUUUUAFFFFABRRRQAUUUUAFFFFABRRRQAUUUUAFFFFABRRRQAUUUUAFFFFABRRRQAUUUUAFFFFABRRRQAUUUUAFFFFABRRRQAUUUUAFFFFABRRRQAUUUUAFFFFABRRRQAUUUUAFct4/m8jSfMBx1H6V1NcZ8Tjjw+SOuTQB8w+ItTuJL98SnGazVvZv4mB/Codcm3X8mVxyehqqjL6v+dUSjRFy3cA/hUqXZH8C1miRfVvyFKZcdHP5UwNdbsn/lmKkW4z/B+tYyTt/eX8jU6XB/vp+RoA0/MbJPl/rTfMPyfIeDnrVMXAx99f1pRcDH+sT9aQGhql7JfR/wCkRp/wFQKyJLdCuAp/OrJkVlH7xB+dMJyceauPxoAovaxjtURt4/7v61edRnl/0qJlT++fypDKv2eLHCj86cI1UcIKUqo/jb8qQlQPvNQSNKKpOVXP0pwGOQFB+lJuQjPP51VHOoujFtvlhutMoulz3JqMuO5pdg96Ty19BSJGGQU0uT0BqbYPakIFAEPzHtW34cX97I34VkGtfw8cXDD/AGc0xo+kvhB/x5n/AHa9MrzP4Q/8en/Aa9MqShaKKKACiiigAooooAKKKKACiiigAooooAKKKKACiiigAooooAD0qvfHFs/0qxVPVTiykPtQB5h4g5vD9arwJkDFP1VvNvCB61bsosAZFAia2h2qC1X1IRQf0quzgc1JCjMMt+VUInQ7nz+lTAbm9vSmRL3qyij8aAFRfanhPanohNTpETTEVdhPani33VdEQApcY6UhlYQKO1Znii7fSfD2oX8EYkkt4WkVT3IFblV721S6tpYJQGjkUqQfQ0AeCfB74r6r4l1eaz1qCMxFsLIi42/WvefLU8gcVwHh74dQ6FqUjWKxrA7bunPWvRQu0BfQYoEVJIVboKqyWYbPFabD2phAoGc7c6d1IGPpWXcWzIcMOPWuydQRVKe2RweBQBxbrtYitXw1/wAfo+tSahp+Mso5pvh1St8AfWkxnqVLSUtIYUUUUAFFFFABRRRQAUUUUAFFFFABRRRQAUUUUAFFFFABRRRQAUUUUAFFFFABRRRQAUUUUAFFFFABRRRQAUUUUAFFFFABRRRQAUUUUAFFFFABRRRQAUUUUAFFFFABRRRQAUUUUAFFFFABRRRQAUUUUAFFFFABRRRQAUUUUAFFFFABRRRQAUUUUAFFFFABRRRQAUUUUAFFFFABRRRQAUUUUAFFFFABRRRQAUUUUAFFFFABRRRQAUUUUAFcb8UP+Re/4Ea7KuM+KH/Iv/8AAj/KgD5F1z/j/f6mqSVd1z/j/f6mqS1oiSUCgilxRikADFOGKbmlzQAoqQVGKkFADxT1pgpwpDBmJ9ahapWYelRnFICN+lRZqVvrUTcd6BCVCv8AyFgf70WP1qaoRxqUB9VYUxl2jFLRSJA00jmnmmmgCM1qaCcXB/3azK0dFOLj8KaGfSPwflXyQv8As16jXhfwqvNt3HGG6nFe6CpGmLRRRQMKKKKACiiigAooooAKKKKACiiigAooooAKKKKACg9KKD0oAB0qhrTbdOkq+OlZuvHFg1AHmbpm6Zj68VeRwFxVWU/viR61PEN7hfzpkliFS7BiOOwrRiTioYE2gVdjHFMBUTH1qzFFxzSRp3NToaAHxpjrU3AFR7qATimA/mjPHNAPFRuaQDsilzUdwojePb90rmkzQhEhplIWppamMcxqFjzSs1RMc0AKxqJqCajY0CGSIHHNVrW28q7Ei8YOTVkmljbDA+9JjO0pagtJBNbI4OcipxUlBRRRQAUUUUAFFFFABRRRQAUUUUAFFFFABRRRQAUUUUAFFFFABRRRQAUUUUAFFFFABRRRQAUUUUAFFFFABRRRQAUUUUAFFFFABRRRQAUUUUAFFFFABRRRQAUUUUAFFFFABRRRQAUUUUAFFFFABRRRQAUUUUAFFFFABRRRQAUUUUAFFFFABRRRQAUUUUAFFFFABRRRQAUUUUAFFFFABRRRQAUUUUAFFFFABRRRQAUUUUAFFFFAATVK51Kxtc/abuCP/ecCk1htunTn0A/mK+W/iTrV0NRZRI+0HpQB9H3PjLQYQQb5HPonP69P1rz74heMrW5szHE2c5/CvndtYvCf9Y351WuNRndl3SMfxqkibjtUm867dvc1Avao1YsST3qRe1UIlzS5pKKBi0UUUAOQ1JUS1LUiJFNGeaFFGKChrUw081GaAImpjCnmmmgkBUU/FzbH/aIqVahvOJLY/wDTQD9KCi8etJSnrSUiRTSGl7UhoAYx4q5pJxeJVJqs6acXkdNDPX/hlJt1WL/eFfRS9BXzj8Nv+Qon+8K+jl+6KTGh1FFFIYUUUUAFFFFABRRRQAUUUUAFFFFABRRRQAUUUUAFFFFABWN4hP7g1s1i+If9SaAPPZGAlf0Bq7Ypggnr1rOk+a7K9s5Na1t2qiS/FVqPtVWKraUCLCHin5qAnFOVqBk4NIXKkbhwaj3U5Jl8hopF3f3T3FMCUPSM2aroR708nFAD5ZCyRr/dpjPyRTGYZ+tRPLzQBL5mDSPIDVR5xmmGYGkIsmT3phk96rmUVGZaBlovUTPUBkphkoAsFzTQxz1qv5hz1FAk/wBqgDpdCvtpETn5T09q6GvPoLjy5QRXaaXP59sORlcce1JjRdooopDCiiigAooooAKKKKACiiigAooooAKKKKACiiigAooooAKKKKACiiigAooooAKKKKACiiigAooooAKKKKACiiigAooooAKKKKACiiigAooooAKKKKACiiigAooooAKKKKACiiigAooooAKKKKACiiigAooooAKKKKACiiigAooooAKKKKACiiigAooooAKKKKACiiigAooooAKKKKACiiigAooooAKKKKACiiigAooooAz9d40u4z6D+Yr5J+Jk0a6hKS+BnrX1d4rnWDRLnd1ZePwr5G+KGoiaORIIQZZGxmPkj9KaEzizdRZz5mfbFI08cvCNyD6VUjt5Nq7onz9KmS1kR1cowGeuKpElxAamTrTBT160wJaKSigYtGaKKAAGplORUIqZBxUgSLS4pUHSn4oGQNUMrbfvcLVs4rm/HG4aQGRipDjkUAaEt1EvV1H41B9utj1nQf8AAhXmbPIersfxpUyBk8/U0rhY9I/tWzXrcRD/AIFVe71W0l8hY5lZhKOnrXnu857VYs3YXMI9JAaLhY9YY5FHemIcqKcOtBItJS0lADCKmsTi7iPvUTdRTrU4uIz/ALVMZ7B8Nv8AkJp/vCvo5fuivnH4a86on+8K+jl+6KTGh1FFFIYUUUUAFFFFABRRRQAUUUUAFFFFABRRRQAUUUUAFFFFABWN4h/1JrZrnvFM3lxH6UAcDbjfdzMezYrVtzgAVkw/6xyP4mzWnAeR7VRJpRVMr4NVUapQ1AFjcDjGTUynbg/oarwAM3OanlkULt4470APlkjYhkUoe47VGTk1X3e9NaWgC1uwaR5MVRa4xUEt170AXJLgAHmqct1hetUp7kdqoTzsV4NIZfkus85pgvu2axy7kdaIs55NIDYN3z1o+0+9ZYY5p4Y0AaP2il8/3rODmlEhoA0RIKcHHrVASU4SUwL4cetdL4cuyrqrHCng1xwkrV0W68uUDNAHoooqO3fzIUbOcipKQwooooAKKKKACiiigAooooAKKKKACiiigAooooAKKKKACiiigAooooAKKKKACiiigAooooAKKKKACiiigAooooAKKKKACiiigAooooAKKKKACiiigAooooAKKKKACiiigAooooAKKKKACiiigAooooAKKKKACiiigAooooAKKKKACiiigAooooAKKKKACiiigAooooAKKKKACiiigAooooAKKKKACiiigAooooAKM0VleIL0WVhK+DwPm+lAHE/ErxJb21q0Zlxxggc14Jc6zZPcMTDI/P8Ad/Wtbx3q0uo3zqqsUB9K5HyX/uNn6VSJZffVbYbttoGz/frH1e98+BgYQmF42nirRhf+435VzOu6vHYuY5YZSCMBgOKYFlR8imngURkPCjDoQDTqYC4opM0UALS5ptLipAWpENR09etMCZTTs1GKWgBzHNYPjNd2iS+xBrc7Vk+KF3aJc+wzSGeZDqtW7y3iW1ikjnR2JOVHauw8I+C11TTf7TvLhI7YMUUA8k1i3dvpFtL5YmncgkN8vSkUc2FNWrCQQzKT94GtVF0yTzFxKvGE+vvXQ+IfA9tpnhSz1a3vBLLIod0zyKANyI7oo2HcCparaad1jA3qg/lVrtQZsO1BoPShulUAw06HiVPrSHpQnDj60DPWfhzJ5epRsT3Br6StJRNbI69CAa+WfB05jvITn0r6Y8Ny+Zo8Le1Sxo1KKB0opDCiiigAooooAKKKKACiiigAooooAKKKKACiiigAoooPSgAzxXBeNdQVwwjbpXa3IkMBEZwxrzrxHp0zyNkcEU0JmHpspeFc+ua14G+Y1iWyNb7VYYNa8DdKYjRV8LUsbdDVMNmplbAoAvxygKajeQEVWD8GopJMCgCxJKB0NQNMaqyS+lQlyaQyw83vVaWUmm5J9qY1ADDmoZBU560xxkUAVCeakQio3X5qcgpASiloFFADaDS0hoATJpQ3NJSUwJlerVnMElU1n5p0bEMKAPVdCmEtmOeB0rTHSue8IvuspF7gg10NIYUUUUAFFFFABRRRQAUUUUAFFFFABRRRQAUUUUAFFFFABRRRQAUUUUAFFFFABRRRQAUUUUAFFFFABRRRQAUUUUAFFFFABRRRQAUUUUAFFFFABRRRQAUUUUAFFFFABRRRQAUUUUAFFFFABRRRQAUUUUAFFFFABRRRQAUUUUAFFFFABRRRQAUUUUAFFFFABRRRQAUUUUAFFFFABRRRQAUUUUAFFFFABRRRQAUUUUAFYGq+TdxlZXwGGTzW/Xz/APE/Wr/TY1azuXjO0dDQB6LJ4R0OXLSKhP0FZOp+FNHgGYkT8q8NtfHGutx9ub/vmtJPEWq3agS3sn4YFO4rHQ+KtLtooWaHaABXiHi+KEs653uOgXmvRdSeSaL99LJJxyGauD8QRiJGIVQe2KLhYpaPexzWMQxhlGDV81x+j3GxvxINdRbzBh61SYifFFLmimAlLmloxUgJTgabThQBKDTs0wU7FABuqlrK+ZpdyP8AYNXiPlrir3xBOzz2/lptBZPwoGGg+JFsrI20kbNg8enNcvcPvmkcD7zE4pcgOw9elO1OIW900SHPAP6UhoiV8OrehBNb9z4kebR2sPLbBG0HPGM1zYVqVPv0DPStJuo/7LtS0ij5B1NagOUBBzmvImdwcB2A9M16jozb9Mt26/uxQRJF3tQelLSfwimIRqQcH8adSDrTQHaeHJNk8B+lfUHg1t+gwH2r5Z0A5e3PuK+pPBP/ACAIKllI3h0ooopDCiiigAooooAKKKKACiiigAooooAKKKKACiiigAooooASoLm3imjIYZNT0mKAPL/E1mtrcYAxg5B9ao2kmQK7DxzZLNAvGcL1riLBTHlW7GqRLNVDz1qUt71VRqUvQBM0mBULuTTc7qTHNMBpyetKopxoBqR2ExTGFSUxhQMiOc01qeetNYUCImUE01RzUlJgZ4oAKQ06mmkAUlLRQAymmnmmmmA2lXrSUDrQB3/g5sgjPUY/rXW1wvgyUG4VSf8APSu6FIYUUUUAFFFFABRRRQAUUUUAFFFFABRRRQAUUUUAFFFFABRRRQAUUUUAFFFFABRRRQAUUUUAFFFFABRRRQAUUUUAFFFFABRRRQAUUUUAFFFFABRRRQAUUUUAFFFFABRRRQAUUUUAFFFFABRRRQAUUUUAFFFFABRRRQAUUUUAFFFFABRRRQAUUUUAFFFFABRRRQAUUUUAFFFFABRRRQAUUUUAFFFFABRRRQAUUUUABr52+NFrLHBynQYr6JrzD4waR9o05pQvyAZoA+X7N9riuksGziuYkQwXbof4WIrodNbKqakZpXJzEa4jxNwjV20/KYrifFXEUn0NNCOC058M/wDvmunsJeBXK2nDN9TXQ6e3H4VSEb8bZqTNU4GzirQ6VYh4NMY0UhqQFBpwNMFKKAJx0qQCol6U8UAK3IIry3V/3Wq3Q9HNepZrzDxMu3XLoepzQCINHtjeapbxKCdzfpT9dwNWuACQFbFXvBk0drq4uJo3cIvRe1N8T3C3GobkhWIYPTqee9JlIxKcI93NMrSkvo/7GFsFAmEm4Njtikhma6FZBmvS/DcgfRrfHZcV5m7liM16J4QIbR0x2JFMmRuGgUGlpkiGkzmhqYTTA7XwnCZntgOea+ovB6bNCg9xmvnj4X2ZuJouM819M6dCLezjiUYCjFSykWR0ooopDCiiigAooooAKKKKACiiigAooooAKKKKACiiigAooooAKKKKAM/WYFms34yRXml1CYLllx1NesOoOcjINcj4k0kBxKnRuQKBHJ55p69abIpWQg05eoqgH96KKKQBSetFHrQACmtThTWoAjJ5pCaXvUTfeoYDGbDU1nApsg+ao5s7akCcMG6Glqnabs81cJpgJQaM0lAAaaacaaaYCGkPWlNIaAOn8Fvi9i+oFei15t4P/wCP+L/fH869JpDCiiigAooooAKKKKACiiigAooooAKKKKACiiigAooooAKKKKACiiigAooooAKKKKACiiigAooooAKKKKACiiigAooooAKKKKACiiigAooooAKKKKACiiigAooooAKKKKACiiigAooooAKKKKACiiigAooooAKKKKACiiigAooooAKKKKACiiigAooooAKKKKACiiigAooooAKKKKACiiigAooooAKKKKACiiigArN1+wXUtLnt2UEsvy/WtKkoA+OvHXh6bTtVk8tCRuJNUtLil2jMbV9k3Vja3XFzbQzA9pEDf0rLn8JaFPkyaXbgnuq4x+VKwz5kt7Ge4dUVGO44rqrr4Lare2iSSGHLjLRM2GX2Ne5af4V0fT7hZ7e0USr0bk4NbgAoSEfL3iT4KC00218i3fzFB8xgpIz9a8p1nQX0e5MThhjjpX3xXyR8brf7Pr1yn9yRqpAeaQdauDpVOCranirJHUhpQaDUgJSrSE0A0AWF6U8Gol6U+gRIDXnXiqEvr8gHdQa9CBrAuNK+3+KIl9UFA0Xvh94e1E6dqDWduJZpk2qSucVB4u+H2tWEdvPdW4jZ1JIHOTnvX294E0CDRvCWm2JhTdHFucEA/O3J/nVbxz4fsL3RpWltxvX7pHOPwqSj867q2ktpTHMhRhx9abNaSx2kdyQDE5IBFdt8U7OOz1YxopBDEVz+nJEfD9886blUBYzno2aQznwNzKvqcV6N4XQwWTRuAGB6A5rz+K3kc/KK73w1a/Zbcx7t7FQx9s1QmboOaXNIqsf4ak8p/wC6aZBE1MNWVhd+itV+x0K6u5PlRgPcUAemfBpfMntx/tivo1Pu1438IvC9xaBZpOAvrXsijAx70mUh1FFFIYUUUUAFFFFABRRRQAUUUUAFFFFABRRRQAUUUUAFFFFABRRRQAVVv4g9vJux049qtHpUF7/x7P8ASgDzPUUC3TY9ahUVc1VcXLfWqgqhC0UDrS0gG0etLSetAAKa/Q04U1+hoAiB5qNvvVJjmmHrQwInHNRyjIqRutNPNSwIk+XpUnLUoUU8UwEAxSGnmm5oAQ0004000wENIaU0jUAdF4PIF/Hn1r0qvMvCJxfRn/aFem0hhRRRQAUUUUAFFFFABRRRQAUUUUAFFFFABRRRQAUUUUAFFFFABRRRQAUUUUAFFFFABRRRQAUUUUAFFFFABRRRQAUUUUAFFFFABRRRQAUUUUAFFFFABRRRQAUUUUAFFFFABRRRQAUUUUAFFFFABRRRQAUUUUAFFFFABRRRQAUUUUAFFFFABRRRQAUUUUAFFFFABRRRQAUUUUAFFFFABRRRQAUUUUAFFFFABRRRQAUUUUAFFFFABRRRQAV4f8cvBVxqmonULaFnjdFDsP4SOP6CvcKRlDDDAEehoA+JLrwle2vIRvyqidIvBn90cDivty40nT7gHzrK3fPrGKoyeFdDfOdMtufRMfyquYR8Y/2Td/8API0v9lXXeJq+xD4I0A8/YEH+6zf41Xl+H+hv0jmX6OP8KOYD48ks5o/vRv8AlULIV6qw/wCA19dXPwy0iX7rzL9QDVGX4SaS/W4l/wC+B/jRzAfKybuwP5VIgYnoa+oR8INJH/L3N/3wP8aX/hUOk/8AP3N/3wP8aVwPmRLWZ/uRsfwr074Q/D69vvEdrq2oWTR6dAPMLS8eYwPCgHqPX6V7X4e8AaLo7BxALmUdHmAIH0HT8811yqFACgADgYouACsrxP8A8gmT/PY1qisrxN/yCJfp/Q0hnwl8Z2x4gxj+LFcvpsZfwzegHgMDiuu+MbIPEK5HIeuV8ORtPpeqop6JuxQARQLnSyP+WuN3vzX0QngiGcWRs7dUDQKWwOpr59KssGjSfw9vwNfcnwyCTaLZyOqsxiHNMDgdO+Fsk0av5R/EVrJ8KmP3kUV7EAB04+gp4ouKx5JafCtUfLlQK67S/BOm2ca5Xe4rraKVx2ILW2jt4wsahQO1T0UUAFFFFABRRRQAUUUUAFFFFABRRRQAUUUUAFFFFABRRRQAUUUUAFFFFAAOlR3C7oWHtUgpHGUIHXFAHnuvRbJmrKrovFQHmGudHQVSEFFFFIBe9NJpaQ0AAprU4U16AGZ5qN+tO701+tICImgUhHNKtADqQ0tIaAENJSmkoAQ0hoNIaYAaRqU0jUAbnhL/AI/I/wDeFeoV5f4T4u489Nwr1CkMKKKKACiiigAooooAKKKKACiiigAooooAKKKKACiiigAooooAKKKKACiiigAooooAKKKKACiiigAooooAKKKKACiiigAooooAKKKKACiiigAooooAKKKKACiiigAooooAKKKKACiiigAooooAKKKKACiiigAooooAKKKKACiiigAooooAKKKKACiiigAooooAKKKKACiiigAooooAKKKKACiiigAooooAKKKKACiiigAooooAKKKKACiiigAooooAKKKKACiiigAooooAKKKKACsvxL/yCpfof5GtSo7mFJ4WjkGVYYoA+C/i3NHFrrFo1c7jjNcPokpe/dFdoklwCE7jPSvpj4wfCy5up5bqGPKHO11H+cV4G2kHw/qEn2wbCFIViOM0AaPifRwqaZDpany0yTn1r134X/Eaawiis7mcYi+TH0rxvSdZd7eC91iciNWKrtXHNc3/AGlL/bUk1rIwjaYkc9s0wP0X8O63b6xZrLC6lscgGtevFv2fLiW40otK2SAK9ppAFFFFABRRRQAUUUUAFFFFABRRRQAUUUUAFFFFABRRRQAUUUUAFFFFABRRRQAUUUUAFFFFAHFeKv8AWGucHQV0nigfva5w1SEJRRRSAWm0ZpD1oAWmtS016AI+9MbrS5+akakAygCkzThQAUhpaQ0AIaSlNJQA00hpTSGmAneg0hpGoA3fDPFwv1r1EdK8t8N/68fWvUh0FIYUUUUAFFFFABRRRQAUUUUAFFFFABRRRQAUUUUAFFFFABRRRQAUUUUAFFFFABRRRQAUUUUAFFFFABRRRQAUUUUAFFFFABRRRQAUUUUAFFFFABRRRQAUUUUAFFFFABRRRQAUUUUAFFFFABRRRQAUUUUAFFFFABRRRQAUUUUAFFFFABRRRQAUUUUAFFFFABRRRQAUUUUAFFFFABRRRQAUUUUAFFFFABRRRQAUUUUAFFFFABRRRQAUUUUAFFFFABRRRQAUUUUAFFFFABRRRQAUUUUAFFFFADJYklQpIoZT1BFfL3x68MWa6hIyxBInb5scV9SV8/ftCkrHI3oRQB8oeI4jp99JpqMxghcMuT6iqNmcSR/7wrZ8dpjXfM/56IjfpWLaf6yP/eFMD7R/Z2+XT9p7oDXt1fOn7NWrCRRE55EdfRYOQDSAKKKKACiiigAooooAKKKKACiiigAooooAKKKKACiiigAooooAKKKKACiiigAooooAKKKDQByHiVMuTXMMMV2evxZBNcnKnWmIrmkNKaQ0AIaiJ5qU1EetAEi9Kjk61IvSmOOaAIM80hNO280jCkBGTRmkI5pcUAOFLQKCaAEpppc0hoAZQaDSGmAhpDSmkagDc8Nf68fWvUIzujU+oBry3w24WcfWvTrU5toT/sCkMmooFFABRRRQAUUUUAFFFFABRRRQAUUUUAFFFFABRRRQAUUUUAFFFFABRRRQAUUUUAFFFFABRRRQAUUUUAFFFFABRRRQAUUUUAFFFFABRRRQAUUUUAFFFFABRRRQAUUUUAFFFFABRRRQAUUUUAFFFFABRRRQAUUUUAFFFFABRRRQAUUUUAFFFFABRRRQAUUUUAFFFFABRRRQAUUUUAFFFFABRRRQAUUUUAFFFFABRRRQAUUUUAFFFFABRRRQAUUUUAFFFFABRRRQAUUUUAFFFFABRRQelAFW+vI7KLfLXzD8e/FFvdiSOJx19a6342+KrywtJUSTaSD0PQelfJ2vazcalITIxOTzzQBU1C9lvpVe4YMVG1eO1MjhZ7eWRf8AlmAT+NV16jNdJ4LsBqWozW8oP2cxkv8AUA4pget/s237watGJQQrDaMV9gxHMa/Svm79n/wY9tcx3E4JVeRxX0kowoHpSAWiiigAooooAKKKKACiiigAooooAKKKKACiiigAooooAKKKKACiiigAooooAKKKKACiig9KAMLXB8hrk5PvH612mtgGH8K4yUYc/WmIqzDmoiOKsTDmoiOKAI8VGw5qamMKAEXpSOKctDCgCuw5qNqnPWoZBzSAiopCcGnCgBaa2akxSEUAMWnYpQKKAGGmmnmmmmAw0jU401qAJ7G4MEhfOAoya9c0uQS6baOOjQq35gV5VpNmt3MI2GQ3ymvW7WJYbaKJMbUQKMewoGSiiiikAUUUUAFFFFABRRRQAUUUUAFFFFABRRRQAUUUUAFFFFABRRRQAUUUUAFFFFABRRRQAUUUUAFFFFABRRRQAUUUUAFFFFABRRRQAUUUUAFFFFABRRRQAUUUUAFFFFABRRRQAUUUUAFFFFABRRRQAUUUUAFFFFABRRRQAUUUUAFFFFABRRRQAUUUUAFFFFABRRRQAUUUUAFFFFABRRRQAUUUUAFFFFABRRRQAUUUUAFFFFABRRRQAUUUUAFFFFABRRRQAUUUUAFFGaKACiiigAoPQ0UHoaAPnz4/6H5umeZ13qe1fIl7GYbqRCMYNfePxdh8zw9n/ZNfDPiMY1m4HoxoApL0r0v4HwrN4l8uVAyOVBB+teaJ0r0L4PXDw+KLcqcZdQfzoA+6PD1jb2Vkot4ljGOwxWsKoaOd1lGfar9ABRRRQAUUUUAFFFFACZozQxVfvED6mms6L1IoAfmjNRefH/eFHnx/3hQBLRUXnx/3h+dH2iP+8PzoAloqH7RF/fH50faYv74/OgCaioftMX98fnR9pi/vj86AJqKrS3kMa53g/jVR9YhXuKANSisj+24fUU3+3IfUUAbNFY39uQ+oo/tyH1FAGzRVG2v0nxhgKvA5oAKD0NFB6GgDmPH1zc2egXM9jGHuEjyqmvnPwj8SvEF34ge21WxD2wbG9VIK19O66M2/rwK4GTS7BblpRaxBz3AxTQmiZiHjDDvzUZOcVMQojwKrvw1AARUbUM9RF6QEopCaj8wetMaQUAOPWmPTTIKjeQUANfGaUYqB3GaBIB3oAsgil3CqRnx3qNrk+tAF9pBTDIKzWuPemG596ANMyCmtIKzfP96PP96ALzS1E03vVUyk00NlgM0Adl4LUPex55BYV6iAAMCvPfhzZb5GmP3UHX3NehUDCiiigAooooAKKKKACiiigAooooAKKKKACiiigAooooAKKKKACiiigAooooAKKKKACiiigAooooAKKKKACiiigAooooAKKKKACiiigAooooAKKKKACiiigAooooAKKKKACiiigAooooAKKKKACiiigAooooAKKKKACiiigAooooAKKKKACiiigAooooAKKKKACiiigAooooAKKKKACiiigAooooAKKKKACiiigAooooAKKKKACiiigAooooAKKKKACmsQOpH4nFDtheOp4rF1nUVtIyFOT3oA2DKijqfwBNBlAHHzfpXIxayXTINObVG9TQB1TTgfwkflUUt5EhwSOPeuRl1Nznk1nXN/IRwxpNgd5/adv60n9pwnoa84+1y/3qfFdSf3qLgeiHU4R3/WmnVYMda4B7mT+9Wfq2qtY2UlxIWKIMnaCaYFb41+J7W101LTd8+wt1r4x1yUT6pO46Fs133xc8S6hqurxvI8ZgClYygPI9815ttJO4k5NACpwa6TwTqH9n+IbSXOF8wZrmtvcE1PAzxzoy9QQRTA+/ND8SBtLt3GDvQH9KvnxH9K8p+HUk9z4WsmuSSwQAH1rpjGp9fzosB13/CSj2o/4SX6VyXlJ6VJ5KY6GiwrnUf8JN9KP+Em+lcv5SDtUe1fSiwXOrPifHpULeKT/kVzBVPQVG5X0osFzpn8VPjr+lZ914mmblSx+lY+V9BUZ60mguWpfE1zn+Omr4luf9uqbrntQiD0osFzTXXLlum6lOsXZ6BqqKBQTRYLlr+2Lz3pp1i89T+dViw9qjLjNFhXLi6vdk/e/Wpk1W6b+L9azMe9TRIeuaLBcvteXTdXqMyTt1lpoFLj3p2C4fvT1kNLtfvI1JSjFOwXFKuR99qWMMp5Yn8aBwKQZJosBv6PMwdQTXbQHKJ/u1wulD98n0ruoP8AUJ/u0mNEtB6UDoKKQzI12QCLb3Ari53+c4rofE02wsM1x8s2STmqQidpKryyVUluMd6ryXVIC3JKAOtVnnx3qo9xnvVZ5ie9SM0ftGO9Ma596zTKTUbSGgDRa5qM3XvWc0pqIyGi4Gi9x71Gbj3qjuY0oDGgRbacHvULy+9MCe9L5Y9aAGmX3o3570GIUzGOlAEm80olIqHJpDQFifzvenRTAuOaouam05DLcqtAWPcvBFt9n0CFyMGQ7/w6CuiHSo4IUghjhjACIoAAqSmMKKKKACiiigAooooAKKKKACiiigAooooAKKKKACiiigAooooAKKKKACiiigAooooAKKKKACiiigAooooAKKKKACiiigAooooAKKKKACiiigAooooAKKKKACiiigAooooAKKKKACiiigAooooAKKKKACiiigAooooAKKKKACiiigAooooAKKKKACiiigAooooAKKKKACiiigAooooAKKKKACiiigAooooAKKKKACiiigAooooAKKKKACiiigAooPSoZHCKSWPTrQBBqF0ttEzE9OPrXBateG5kZs8ZrR8Qaj50myMnaOK52VuKTAksJs7lq4HzWJZy7Lojsa185GakAkbmoW5pHembsimBE2cmiJsPSOeopI8A+9AyyQSKjmTehBqRTxSNjBpknAeMvAGm63a/JEYp1B2bDgE+9eOz/CXX0dsG3254JavpS4fANYssnnPgdBTA8ItvhBr0rcy2qD1LGtey+Cup+ajXGoW4AOTtBNe52iYiGOtWMYBqkrhcg0ezTTtOt7WM/LEoXPrV/NQr2p+6qSsIkB5p7nAqBWqO4mwKQDnmxUPm571VaTNNDGkBZaWmb81FnNIDigCXdSZNMzRmgB9LnFRljTGc0ATGTFJ5tVSzUq7jTAnL5pRzTFjYmrMcRxzSAWIZq7CnFNghq4kfHFAEZj9KTZU+3HFNIoAgIpMVPso2UwIwvFPVaftoApAa2kr+8X6V28H/AB7p/u1xmmcOK7OD/j3j/wB2kxolHSmSHaC3oKeOgqO4/wBUaQzgvFdzukY5rjpro811viSDLN9a427gKk4piKslzk9agkn/AM4pJUYdefrVeTI/gP4UgJTMcdaiaXnrUJZR1yPqKbvX+8KQy5FPtGMCkZ8nNVlZT/GPzp24dMigCXHvSZx2poIHdfzpd6/3l/OkA4U4Gow6/wB4Uodf7wpgSA09QT2FQCYHokh/4DTwzHpGfxoAlqButPxKewH1qJo2J5fH0oAaRTTTynvTCPSgCtOSzBRwK2PC8Jm1RVUZRR1rPhgLyEtzxxXWeFLcR3AAGPWmI9rooooGFFFFABRRRQAUUUUAFFFFABRRRQAUUUUAFFFFABRRRQAUUUUAFFFFABRRRQAUUUUAFFFFABRRRQAUUUUAFFFFABRRRQAUUUUAFFFFABRRRQAUUUUAFFFFABRRRQAUUUUAFFFFABRRRQAUUUUAFFFFABRRRQAUUUUAFFFFABRRRQAUUUUAFFFFABRRRQAUUUUAFFFFABRRRQAUUUUAFFFFABRRRQAUUUUAFFFFABRRRQAUUUUAFFFMLgHHJNAD6YzBByQB71Vub1IvvkD2B5rn7/WQNwjOKAN661BIh1AHv1Nc5qurtIGWM8Vj3F7JKTljVRmJPNADZnZnJNQPT3PNMapYjOL7LkGtuF9yA+tYF0cTVraVKJI8GpQyScYqvv2jmr0y5FZ1wMGqAfvBFMU5NVTLsfnpUiSgnigZfjamTyADrTUJK5qpcsUXJNMkralNwVB61Xso9zZPaqs0plnx71qWqbEA71SEy4gwKcTxTA4FG+rQDgaUGmBqUGgBzvtFZ9zLk1Lcy4FZ7vuNAEgk9aerZquKcDikBPvxSb+aYOaMUgJd1GaaoJqQRk0wEzRjNSLEalWGgCJYdx6VZjt6njgNWFiNICBIvarCw+1TRR1MExQBHFHip9uBQOBSFqAGNimjHelam4zTAKKKKAEzzT4vvUwDJqeBPmpAaVicGuyt/wDj3j/3a45DsBrsbb/j2i/3aTGiVTQRmjtSikM4vxOoEhxXI3UIYZrrfExxMa51gD9KZJz89tz0qo9uQOK6OWAHpVWS3wOlAzAZHHcmoyp7op+orZktwe1QNbVNgMoqv/PJP++aAF7Rp+VXZbb0FEdt6iiwFLap/wCWa/lSiNf+ea/lV2W22CoNhosBGMDooFKDTwlOCCnYBBTuacqikcY6UARuahNSdTUiRZ6ikBVkTC7gpJp8EO8biu2ryxccVKiYHNMCFIwprb0Ftt2KzCtaGjcXS1QHtFFFFSMKKKKACiiigAooooAKKKKACiiigAooooAKKKKACiiigAooooAKKKKACiiigAooooAKKKKACiiigAooooAKKKKACiiigAooooAKKKKACiiigAooooAKKKKACiiigAooooAKKKKACiiigAooooAKKKKACiiigAooooAKKKKACiiigAooooAKKKKACiiigAooooAKKKKACiiigAooooAKKKKACiiigAooooAKKKKACiiigAooprsQuVxn3oASWQIPesDU9WEIKxnLdz607Xr0wQlVY5PU+tcdNK0jEk0CuWbvUJJ2OScVSZixyaSigApaSlpAQuKgkbaCasyDiqN422OpYGRelnmylbnh2F/mLcCqNrbGVx6k100EKwQgDr3qVHqMdcKqR1h3RG41bv7n5itZLybiasCOY88d6fZRFn46U0IXYe9bel2nP+yOtAhPK2xgfnWDrMu3Kr9BXUagBFCzDrXKPEbiYueR0FWgZS0+Bmfe3atmNGAz61Pa2exQAOvWrn2ft6VSEZ+w5o2Gr5h284qvMwXtTArkkUxnNJg0FGPY0AVZjmoQParv2Z2PSpI7RvSgCiqE9qlWLNXPsxHanJbknvQBXjtwalFutW47c+hqwluT/DQIoLbgdqkWH0FaSW/tUy23tQBmJBntU6W9aAt8dqeIsdqAuVEhxUyoB2qwI/anCI+lAyvx6UmasGKm+WPegCDNNNT+V9aPJ+tKwrlfB9adtqwIfrThDRYLlQrxSbM1dMVAiosFytHHVyzj+anJFVu2jwc0WC5Fcrtj+prr7Tm1iH+yK4zWZfKhU+9dNoFz9ps0b2qWUjTooopDON8TpmZq5zGK6zxDGWc1zrR+1MllcpTGizVgrzRtoGUmgHpULWw9K0SKQgelAGU1t7VA8GD0rZZPSoXiz2oAyWhYjmoWtz6fpW2YhjpTDEPSkBh/ZjnpR9n4rYaIelMMI9KAMkQkUhiPpWq0Q9KjMYHamBnLB7VMseO1WtoFNagCEikxUhFNxQA2r2k/8fS1SIq5pX/H0tAHtFFFFIYUUUUAFFFFABRRRQAUUUUAFFFFABRRRQAUUUUAFFFFABRRRQAUUUUAFFFFABRRRQAUUUUAFFFFABRRRQAUUUUAFFFFABRRRQAUUUUAFFFFABRRRQAUUUUAFFFFABRRRQAUUUUAFFFFABRRRQAUUUUAFFFFABRRRQAUUUUAFFFFABRRRQAUUUUAFFFFABRRRQAUUUUAFFFFABRRRQAUUUUAFFFFABRRRQAUUUUAFFFFAAelRTfc/KpaY67lIzg+tAHH+I1fr2zXO967rUoFkRlkAz0NclfWLwMSoJT1psllKkpTSUhi04c0wVIvSkBFckBemPasp8zS4FbUkEk0eFHXvUlnp6W/L8uaLARaZaeUodhyanvZQiHmrMpCrxxWNfOXJAp2EZ11KWemKC3QVYW2zy1WY4gq9KVguR2tuS4J/CumtYPKgC9zyaztNty8oOPlXk1p3cvlRMSe3FNIZiay5chEPJOBTLOy5C44WliQzXZlbovA+tbNvEFXPc1SERR2oA6VIbYVc24FBXNUIovbA1XeyB7VqbaTHNAGUNOQ9qf/AGcorUCig+mKAMk2YHalFp7Vp7c9qNntQBmCyyeRU0dkB1FX1X6U7FAFVbVfSniFV7VYxikP0oAiEaU4RinACloAYY6TbUlLigCMLS7RTqMZoGNKik8sU/aaMUAR+VR5VTbfpRilcREI6NlS7aTbTuAzZSlKcBg07GaVwGqtToMUwCpAPlouBgeLpTHAgBrb8BXavYiMt8wrmfGj4RB/smo/hvfjzVVzxnFJlI9YoPSmRtnHOQehp9SMxtdiHlZxzXKyD5q63XziAZrjjJiTB+6TTJY8oD1phi9KmGCODS4oAqmPFN24q0RUbD2oC5XIqJhzVhlqJh6igLkbVG9TN2qJhxQMiNRuKlNMakBGajY1K1RsKYEZprU80xhQAwimkVIaQ0ARMMVY0xsXSn3qu9LbvskU+9AHuNFcpoPiOAQxw30oQkfK59fQmumhnSVQ0bqwPcGkMlooooAKKKKACiiigAooooAKKKKACiiigAooooAKKKKACiiigAooooAKKKKACiiigAooooAKKKKACiiigAooooAKKKKACiiigAooooAKKKKACiiigAooooAKKKKACiiigAooooAKKKKACiiigAooooAKKKKACiiigAooooAKKKKACiiigAooooAKKKKACiiigAooooAKKKKACiiigAooooAKKKKACiiigAooooAKKKKACg9KKKAKGpR7lVs8jrXNapLtjKetdHqMwWJie1cXeymWYk9O1NCZnSEKTmoi46niob+5WFjmmWEcl225uEpAXYd0hGOlaEUIXBPWiGIRjgVLj1oEO7cCkz7UYNKgycUwIZVJqm0fPFacigDGKrsgFAikYvalERPargjGMmp7WAM2TigCazi8mAeprN1WfPC9egrWunEcZ+mBWEiefc7v4U/nTGWrGHG1T+NaqKMYqvaRcbqubcDNACYpKWirENxRinYoxSAbijFOxRiiwhuKWlxRimAlFLRQAZFJkUm4+lGT/doGLilxxQKUUAJiinUlAhMUuKdRQA3FLinUUihuKMU6ipAbilApwFKBTAZilp2KKAG0ZoooA4vxrNuuCoPAXFeaah4il0GwkuI32FZBgj613/iqXzbqYrjGcYrxb4lk/wDCM3oBxtIPH1pDR7H4S+Mdu9pGl26s/vXTRfFrSnlVABljgfNXwbDqNzFjZIcDtmrVtrd8tzG3nHhh3pDPvbWNfS6hDIeCMisuGYSqDnmuI0K6kn022Z2JzGv8q6CymMZGTxQSdBE5X6VZVsiqMTB1BFTI236UAWDUZpd2aSgYx+lV3PFWH6VXccUAR016fTGNICImonPNSkUxhQA3tULdal7VE/WmA001ulOpDQAw009DT8cUhFAEDUwcGnvUZoA5T4gaxLpsNm6SbcuR19hVHQPiNd2rriZl90asL4+Z/sOzx2k/pXhkVzIn+rkZfzoA+wrT4q3D8STufqxrsNB+IUdyFEsin/er4etdcv7dgVm3L6NXSaV44aJlWUtGf72eKQz7707VrW+iDROMkdM1oV8keDfiHJC0f7/K+oNfRPg7xdbaxbIkkiiXAwc9aAOuoozRQAUUUUAFFFFABRRRQAUUUUAFFFFABRRRQAUUUUAFFFFABRRRQAUUUUAFFFFABRRRQAUUUUAFFFFABRRRQAUUUUAFFFFABRRRQAUUUUAFFFFABRRRQAUUUUAFFFFABRRRQAUUUUAFFFFABRRRQAUUUUAFFFFABRRRQAUUUUAFFFFABRRRQAUUUUAFFFFABRRRQAUUUUAFFFFABRRRQAUUUUAFFFFABUUrgDkZzkcdqfI2FyOp4rM1O5EMRHU+1AGRrt7k7EP5VgE5PNWZ98shbDHPtTPJkx/q2/KmI5/U4N10pA4NbOnwCOBQAc1Fe2kzyxlY2rTtYJBGAUPFCAYq4HFKB61P5D9lpTA/pTEV8elSwLznFPFu/pUkUbJ1oAa6Z7Uzyfarm3jkrTSB1JX86AKphz2qzEgRelISh/iX86Hli2Y3r+dAGbqtwPuj6D61HZ2+xVUHk8mpXtYnkEj3C7c5qxG8EeT5y0AWY0wKdioVvIMf61aabyDP+tFAE/40Zqsb63H/AC1ph1G3H/LU/lQLlLnPtRz7VS/tK3/vn8qP7St/7x/KgOUu5HpRxWe2qW46bjTDq0I6I5p8w7Gnj3pfxrJ/tmHsjU062naNqOYLGxn6UnPtWMdbXtFTTrp7QijmCxuYxSHHrWEddftGoph12Tsqj8KOYdjoBj1pa5061Mf7v5U06xP6ijmFY6UCkI9q5savP/eoOrz/AN6jmCx0uD6GjBrmTq1wf+WlRtqVwf8Aloam4cp1fNJ+I/OuRN/cHrK1RteTHrI350XHynYlh/eH50hcf3h+dcabmT/no350huZP+ejfnRcOU7HzVHVh+dL9ojHV1/OuLNwx/jb86QzH1P50XDlO1N3F3dfzphu4R1lWuMMx9f1pvnH+9RcdjszewAf61aim1C3Cf6yuREpxyaQSZNFxWM/Vmy0rHvk15T4+j83Rb9f9nNeq6j84bivOdbt1uhcW8vRwVJp3A+f1sibE3ImiwOqFsN+VU43+cH3FbvirQ5tE1Ca3kDGHd8j9mFZ2naTfX8oW0t5JPcDikM+pvB0nmaFYN1zEv8q6mI8CuN8Dxvb6FZwS8SJGFI9xXYQ0EmrYzlWCt93tWqDuHHSueBxWpYXGQFagRd5FKH5px5FRMMGgokLAioH6UpOBUbNkUARscVHmpGGajxSAKY3Wn01qAIzUTCpsUwjmmBGRSEVJigigCHFNIqXGCRTGoAgcVAwq04qBhzQBheJfDcHiSGK1uY2dd3G3qDTdO+AdpPBu+UH/AGhXYaUAlzGw65r1qyYfZIyuOgoA+dr74AJFEXj8s49K8/1z4MXkbu0MDYHdRX2jn6U0op6op+opDPz6vPCmr6BOWSNyg6riuu8GeLZ9OkTLsMHDKeor671fwzpmpLIbi0jLHvivN/EXwz0+1V7i3sYgepIWgR1fw/8AGMGsWccUsg8zHBJ6e1d0rZ4P/wCuvmzTNTTw7d4CxRqp7CvVPDHj6xvniikkXDcA+lAz0GimxurqGUgqehFOoAKKKKACiiigAooooAKKKKACiiigAooooAKKKKACiiigAooooAKKKKACiiigAooooAKKKKACiiigAooooAKKKKACiiigAooooAKKKKACiiigAooooAKKKKACiiigAooooAKKKKACiiigAooooAKKKKACiiigAooooAKKKKACiiigAooooAKKKKACiiigAooooAKKKKACiiigAooooAKKKKAKVzP5SMT0XpXLXusv5jBQvB9K6DWuY2wOw/rXAXbfv2+tAjSbV5eyp+VMOrTdiorI3Um73ouM1Tqk5/iFMbUZz/HWbuPrTdx9aLhY0DqE5/5aGmG9mP8Ay0b86o5PrSfnRcLFw3kx6yN+dNNzIf4z+dVeaOfai4WLDXD93P51H57f3jUR/Cm596VxtExmPrTPNPqahZveomf3ouIs+cfU0nnH1qrv96TfTAt+bR5v0qnvpPM9qALfne9J5vvVTzPagOTQBc833pPN+tVdxo3GgC15p96TzTVXc1JuNAFrzDSeYarZNHNAFnzKTzKr7jSZNAFjzB60m+oMmjJp2Am8wUeYKhwaQ0DJ/NFHm1BSZoAseYKTzBUOaTNFgJ/Mo8yoM0ZNFgJfM96PMqLmjmiwiXzKPM96jyaMmiwD/MpN9Mz7Uc+lFgHh6fGaiGfSpI85osBBe/cb6V57fD/SLge1eh333D9K8+vx/ps49qQHM315FcoqXkUUqjoGGcVFBerCu23CRqOm0UahpgcqyqcmkttLWBDPcKxjXqBQI9C8KTGSxhfPUZrroelefeBdVt76IxxYQxnGz2r0GD7opiLGeKlhYg8UxV4pyjBpAa9ncbgFfr2qy65rHjOK0ba43Da559aYD2FQuKsPjmoXFAyIGlyO9KRTSuaQDWHpUZqQgik69aAGDrTGHWpcCmsKYEOKMU7FGKAI8c0xxUuKawoArsKgbrVh6o3txHbQtLM4RFGSTQBBqGpiweEkkZYCt/RvGzBlUMcD3rxXxF4hOo6kphyLeJvl9/eu000o9lDJGBhxmgD3bRfEUF6n7xxuPSt2OVXAwQfpXgNnqEto4KMcDtXVaV4veMork/Q0Bc9Y7UyVEljZJAGQ8EGsrQ9WGpR5AGK1+1IZ5P8AELwPDIkk9qnytzx2NeN6VDNpevrE7MADx7V9b3USywFHAKtwQa+X/GZWz8YlSMbHINIR9L6I2/R7JvWFT+gq/WT4XkWXw7pjxtuzbp/6CK1qYwooooAKKKKACiiigAooooAKKKKACiiigAooooAKKKKACiiigAooooAKKKKACiiigAooooAKKKKACiiigAooooAKKKKACiiigAooooAKKKKACiiigAooooAKKKKACiiigAooooAKKKKACiiigAooooAKKKKACiiigAooooAKKKKACiiigAooooAKKKKACiiigAooooAKKKKACiiigAooooAoasP9Gf8A3a81vD/pD16Xq5AtG9TXmN7/AMfMn1oAhzRmmk80ZpASZozTc0maAFzRSZpKBi0lJRQApphpaQ0WGxjioHNWG6VWlNAmNBpKTNGaokXNJmiigAzS5pKWgBc0tNpRQAUUUUAJRRRQAUUUUALRRRQAm6jNNpaBhSZpaKADNJS0UAJmjNFHNAB+NH40UYoATNGaXFGKAFzSZpaOKBCA+1SRnnpTRipI8ZoAjvvu/hXnd/8A8hCYe1ei6gPlP+7XnOo/8hSQetICkImc9M1PHvgGXXdF3zUgynNU765J+RWwO9IDftvDtpLsvtIlFrctyyj7rV01jJeQqFu4jx1deQa8c/tjUdCvAUdpLduQD0rs9B+JVo2xL3Mbf7XSi4j0NJgy8E/lSxyvu+7kVSsNc03UUBjkjOf7pxV9Ikc5hlAHoeaBliNgT3qwn1qqIph0AYe1I1wIuJBt+tAGxC+5cHqKkK8VkxXitjafpV+G7WQY796YDyhppQ1Ksit0NOyKAK2w0m2rDH2qJjQBCVppFPklVB8xA+tZ9xqVrCCZZ40A7lhQBZptc7e+MdJtc7rpD9DmsW7+I2nR58lHl/DFMDu81VubqKBS0rqgHcnFeVan8RLyfItUSAevU1yV/rN7euTcXMsgPYtxQB6lrvjiystyWp8+T26V5vrfiK91WQ/aJCEzwg6CsUuSasWdlPdShIoy7McAAUAS2EbzzqqZZmOABXsVlYSWOn20cqnKoM49areBvBB07Ze6jt87GY48fd9zXa3Nn5q5xQBzqwqy7qUW/PXmp5ka3clvu0iTJ1Y80xHdeC7tLUAOeCMGu1k1SzjXMkyKPUmvHLa9MJG1iKreIb+SfTJl3Hpng0muo12PXbzxLpkVq8guoyoPXcMV8w/EjU4bzxNLNbMGUnOQc1zviTVU/sq6kju3Eka5AL965Dw9dz3VsJJpGZixOSazjNSWhUo2Pr34G64L3QG0+Rsy23zp/unr+v8AOvTxyK+VPhTr8mk6tbTFsIJArj+8rcEfrmvqiFw8YZTlSMg+1WIfRRRQAUUUUAFFFFABRRRQAUUUUAFFFFABRRRQAUUUUAFFFFABRRRQAUUUUAFFFFABRRRQAUUUUAFFFFABRRRQAUUUUAFFFFABRRRQAUUUUAFFFFABRRRQAUUUUAFFFFABRRRQAUUUUAFFFFABRRRQAUUUUAFFFFABRRRQAUUUUAFFFFABRRRQAUUUUAFFFFABRRRQAUUUUAFFFFABRRRQBQ1cA2jZ6jp+VeY3v/Hy/wBa7vxFfxxp5W7DMDgetcDctumY+9AEVFFFIAooooAKXNNpKBjjSUmaaSaAHmm0hNJmmAGq01T7qgmoQhlFFFMQUUUUAFFFFABS0lLQAUUUUAFFFFABRRRQAUUUUAFJS0lABRRRQAtIaM0UAFFFFABRRRQAUUUh6UALSCijvQAq1JGfmqMdacvWgAvz8n1Fea6wdmsgetel3pzGK8t8TP5evw54DUmAmoTiJfcmqcCl2JrPvrv7TqpjU/KnFbllF8o4qQHrp0d9H5MqhlauZ1zwVeWZZ4FMkXp3Fd9p6KkiH3rv4LKK5tFyvJFAHzDE93p8uIZJIZAfpXQ6b421qywPN8xR/er1HxFoFkJCWt45PUkVyN14PtruQfZSYj6dRVAWdI+KLqQL2Fh6lTXX2HjjTNQABmjJPZjg15zN4AvlY+UyOPris258HatAci2kPuvNFgPaVewuxiN9me6NUU2g3UvOmazJG391yCK8ZhtNesG/di6Qjtg1t6d4q16wI8+NpQP7y4NFgO2vtO8ZWeTBcLcqO64ya5zUPEfiuwJW7E0YHfy+K29K+Ij4Au7WZB3IGa6ix8R6fqC4Zo2z/C68/rRsB49qHxB1mAp5l0+HOOF6VFJ421d+t7NXsl74e8P6p889lDvP8ScGuc1H4YaVOWayungY9A3IoTA8xufE2pXC4lupWHu1UJb6V/vOx+prt9Q+Gep2+WtfLuU7YODWVb+BtYmmKLZSKffpTA5RpSx70nJr0mz+FmrzY8xYox7tXSab8Iol2te3hB7qgoA8VSKRz8qk1o2Wi3t2wWGF3J/ujNfQmm/D/QrDYfs/nOO7mt6XTba3snS3hjjAH8K07AeK6J8N55dr3syovdV5NeqeHfC+naPAv2WBWkHWRuSTUNpJtJB9K1rC9VJUib+Pp9aALLQDK4UU54sLjFX9oNQzdcUCOc1G2EiOMVzTptk2ntXa3gUBhiuauYh9o6daAKoBI4plxEWTB5FaUVtUj2wK0AfJPj3z7DxFf2jcIGyPcGr/AIYbbZQj2rpPj9oph1myvolwtwuxyB3Fc/osYjUJ6Co5Sr6HUQaibIQODjdKor7D+HmotqfhCwuHOXClCfYHj9MV8Ma1dbLqxg9Tu/Wvsb4GXXneEBFnPlsP1A/wpgejiigdKKACiiigAooooAKKKKACiiigAooooAKKKKACiiigAooooAKKKKACiiigAooooAKKKKACiiigAooooAKKKKACiiigAooooAKKKKACiiigAooooAKKKKACiiigAooooAKKKKACiiigAooooAKKKKACiiigAooooAKKKKACiiigAooooAKKKKACiiigAooooAKKKKACiiigAooooAKq6hci3hPPzEVYJCjNcl4gvyWYZ+lAHH+LtUKeIdPQknzA6j61ETk5rB8czGPVdAnf+K42/mK2BKDQBLSUmeKSkAuaTNITTSaAH5opuaM0ALmkJoNJmgBN1IDxikJpKAFzzUU1Sd6il6U0A2im0UxDqKbRQA6iiigApaSlzQAUUlFAC0UlFAC0UUUAFFFFABSUtJQAUUUUAFFFFABSZoNJQAuaM0lFAC5ozSUUAGc0vemCndxQAvenjrTO9OFAC3Izb5ryjx64h1KGTptNetXHNvXj/wAUAVKEdck0mBhaEhmuJJW5LtXa2SAJ71xnhds26H2zXa2PJ/CpA1LVNuPWu3sL1YNLDscMBgVxkPb1qPXtUa1sginoKANe6uluZmXdkntVrQLAT3zDGOK83tL67eYTbsp1xXrPg2NzapORhpBnmqAsXGjlWyoqsbeaE9DiuvUEjkU2S1RxyBTA5iKcA/vIwfqKuRNaOMPbwn6qKvT6YvZR+VUpdPZfufyoAuWosEz/AKNb89R5YqUQWDPn7JBn2QVRtNPmlmWMHG4gZqfWbV9OvGhRi4UAk0AbENvZlNqwRj6Cqtzo1tKf3ZaNvY8Vjxag0bc7j9avQ6puIzigBsug3KcwXIb2YVF5F/bD97CSPVea1oNRU96trdRt/F+tAHOf2iYj+8V1PuMVYh1VGx0/OttkimHzqjA+tU59KsnyfK2n1XigBIbqNyDx+dWJJoWGM1lvoqr/AKid1/3uaryWN9F9xlk/HFAGFqMzWFxIjDjPBqvaaqj3cang9j6Vq3s8sUZ+2wZQdScVRSXTpX3CGMMehXrTA7a0ulmtQ3GajnlGQaxLO9gjXCsQKsPdJIPlekIS7mzkiud1VtqIT/fGMVrTIXblsiqU1m1zLErcIh3GmBegj4qcQ59KlhRexFWUQe1AHmnxh0Jb7wrLNtzJbN5imvDNN+/mvq7xDYre6XcwMMh0Ir5cWyeDUbi1bhoS24/SkM5HW74ya4GU8R4FfYP7Ml/9r0i9TOdiRn/0KvjC2jNzqjDqWkr7V/Zn0v7H4cu7gjBkKJ+AB/xpDPaBRRRQAUUUUAFFFFABRRRQAUUUUAFFFFABRRRQAUUUUAFFFFABRRRQAUUUUAFFFFABRRRQAUUUUAFFFFABRRRQAUUUUAFFFFABRRRQAUUUUAFFFFABRRRQAUUUUAFFFFABRRRQAUUUUAFFFFABRRRQAUUUUAFFFFABRRRQAUUUUAFFFFABRRRQAUUUUAFFFFABRRRQAUUUUAFB6UVXvbhYIWZjigDN8QapFY2xaSRUXGSSelcQbtdRbzU3GPPXHWrfiC5F7MF2iVieh5AqLlEwBgegqVqB5R8f5JYPDlpNasySxXAKsDyOK8i0b4pa3p5C3O26iHZ+DXs/xmgN3oSR4z+8Br541DSGic/LWkYiuex6B8XNIvSkd7vtJD/e+7mu+0/W7DUFDWl1HKD/AHWr5KlsGH8NOtpr6yffa3EsRH91iKbgFz7EVwejUE5r5v0H4oa9ppVLordxDjD8HH1r0HQ/ixpd6VS/V7SQ9yMipcbDPTwKfWRput2OoKGtLmOUH+63P5Vqh6QBuptSYBFN2HtSAaaQ9acRTT1pgIO9Mk6GnjvUcnQ0IBgoNKKQimISinU2gBRQKSloAWg0UtACUYpaKAEpDSmigAooooAKKKKAG0UUUDCiiigAooooASilooASiiigAooooAWiiigQop460wU8UAPl+aA15h8QbU3EsYHqa9QYfuDXE+JYg1zGD6mkwPN9NhbT5/Jkyoz8p7fSuw02bIJPB96S906OaLaUAI71ShaayOLjLx5wHHb61IHU2zZBPpzXEeKdX3SvErAsfu10kcv2m3IimADccVlP4WhvcK8hWYdHWhAc1pGk+I7xoLpJDFbFgpHbrX0tocYtrOGIjJVAK8u0LwtqdlPaj7f5tmj7zHXpMEpAAyaoDfSTipBIKx0mOOtTpMfWmBqbge9GFPXFZouPeni596ANS1McdwjkfdOaTXvKu7jzY88jBrP+0bgDSNNngdKAM+ayHpVVrQqeMitRpPem7weopAU0gPZjTiJU6GrSlQelPwrDpQBTW9ljPOasR6qe+ahniHpVNo8UAbceoK/Uinm4U9DXPDKnineaw7mgC3rG25tZI3UMp6qe9eLahqUpu5FsrS5jKsRsjBI4Neum4J61VZYQMhFX1OBQBheEIbw2fma0uN33Vz8wHvW1LHEfuOyD61A0qhtsSs7f7I4q3a6PPdkG6bZH12g9aYEFpG88xSB2bHVj0q+dLvgMq4Ppmti0tYbZdsahcdKseaoUncKCTmXs9Sj9fzqtJLqcf/LFj9K6aW7jUct+FUXuix/doTQHMc/LrN7br+/icL9K5HVdP0XUmuGKtb3M4KtJH79a769sZ75GV2Khq4DxdoKaKsFwnm+Vuw+DzSk+VXLjueeH4X3dpqaT6Zdx3UQbO1uGr68+EmnPpvg22SZNkrksy+nb+hrzf4feAb/VDDqM7S2VgeVEhy8n0HpXutpbR2trHBCMRoAB3pRbauxyJx0ooopiCiiigAooooAKKKKACiiigAooooAKKKKACiiigAooooAKKKKACiiigAooooAKKKKACiiigAooooAKKKKACiiigAooooAKKKKACiiigAooooAKKKKACiiigAooooAKKKKACiiigAooooAKKKKACiiigAooooAKKKKACiiigAooooAKKKKACiiigAooooAKKKKACiiigBHYKpJNc/rt5GoKsQVAxitDUrry4zg/L/OuNuZGu7k8/IDz9fSlfoA0beWVMVBOSw4FWWGRycVEw4qkrEmBr+lx6lYSQzqCrDr6GvH9b8LXFjK3mxGWD+GRRk49692lXcjA1myxqykMoI9CKpOwWPniTRoZc7QM+9ZN9oDrnC8fSvoS98L6Ze5LQCNvVOKwL/wLGc/Z7yRR6MM1pcg8Cm0iVeqVTl0916g17TeeA9QAPkzQuPcYrBvPA2sKTiOJh6hqAPNIDdWLeZbTSxMO6sRXWaD8Stc03atywuox/f61ZvPBWsJEWMUY+rVzc3hrUwxH7rg/3qh2KTZ61onxW028Kpeo9q54yeRXdaXrNpqKB7S5ilB/utXzUvha/P3pI1rX0nQ7uykEiX8kLDvHUOxR9Ibs0u3NeV6T4l1KxjEc0xukHH7wc11mm+L7O4KrcboX9T0pDOn2H2qKQY602C9gmH7qWNvoae7fhQBEKU0Cg0xBTTTqaaAClpBS0AFLSUCgBaTNKaSgAopKWgAooooAKKKKAG0UUUDCiiigAopKKAFooooASiiigAooooAWiiigQopwpopwoAnXmNh7VyfiBP8AS4CK62PofpXOazHuu4/akwKCW4kXkCmS2SOMFR+VaEKcZFSPF8ucUhHK3Gk4YtBuif8A2abCdQt2USxCVB/EvBrpigJIxSpDmQYp2C5c0fUUeJRIHjb/AGhW5DIjY2uG/Go9OhRogCin8KttpduxyEKt/snFOwXHB/l46UGQY4IzTTp5UfLNKo/Oo3t7lR+6lVv95aLDJfMPrUkchNY0jaun3YbZ/oxFJ9o1Rfv2an/degDdkn8sc9KQXOVyKwZL6+YYewkx/vCq8mo3yjbHYS7fXIoA6TzT60ol965wahff9A+X86X7XqTf6uwYN7nigDoxL7inCc+tYER1hzk20I+r1eht9Sk+/wCRH9MmgDSaXdUZqJdLunxuu2H+6mK0bfRYmT9/LJJ9WxRYDIubiCH/AFkir+NZ8moK5xbRSTn/AGVxXWrotjEciBCfUjNWktYVGFQD8MUWA4OKHVLn7kK24/22zV+30tiB9qZ5n9MYX8q7ARRj+EUbU/uinYDAggMf+rgUfhVjZdN0AArZVFXsKViB6flRYkxjb3DdWxTPsMjcs5rZyD2o4HagZkR6eq9QasLbqvSrrUgTPUUARRwiqeu6NHqdk0OOeoPoa2I04q9YRq1xEGHy7gD+dAHSWdslnZw20QASNQoxVgDAwKQcnNONSUFFFFABRRRQAUUUUAFFFFABRRRQAUUUUAFFFFABRRRQAUUUUAFFFFABRRRQAUUUUAFFFFABRRRQAUUUUAFFFFABRRRQAUUUUAFFFFABRRRQAUUUUAFFFFABRRRQAUUUUAFFFFABRRRQAUUUUAFFFFABRRRQAUUUUAFFFFABRRRQAUUUUAFFFFABRRRQAUUUUAFFFFAAaq3c6RIxY4x1/wAKsu21SfSuY1u9LFo87cdTSbsBn6peyTtsjPLcADtUCxeVCFAz3NFlHgGST754HtU7jBwDRFdWJlcj2qN+lSPTCOKtElaXABqg4BJq9MM5qr5dMZDtqGRc1aKYphWgVikUGzFVpIBI1aPljJqvdsIYS9NMDkvE5CRCFTyetcqbJQMetbd/Ibm6d26dqreXgcipbGjM+xR+1H2KOrxX2pp47VFxnP6m/kTxQQL87cn2FKYjtJI5qxHEZZ3uHX5m4X2FTGLAHFAFS3mmgbMTuh9jXYeD9auby9azuWDgJuBI5rlZE2qSe1Xvh/Ju8SfVSKBnpK0NUgWkK0xDKaRTyKTFMBoFGKdijBoAbilpcGjbQAhpDTippNtADc0uaXbRigBuaWl20YoAbS4pdtOxQMYRSYp5FIRQAyin7aNtADM0lP20m3mgBMUYqQAUuKAIqMVJtpdtFwIsUVLto20XAjo/CpCPakoENFKBSinAUASQjj8Kw9Q5vPoK6CMcfhWBd83kvsKAHW6jbUki/u6bAPlFTOuUoJKEY3E1etbYllNLaW2cmtW1iAIFMCxaRbAK0VGQKiRQFp6NigY7BprLmpMg04LQBT8rnpTxFVvy89qekR9KAKn2Y4pBakdq1VCjtSsAegpgZqQ4PSnCEE8ir+zHWgrQBTS3A7VMsajtUv4UtADFUDtUisB2ptJzQA/cWoBxSDigtQApNMNG6mMfSgCTJozUO4mnKTSAfmkJopQKAA1IlM704dKYE8JxirkJ+f09D71nxntVuNuntSA6yBw8KNjbuUHB7e1PHQVS0uYS24B+8nH+FXhUlBRRRQAUUZFFABRRRkUAFFFFABRTJJUj++cU5GDqGU5B70ALRRRQAUUUUAFFFFABRRRQAUUUUAFFFFABRRRQAUUUUAFFFFABRRRQAUUUUAFFFFABRRRQAUUUUAFFFFABRRRQAUUUUAFFFFABRRRQAUUUUAFFFFABRRRQAUUUUAFFFFABRRRQAUUUUAFFFFABRRRQAUUUUAFFFFABRRRQAUUUyWRY156+lAFDWLo28B2nJIzXIF3u5iXAMYOSepJ9K1NauDKzY6VQjRYVCr0FTa7HexKTxxTCeaCajJqyRH60x+FqSopTxTRJVbJao2GKn20hTNNDKj9KzfMnj3+ZLCFySOOgrSntJGmR1n2qP4ccGs290X7RJukZW3EbuO3pQBAb5SR/pSdey1m+ILklfJXn1x6VqvpnkQBN25FO4/L1NZ89rJNKXYHJoYHM+U2T8tNMLeldA1iwJ4NRtZnHSpYznGhJzge1Ub9JAqxoPmc4/DvXVPZ+1ZxsnmndwPkB2rUjMfyQFFJ5fSthtOkqCSxkXtSEc3qjbVKj0qbwMxj8QW7DqxIp17YzPKSVq14XspINctGK8B6Yz1Ix800x1eMRz0ppiPpTEZc7LEpLkBR1JoiKuMoQR7Vk+PNNv73StmmuVlDbiM4yKXwPaXttpax6hzLmmBs7TQENXfJpyw+1ICj5Zo8s1oeR7UhhoAo7D6VXuJobeSNJ5URpDhAT1rX8k+n6VTvdJtLuaGW6i3vEcpz0NAEOwijafSr3kgn7tOEOO1AGfsPpR5Z9K0PI9jS+T7GgDP8ALPpSiI+laHle1Hle1AznoNRhn1OayRZPMiGS23g1oeXWgYY1yRGgY9WHU0nlL7fnQBQ8ujy6u7F/vD86Ni/3h+dO4FLy6Xy6u+VSiKi4GZdK6W8jxLvdVJC+tUtClvLuz82+tjBLuI256j1rokiHofyp7Rk9j+VFwM7yj6ClEZ9K0PJb+4/5Unkt/cf8qAKHlH0/Sjym9K0BC39x/wAqcIW/uP8AlQBmmE+lcP8AEe61ayggOkQs6nO8jqK9NNq56IfxNVriwMqlWhBB65IpAcx4WnuLvR7eS8GJivzZ9a21iqxBp5iUKiAD61ZS1lPZaYFWOPANc3Ip8+YkcFq7LyDHu346E1hwWEk8jFRwSTQIoWyFnACmtmGxyoLDj0rTsdKWMDcMmtRLPA4HFBJgQ2gQdKXZtPFbBs8ZqM2gqhlBc4qRUJq2LcDtThGBQAyGL1FWViHHFIMCpRJxSAUJUiLioxJzTxIKAHED0pcD0pu8UocYoAGxiozih3zUeTmmA4CnYzTF5qQLQAmyk20+nAUgIyvFRMtWQvNBSgCkwPahVJ61cEQzTxGB0pgVFjz2p/lH0q6FA7U4KtICiIzR5belXygpuz2oApBOaGGDVlkwTURGaAI+lTRNzUZXJp6jFMC9Z3rW0gJJ2+nY1qJr2mtEXW7TAHK9xXNzgmJiK+YfiL4k1PQ/F97aI7rGW3L+PNSxo+wB4i04j5Jt30x/U0yXxHZR8ma32f7UpB/LH9a+HT4+1Uf8tHx7Gq83j3UXyDPJ/wB9Uhn2vL470pH2CRQf9/j+VXrbxPZzpuE9qAf+mpz/AOg18GSeK9RY7vPl2/Wrdr44v4F+SZj+NAH3i3iCwU/LMrfQj+pFH/CQafjJmUfiP6GvhiP4gXp4M8yt6Yofx3qYOVuJSPegD7oj1/TpP+XlB9aJPEGmx9LlG+lfCR+IerBtvmyGmP8AEfVF+9LKPrQB9P8AxB+JdvpgkVGVl6fepfh58UrTUJFt5pRt9CeRXx3rniO41QkySMc1U0vV7mwuElt5nSRDkEGgD9MLeZJ4lkiYMjDIIqWvAvgV8SDq9kttdOC6/KQTXvMMiyICpyD0NAElFFFABRRRQAUUUUAFFFFABRRRQAUUUUAFFFFABRRRQAUUUUAFFFFABRRRQAUUUUAFFFFABRRRQAUUUUAFFFFABRRRQAUUUUAFFFFABRRRQAUUUUAFFFFABRRRQAUUUUAFFFFABRRRQAUUUUAFFFFABRRRQAUUUUAITxWLqF2AzAHnv7e1XNSnEcRxk47e/auWnJZ2yxJbk0AE8vmMfSoqcFpypu9jQS2Q80YNWPLpNlMViF/lWqnLNycVZmdT91hVccnmgAZSO9NyalCbqUxEUwIT2pCOan2U1kpoZVkjB71F5C57VZ289Kaw56UAVXtQagksVPetH60YBpAZBsI1ODzmm/2fGDhQB+FazxbjkA8U1YSTkg0hmUdPX0ph0tT1A/KtwQH0NPEB9DSA5mTQ42ydop9poiRzRuoAIPBFdJ9m6DBp6W3Tg9aAKj4F2kW75mFTfZWPRhVwaVaNIJGRt2OuasLYWyKAoYn/AHqLAZBspDxvT8qRbB1GPMj/ACrWa1tUILKwz/tU4JbbuUOPrTsBk/YX6ecg/wCA04WDDrcLj6VteVbjpEPyp+yADiIflQSYy2gHBm/Sl+yRn/lqa2R5WOIV/KgMmcCFfyoAxjYLj/Wv+VM+xKDy8hroN4I+4B+FHuFH5UAYP2GM95TQunIegl/Ot7zX7LQJHx2FAGGNPT+7J/30aUaev9x/++jW3vPfFIHOelBRkfYQo4hY/U1IlmGHMIH1rSdzjgmmqWx3NBJS+wDvCv5U1rL/AKYpj6VobuOc0z6jigDO+xf9MkA+lMe09EX8q1GjU+1MWMZ4oAzUgLZ4UYqYWTdmArQCKuenNBIoGZ4tZP79PFrJ/f8A1q3ketG8etAir9kfvLSfZPWQ1a3e4o3imBVFmc8ucU4WgzyxzU/mCnCQY96QERtEA6k/hUL2u77hI+oq4JD9KGlUdDQMyLvT2kUFJCBTbeyCsNzMT/vVpPMh4polVeQBQAwW0HXywx9+acqhOPLVR7U77QD2pGl3U7AKrYNTq3HeqwkUelOE4HekIe4yabszUbzimefVDJTHmmmAmmfaDR9opAOMB7kUnk4/iFMMzU3zPWmBN5Q7tR5a/wB6ovMo809gKAJggHc0u0epqESml8w+tICTC+tGF9ai30bzQBYCp608Kvqaqeb704S+9AE+UBx8xqRSh5ANVlkXqCPzpTMi8F1H40AW8p6UZX0qqZ4l+9Ig/Gmm8tl+9Og/EUXCxdG30NOBT0FZ51OyHWeP/vqmnV9PHW4jougsau5fSl3p6CsZ9b09elwtV38Q2K9J/wBKnnQWZ0XmL6CmNKB2FcvL4os06Mx/Cqz+LLY9FkNHOh8rOteZfaq7zp2ArD07W4NQm8qPKyYyA3etA01K+wWLf2ge1H2iqJPPWjJ9aYrFyW4+Rq8c8d+CrzxVfx3KQw+arEFh3XtXrQ5PNWLGJBewLwoJ7d6TGkeATfBjUzEAqJk+hrntX+DWt26tII8qvP3q+2RGmPur+VZviCzS602WPYvIxUsZ+fd74avLdnDJGoUkHLgVhXdrLavsdowTzw2a9A+K8KW+rXMcecB2H615iWG/imBZRQDl5cmp1fHSQ1SWRQOcE0nmgmgC4ZOeXz74oBRj88gYfSqTTdhR5i4680ATS28Jzsc1F9nOeHBpDKDTfNI6UAdP4I1258O6zBcRyYj3AMM9q+5fhf4ptfEWkI1vMrnaGwO3rX56CcgivZv2ffFVzpvimzhSQhHbBBPGO9AH29RTInEkauDwwzT6ACiiigAooooAKKKKACiiigAooooAKKKKACiiigAooooAKKKKACiiigAooooAKKKKACiiigAooooAKKKKACiiigAooooAKKKKACiiigAooooAKKKKACiiigAooooAKKKKACiiigAooooAKKKKACiiigAqOeTy04+8eBUlZmpzbkIU4oAx7+6aRzz9BVBvXvUVzK3mAdCakMql22/d7UCYgOByaVX56GplkiHVc1KJY+0YoEVhLn1pwOan8xP7o/Kl80dlH5UAY8mjW8sm/wDej/dbFSR6PFG3DTH6tmtZbgjjaKX7QxPpTApR2SL08w/jVhbUnojGpvPanrdSDuKBEItMnHlNThYEnHktUn2yXdndS/bJc5zQOxENNJPEJpraTITxFU/2uXOdx/Oo3u5s/famAwaLMR/qx+dSpocwH3U/Oo2vJ8ffagXU5H3zQBKdEm9IxQuhT+sdRm4nP/LQ/nSCaf8A56n86ALA0OXtJHS/2FL3lQVWaWXtI34GozJN3kcfjQBe/sJj/wAvC/lTl0QD71x+lZ4LnrI350pV+zsfxoA0xo8Yxm54oOmwAgfaf1rNCtszuORSFGyDRYRonTrcOQ1wCo96etpaDGJ8isvac5x9aUH5uBj2osBqm3tB/wAtKRorQD/WVlmkoGaJ+yAdc1Fm2B4GaqgH0pCtAE7PD/dNMM0Q6Cq7Ejt+tRsxPYUAWvtCZ4Wo2uAeij86rgkmmvkCgCZpQWBxilM59BioEPHNOzgZNAE3n+1NaZj0BqEkUBhQBJ5je9BkI6nio9x/CjcKAJPMJ70byB1qHJzxRknrnFAEhk96N4qPj0p/4CmAFvSmljSEmmk0AO3GjcabRSAUU5aaKctMALGo2Y1I1RmgCM9aXtRijtSASiiigAptOptNAJSUUUgCiiigApRQKeBTABRRRSAq3bTDYluoyx5Y9Fp7SCKLdI4AHc1m+JLqSG2WK3/1sh45weK55rq5uo/LnY+V0qWwSJX1XUGdsSZXcccdqjfVL1vvTFfwoMIXv8u39abPatHYJOzbt7bcf1qGyyJ9UvFOBPJj604XdzJ964cqOeDVTysdSDntU8Fy1suxEVlbjBFZ8zKJnuJQjOsjsFBPXrVezea6t1mkYh2GAM9KnjcAbT+VSRDc6JEvJ4GKLtiKTIYiWZ2J9DUYZpHHUgc4FWdWjlhYxbwsg65qpB5g2hjlupNTqMu49VpsjDjC0/O8EelQMRnvxRqUO3gfxYOO9RYychqgdCzDsPWnqN6hT0z1pBYeyrt+6OlIqHgjjipEZcsqr09aTIzjkcd6ALegNt1q3P1Fd23U159p0mzUbd9u1Q4r0NuprelsZyIsc0U5hTDWpA4dadFOiX9tlsEGmqu6uJ+JetSeHdFGo24BMLjg0DTPc7e7ScDacVR16+MFpJHENzsK+aNB+OUeQl7G0Kt910Oa7Ow+IunazhYNQiZyPus/NKwzy/4i+Adc1a+mmhWL5iTgtyea8u1r4f8AiDSYFlntGdWOP3fzEflX1b5pmYu3zZpTGjDlaLCufHH/AAjest/zDrr/AL9GrMfg/X3+5pl1/wB8Gvr8Qp/d/SlEK9h+lIZ8nW/w68Sz9NOmH1GK0rb4T+JJfvWyx/7zV9SJFS+VQB842vwV1iQAz3UEX610Fh8C42QG71JmPcIuK9vEYqRFxQB8i+MvCFz4V1R7a6QvAxzHJj7wpfCeorpeq21zFxscE+tfS/j7wrB4o0WS2kUCdRuifHINfLOqabcaXqc1pcqY54mKkHv70AfoB8O9ZTVvD1u+4EhMjHpXVV83/s2+KHewNpMxLwnaVJ7V9GxOGjBByO1AD6KKKACiiigAooooAKKKKACiiigAooooAKKKKACiiigAooooAKKKKACiiigAooooAKKKKACiiigAooooAKKKKACiiigAooooAKKKKACiiigAooooAKKKKACiiigAooooAKKKKACiiigAooooAKKKM0AV7yYRptzyf5VzWo6j5JdUALbcAnpV/Vp/LBY/xdq5eQ72yeaAIpHLNk9afFndRt5p6cGgRZQ5qVe1QxdTVlF6UyRh6UqHmnkcU3GDQA4daWkpaACikzS0AFLSUtABRRRTAKCKQGnUAAFLigUZoGLilxSZxShjQAoUUoHpSZpdx7UwHZHpRn2pN/tRuPpQIbRxRmjNIYmAetGBQSCOKF9qAFBwOKY1OLYqNuc0ARuc03FKaSgBvegmjvTWoAWkJ9aKaTTADSUZozQAZopKcAaAEpRS4IoyaAEoopSKAEpDQaUUAIaQ0ppDQAZpc02ikA9jUTGlNMIpCELUZpNtLigBaCcU2iqGGaKKMGgBtFLRSASlxQBTgtMBDSge9GKVRQA6gilApcUgOY8XgKLWTuGIFZCSJu+8Oc1s+N7eSSwhaLdlX52j1riRdNv+boKxm7MuJvPONqp1C9Ks2V+ixfZbkZhbjd/drnzdhxjoBxxT2cl8ZytZ8xVjSmtfsrrEXWVcZVh6UyQIcE5z6VUWc7x16YpyF3bufakMntY3nk2RDLE9zVyWC601PPKgHOAeuD61kRzSQ3XmRfLtPFbVqZNWDf2hcbYl/h4GaoRhyOzFjI29yc81PbeV1uN/Tjb60+/itxcn7GT5QGORUIGMZqbjJjIMcZAPWoWb94T1U0jqTkHoelPijGwDmlcYojzmk2EEUu0q/XirS7CB60DZWaIBt/8AFUUhfGXHAq4cBsDpUE6k9O9AitG+2dXHTcK9OhO+JD6gGvMGXa/PbBr0uzbfaQ/7g/lW1IzmSngVETUjdKgY81sZjs15x8bIvP8ABGoD0XNehk1xnxWi83whqK4/5YmgaPjgSsUHzVPb3TWsyyxyEMO4OKoHjjGeaC3YikUez+AfiY2nWvlaqZJol4BzkivcNG1O11ewiu7GQSROMjHavi6PdgYavQ/hz4/n8MzeRcDzbJ/4c/dPrQI+ngakFcXoXxD0TVCqiYROezGuwt54rhA0Miup7qaAJxRS0YoJEwKegHFR4qRaALCV5h8Y/A39t6e2pacgF/CMkAffHpXp8ZpzqGBBGVPUUDTPmj4Ja4+neMFtZiV84bWB45FfZeg6xHMkVtM/74j5M/xV8t/EbwXJo3ia18RaNGfKMo89VHT3r0nxBqEtp4Ui1KN2WW32uGB6VJR73RXA/DHx9a+KrCOKaRVvlA7/AH//AK/tXfUwCiiigAooooAKKKKACiiigAooooAKKKKACiiigAooooAKKKKACiiigAooooAKKKKACiiigAooooAKKKKACiiigAooooAKKKKACiiigAooooAKKKKACiiigAooooAKKKKACiiigAooooAKrXcyoMEkYqcsEXJ6Vz2tXeY8A/OTzQBl6ncmeU+lUCMdKc75JPemZoEPpRTc0oNMCaLqatxngVTiPWpkfkUEkxpGFKDxSMeaAClzSDpRQAUtJSigBaWkpaACiiimAYxSikNAoAWiilFAw6UuaMUYoAKWkxRigBcijNGBSYoAWim4NGKAA+1ABA4pQOKMetAAelMJ9qecZpr9OKAIzTGqQA0xhTAYKXFHekJpAGKaVp1FAEe2jFPppBpgCgU4AUgGKUUABppp9JigBgp9NIozQAEU3vT+optACkU0ilooAbikp1FIBtGKXbSgYpCGFabipqQj0oAixRin4pMUxjcUYp2KTFAEeDSgU7FKKYCAU7FKBS4pAR4pQKcetApAFFOHSkIoEZ2t3f2KxebYHwcYJrzi7Iurhp1UDd1A6Cu+8Vf8gef5egz+tcO27btVctjgVjNXNIsrRxhnGWHqDViQKw5K8DtToNPvDucWsvI7ipYrScg4t3D9wBWdiisg/iXtVhTiPcnU9aXyJd20RMH9xQgKMVbOR1BpWKII4pGcsfu1awFI47U0Ptz607cSciiwEuEIHYU0KrE+lHcEnn0p+7AIp2FcaYSRx/KnKnGCRU0CGXhWUf7xrRi0OaVc+bGPpzRyhcxghUHqajkZk6D9K6QeGp8fLOp+q1SuvDl9ltqo/wBDijkYXMSOVskv1qOSRieBVi80y8tcGeFwPYcVWTdz8tKzQ7kLlyTng9q9H0R/M0m29QgBNeeMh29a77QGR9Kh8vgDg1tSImaLdKgfrVhulV361sZkVYXjaD7T4bvlx1ib+Vbw61Q1xN+l3C+qMP0psEfCk6bZZB6Mah7/AI1qa1Ft1i/DfwzN/Oqcbp/dqSgThc0dRz19Kl27/mX8qRVw29unpQIkEjxrhHZT7GtPTvE+s6W6vZ30647bsisdmyaQGgD6B+FHxQm1i6Ona86Cc/6qUDG72r2TqOK+IbR3huElhYq6HIIr234X/EbV9R1q20q/jFzG/wAvmKMFR6mgR7kAfSnqvNNVwepp26MdWoESIcGpRVGbULKD/XXMSfVgKzLrxp4fsmIuNTt1x/tZoA3bm2juIXikUOrDBBrmPE9mH8B6tB2WFsD0xVWb4qeFImx/aAY/7Kk1qX1xFf8Agu/uYDmGeF3X6EcUmUj5r8BeJbnSNWiaORgFbsfevuPwB4li8TaDFcKwNwgCyjvn1/Gvztim23DlDtYMf517z8BvG8mnanFHMx8tjsdc9RSGfX1FRxzJLAksRDI6hlPqDUg5ApgFFFFABRRRQAUUUUAFFFFABRRRQAUUUUAFFFFABRRRQAUUUUAFFFFABRRRQAUUUUAFFFFABRRRQAUUUUAFFFFABRRRQAUUUUAFFFFABRRRQAUUUUAFFFFABRRRQAUUUUAFFFQyOArDdwOpoAq6hPtQqp//AF1y12S7kmtPUbkPI23p0rKlOaAKbDmm4qVlpu2gQAU4dKAtP20wHRDiplHNRxjFTrQSO7Y9KbnmnAUjCgBaKKKACiiigB1Lmm5paAAGlplPHSqAKUUlKKkBRS0CnAUDExTgPUU0U7mgQH2pMUtIce9AC5HpRuHpTc47UZoAUt6AU0t7CkJpCTQAuTTT+NL1owKYDCT70c9waUgjpTTn/JpgHJppBp2TSUDGUhxTzSYpAMxRT8UlACfhR+FFFACYoxTsUYpAGKMU/AxSECmIYRSEU802kMZto2+9SYpMUwGUU6ikKw2kxTjSZoAMUYpcUYoASijNFACEA00gin0ZpgNxRin0UAM20mKkpKAG4oxUmKMGgZHRinkUhxQIjpwFApRSAr3dvHdQPFKMowwRUFnp9tbqqxQKMd8c/nV6nAgUAJs4wAAKQRD8akzmg0DIXiTO7au76VSu9MtrogzxAn1HBrSz9KM/SiwGTFotkm7EK/jmmXuh28tsyRRqjHkEVs5paXKguzjJfDlzAm5GSX8eaqnTb07ttu3Nd9RScEVzHE23h+9nQl8RAdM1esdD1C33YuhHn05zXUUtCgkK5U0pbiO2Ed3zIP4vUVd70U7NUkIZKqsMMAR71g6t4et7wAwgQvnkjvXQZoo5Uxps5H/hEV43XJP0FbllYR2dssMROB696vmm0KKQ27ldl4qFxVt8VCwpklciqt6mbaQHuDV2q99xbtQB8ReMlEfizVomGB57fzrIEcPYt+ddL8U4Gt/HOpDb959351zdpCJZArttoSu7DbJBEM5SUY9KHBcfLzjrVwafHjmc/lVeWExPtDZXs3StZUZQV2jONRMqlSOoIowalW4weSD9aeGhf7y4+lYmgRjy4t/c1seFPFV14ZuZbiyhiaZxjc46CsiWPzB+6bcPToaqOsiH5loA7y7+K/ie4zsuhCD2Raxb3xr4iuyRNqtyc+jYrnKKALk+pX05zNdzOT6uTVdmdj8zsfqaZTs0AWdLiNzqdvAgyzyBf1r6z8WTJ4f+F06k4ZLYIPrivDPgP4Xk1vxUl66ZtrT52P8Atdq7f9pHxGsdja6PA/zSfNIB6UmCPBN4Llu55rf8J6m1jqcTg4GRXL7sYq1BNsdWHrQM/Qv4UawuseEbfLbpIRsb6dq7Ovn/APZh1rzopbJm4eLIH+0v/wBYmvoCgBaKKKACiiigAooooAKKKKACiiigAooooAKKKKACiiigAooooAKKKKACiiigAooooAKKKKACiiigAooooAKKKKACiiigAooooAKKKKACiiigAooooAKKKKACiiigAoNFFAEcrFUPIB/lWBql7yUU8VoalcCGJhn5jXMyyBmJNADnbJqJzmk3c0hoENIptSFTSYoAFFOxQFp4FMBVWpVHFIlSgcUANxQadimkUANopcUUEiUUuKMUAGKXFLilxQFhoFOxSgUuPamOw2lFLSikACn00U6gQmBS0maUUAFIRQTSbqAsNxRilyB0IpCy9zQMSjA9aNy+tJuTsaAHYowPSmmVe7U0zJ60wsOOKYR9KQyp600zJ3NAWYuKKj89PWk+0IO9AWJQPWnY9jVc3KetN+1oO9FwsWyKYRVc3i+tRm8T1H50gsW8UYqp9sT1H50fbE9RQBboBqn9tT1FH26P+8KAL+RRkVR+3R+q0v26P1FArFuiqf26P1FH22P1FAFw00kelUzfRf3hUbahH/eoKL9GKzDqcX94Uw6pHRcDUpQBWSdSQd6b/aqDvSuBsUVi/wBrJR/a8fqKLgbPFJx61iNrEfrUZ1he1FwN7ctG73rnzrA9RTDrI9R+dFxWOj3Cl3CuY/toeo/Oj+2h/eH50XCx0+4etJuHrXM/2x/tj86T+2D/AHhRcLHT719aTzF9a5VtYP8AeqNtXPqaLhY6ppl9aaZ19RXJtqzH+Ko21Nz3ouM6/wA5PUU7z19RXHDUn9T+dL/aT/3j+dFwOw85PUfnS+enqPzrjf7Rb1b86P7Sb+8fzouB2QnT1FL9oj/vCuJOpN6n86YdTb3ouB2/2lPUUfaU9RXD/b396Pt7+9FwO2N2n94UhvE/vCuIN9JSfb5KLgdv9uj7uKP7QiHRq4Z76U9DSpeS9yaLgdwb6PP3qd/aMQHUVxDXJcfeIqMTMP4mNFwO5OpRH+ICm/2nH3YVwrHf3I/GlU7ehJ/Gi4HcHVYR/GKY2sQD/lotcSzk9QPzqNgD1Wi4HZrrcIB8yRQfrUb6/bA/6wH8a49lU9VGfpSFRjhVB+lFwOofxJbdAxP4VCPElux2gsf+AmubzjsPypMtntRcDpjr0XYMfwqheeI0lM9ukbhkUEORgEms9CadNN5MQGwNuPp0ouB86/GBDH4zkZj8zRqTXDxPi6j+td78aMt4pR2RkZohwa8+J2yo3oauL1BnTRbe5HrUGrTCO3VRgoX3VatFUqGZRkgGquuxqbYYAGGr16ivSucMNJ2Ou0WPwfr1vFFdR/ZrnABIO059as6j8J1miabQ9SjlzyI3OP1rzCIgYYnB9q2NH8T6npMoa0un2D+BjkV4x3LUdq/hLX9FY/bdPk2j+JRkVjmcg7X6+hr1jRPi9lBBqtqCp6nGR+VaMy+B/FJLSBLa4f8AijOw5+lAWPFiI3/2T7Ux4WHI5FeheI/hq9srT6Hdx3kXUKThq4KeK4spjFcxPE47MMUAVq2vDXhzUPEV/FZadA8juwy2OFHrmqlhNbJdxSXVv50anLJnGfxr37wn8RPCul6KP7Pt1tJlX5o8fMTQB12k2Wm/DXwVtZ1EipukcjG5sdK+VvGOu3HiLXbi+nYkux2g9hXR/Enx9eeLLloULQ2iHhM/e9zXBqMvhetJjE7ipEODUbcNQp+agD3j9nLXpLPxHa7mwvmBT9Dwa+1c56V+d3wx1JbDWoju2nIYfUV+gHh6+XUtEsrxTnzY1Lf72Of1oA0qKKKACiiigAooooAKKKKACiiigAooooAKKKKACiiigAooooAKKKKACiiigAooooAKKKKACiiigAooooAKKKKACiiigAooooAKKKKACiiigAooooAKKKKACiiigANVbuYRIXJz6VYdsKx9ATXKeINSVWManpQBU1G+Msp54qj5tZ0lx8xOaj+0571NxGssgqZZBWCbsjvTDqBHei4HShxjqKaWQVyb64qHhm/KmnXgR1b8qdwOvDrThInqK43+2ge7Uv8Aa2e7UXA7ETIO9OF1GO/61xh1X/aNNOqn1ouB2n2uP1/Wm/a4/wDJrjf7WPrTTqx9aLgdl9rWk+1r61xZ1c+pph1Vz0JouB3P2xMdqb9sT2rhv7Vk9TSHVZP7xouB3X25PUUhv09R+dcG2qSetRtqkvqaLgd+dQj/ALw/Ok/tKMfxD864A6jIe5pp1CT1NFwPQTqcYHBFRtqin5QQPeuC+3y4702S8kdNpYj3ouB6ANUUd80w6so/iH5158lzIvV2P40v2pz1JouB3v8AbC/3hR/bC/3q4Dz39aPPf1ouM73+2F/vD86T+2E9R+dcH58n94/nR58n94/nRcDuG1hPX9aibWV/vVxnmv8A3jTS5/vGi4HYtrI/vVC2tc/erkyzepppLe9FwOsOte9MbW/euXyfek+ai4HTNrfvTDrXvXO0hzRcDoTrJ9ajOst6msAsaaWNK4G8dXb1P50w6sx7n86xMmjJPrTuI2Dqr+tMOpue9ZeDRtPoKLgaf9pyepo/tN/U1mfhR+H6UXA0DqUnqaYdQk9T+dUMe1Lg+lFwL39oS/3j+dL9vl/vfrVMClxQBc+3zetH2+b1qpg+lGD6UDLn2+WkN9LVUA0uDQBN9tej7XJ71Dg0UATfapD60Gdz3qGloAk89/U0nnP6mo80tADjI3rSF2Pc0lGKADcfU0wk+9PxSYoAYc0nPvUmKMUANBPvS5NOxRQA3n3pwJ96UAU4ACgBAuadspacDQAAcUoGKD0pBzQAjVGc5qQim4oAYRSAVLijFADMUu2n4oAoEM20mKkIoxQBHtpwpcUooAbQKdikAoABTqaKU0AIaSiigBueaQ80uKXHtTAZilC0oFPAoAWJeanlGLdqbGvFSTDELUgPnr45N/xU9v8A9cB/OvNpegNejfHL/kZLf/rj/WvNmPFWtwZ0ltOxjXaOMDvSXzsYvnQEfWqtqwEKc4OKfeP/AKM+G5Fesp/uzj5bTMYn5nHal5AHpTe59TVmLDIR3FeRLc7URHIAp8Z7gkH2oIK9aaGFIC/bapf2xHk3cyY9GNPvNYvr1Nt3Ksw9WXmqFFAC5XIB+U04mSJgXBx2NVHbLYFXrSTzI/Lfk0mzSnG+gx/LmOW+Vu7CrOktDY3TyXUfmRMPvCoZrYA7o+uelRrIyAhxx3FCdwnTcdxmoyxS3BaEYUfrVMfeq48AkGYRg/3e1VsENg9aZma3htiur2xB/ir7/wDhBdfaPBFoCclCR/X+tfnzpEnlahA3owr7o/Z/1EXnhuaMn7hVh+OR/QUAeq0UCigAooooAKKKKACiiigAooooAKKKKACiiigAooooAKKKKACiiigAooooAKKKKACiiigAooooAKKKKACiiigAooooAKKKKACiiigAooooAKKKKACiiigAooooAiuP9RL/ALp/lXnPiMFbkmvSJF3I6/3hiuB8XxiMHBz70mBy8kw9aqvcAHrVV3IJ5qItmkBZe5PaoGmY96jJpKAI35NNxUhHNGKAI6MmnUUAN5o5p1FACYoxTsUYoAjop1FADaKdRQA3FJin4oxQAzFLinYoxQAmKMCn7aXFAEWBRgU7FGKAG4pdtLt+tO2mgCLbRtqXbRtoAjxS4pxFKRQAzFGKXFGKAExRilxS4oAZijFPxRigCPbRtqTFGKYEe2jbUlHFAEeKWn4FGKAGYFLinbTRtNADNtG2nc0c0AJtpcU7Bo2mgBuKMVLigrQMjx7UY9qkxRigRFil2mpMUY9qAGbTS7fen/hS80AQ7adtp9FADNtLtFLRQAm0UYHpS0UANx7GkI9jTqTBoAZ+FLilAp2PagBoFOx7UgB9KeBQACnAc0lLQBLtG2o8c05STxSHigBGFNxTmpBQIQ0lPam4oAKWkpQM0AFJSkYpKAExS4paQ0AJRRRQAUGilxQA3FJTjTTQAtFMANPFMApwFIKeKAJU6VJJ/qj9KjXpUkn+qP0pAfOnxw/5GK2/65f1rzZl616d8dP3evWjY/5Z4/WvN42V32sOtWhl+BcRxjPb0qS7UfZ5PTHpTQyqAA3QYqK7uALd0B5Jx1ruc1ybnMotyMzHarNq21wKrHuacjYcGuCW50o0pVEv+y4/WqPRiO+auIR8rdqa0Cu5bdigZCuSPenhC5K+tTJHEOC3NWI4403fN8x6UhGNIpWQjuKfHIY3DCrF/FxvUfMOtUifl+tDHFtO6NpfmT8KoznY/PQ1JZz5hVe/So77tjrWUdztqSU4XEB2HcjfLSsqzDI4f1qqj7efzHrVhNrfNHx6itTiETMMwJ4Ir7I/Zbm86wu+ekS/zr4/IWZMHr619c/spqVtb4H/AJ4p/OgR9B0UUUAFFFFABRRRQAUUUUAFFFFABRRRQAUUUUAFFFFABRRRQAUUUUAFFFFABRRRQAUUUUAFFFFABRRRQAUUUUAFFFFABRRRQAUUUUAFFFFABRRRQAUUUUAFFFFABXA+OFKqw713x6Vynju1MlpHKOv3T/Mf1pMDyZj85pOtEw2ykUA0gDFGKcKMUANNJSmkoAKYwpQeKQmgAoozRmgApw6U2lzQAlFFFABTgKRacKAGUU+igBlFPooAKKKKAGZozRRQA+iiigAooooAKKKKACiiigAooooAKKKKAGUU7FGKYDaKdijFADaKKKAH0UUUAN45NKBx7UjuqKWboKcpBCkdDQAlOFBIA5oPFAC0opopwoAKSnUUAFFFFABRRRQA2jFLRigBuKKdSUAJilxTqSgBMUUtJQA3FGKWigAFOFJTqAHUU3JpwNAhaWkozQA0mkpSOaQjFABSYpaKACiiigBwFFFFADM00mnEUw0AKKWkUU/FACdqSiigBKQ0tFAAKUUAUuKAFB4pR0pop6jigCVOlSdUIqFOpqVO9AHiHxp0G/1HV7WSzhMiqpyBXllzoep25/e2Uw/4BX094iXdcRN6ZFUEjVuqqR7incLnzI8FxHw8UqfVSKhO4da+oJdOtJ8+bbxtn1UVRuPCWkXOfMs4ST/s0XA+ad1FfQ83w70KYcWgQ+qnFUH+E+kSycSTRZ9DQM8Ts5c/I3Q1bDbJsPXsMvwQgf5rbUnX/eWqd98GNUGDBeQOV9cimFzyaZQJOKWJsSCvR774Ua+qDZFDI2P4WxWHd/D7xHbE506Rsf3eaAuc1KuWPQ1mXEflueDjtXUTeHtYhB8zT7gY6/LWXfafdLEfMtpgR6oaQC+FYYpbmR5eSg+VcdTUmvkPEshhEcm4g9sis+xjkiLNtZT9MU69dnT52JqbG8VeO5nr6nmnxsVbK0zbg8flUrROq7mjIHrVIyZaHQMvQ9fY19f/ALKrZs70dSIU/nXxzA5U4P3SK+i/2X/Fkel+IFsLh/3N2oi3Hsf4f14/GgTPruiiigQUUUUAFFFFABRRRQAUUUUAFFFFABRRRQAUUUUAFFFFABRRRQAUUUUAFFFFABRRRQAUUUUAFFFFABRRRQAUUUUAFFFFABRRRQAUUUUAFFFFABRRRQAUUUUAFY3ipc6UfY4/Q1s1l+IxnSLj/ZAP60AeI6gMXLfWoAeas6qMXb/WqoqQJFNPBqMdKXNACk0lNY03NACmmE0tIRQAtLSClFACiilxRigBKKKQ0AKDTsimUZoAkoplFAD6KZRQAUUUUAPooooAKKKKACiiigAooooAKKKKACiiigAooooAKKKKYBRRRQAUUUUALRRRQAx0DqVboaVRgKB0WnYFH8qAEOO9B5oxS0AApwpKUUALRRRQAmaM0lFAC5ozSUUALRmkooAWkpM0UAOzSZpKKAFzRmkooAKKTNFADs0uaZmloAdmlptFAh4NLmm0UAFIaM0lAC5pM0lFADs0UlFADqMmkozQApNMNGaQ0AOWnZ4popTQAmaM0lFAC4oxRRQACigClxxQAgNPQ9aZipEFAEijipOik+1MAp0vELn2oA47xjrFnpYhe9l8tWJwT3rnrTxpo0txHClxlnOAccD61nfHG3Z9KsLgq6gORhuteOREqwZThhQB9RxAEAg5B5BqUCuM+HGvDUdMS2mb/SIhjnqwruIxQAgpacRTTTA2LCfegz16VpoMqK5i2kKOD2rftZ98YoEWSgzmopUBHaptw29aru+TQBVljHQqp/Cojp1tKP3kEZz/ALIq3t3HkVNGMCgLmRL4c0qb/W2EB/4AKzrrwF4buf8AWaVCPoK6unUDuzzu4+FfhqR9yWZTHo1U9S+FWj3S7ElnhXGMAjFen/LTdqmgLs8Xk+B9m4PkanKG7blrg9Q0XWPAPiCJbxGRd+Y5V+6/PUGvqJo+6mue+JOjJ4j8H3Vu0Ya6hXfEx6gigLnonwZ8cp4p0KO3uZAb+BQMk8yL6/X1/OvSK+B/hV4uvPD2uxYkKNE+MewNfdHh/VIdZ0i2vrdgUmQHjse4oGaFFFFABRRRQAUUUUAFFFFABRRRQAUUUUAFFFFABRRRQAUUUUAFFFFABRRRQAUUUUAFFFFABRRRQAUUUUAFFFFABRRRQAUUUUAFFFFABRRRQAUUUUAFFFFABVTVY/N066T1jb+XFW6gueLaYHupH58CgDwfWkKXj/WqO7iuh8WwiO6fA71zZzUATB6UPUIJxSFjmmBMTSU3NGaAH02inUAFKlJQKAHDrRmlxTaAE60EUtFADOlKDSkU2gB1GabmlzQA6kzSUZoAUUtNzS0ALSg0ylzQAtGaTNFAC0q00UtABRRRQAUoNMJozQA4HFOBplLQA49KbThyKMCgBaKKKACiilxQAlN706kIoAWlpozS0ALRRRTAWikzRmgB2aWmZpc0AOpM0maTNAC0UlFAC0lFLQAUhpSaaaAAmmk0hNJQA/NGRTM0ZoAfS0yigB9ITSE0lADs0U3NLmgQ7NKDTKUUAPzRmm0UAGaWkxS0AKKDTTRQA6im5pc0AKaSiigBKBS4pQKAEpDT8U0igBtLS4oxQAgpwpMU4CgApaZMxSNmAzgZxXnw8SeIjqvy2ifZN20euKAPQ92KkQ8VHAfNiRmGGKgke9TADpQA5cGpedv4U1AMVKikxk+lAHjPx4vs2FrDndmTB/CvF6+gfH1hBrKL9tgyqOyJ2zXgd7Cba8mgII2MQM0AdP4Q1B7CeK4jbBRuR6ivedKvY7+yiuITlXGfpXzbokmJih716d8ONVeDUDYSP+6k5TPY0Aengk0h3E1MsR6inFaYEONoq/ZTYXFUWUnpVuzjJFAjTRtwpSMGmou1aCaAFDYNSLIagPU0qmmSSljvzQ0maiLU0E4NAEglPSlElQrjFKDQBYElOU5NQCrEAzQB8xfErTD4e8eXIiG2KUiZB7GvqD9nTxCL7RH06V8sg3p9e/8An6145+0Xo+bPT9XRfmQmJyPTtVb4BeJ203W7clsDcAw9qRaPtJTkUtRwyLIiuhyjgMDUlAwooooAKKKKACiiigAooooAKKKKACiiigAooooAKKKKACiiigAooooAKKKKACiiigAooooAKKKKACiiigAooooAKKKKACiiigAooooAKKKKACiijNABVe8H7r8amkcIuTWRreoJaWUsr9FBP3vbH4UAeZ+MyPtL/X+tcrmtPXdRW8nLKc5rJzUASUEUiHimytimA4U6uN1Hx1penagLS6kKOa6u0uI7mBJYXDowyCD1oAsilFMzSg0AO9aTPIo9aiZvmFAFgHg0h7U0Hilz0oAc3FNzQTmkFAD8cU00u7io2NABmlFNpRQAtFFFAAKKBRQAUopKUUALSUE0lADqAaQUtAC0hoFBoASkpTSUAGaXNGKSgBwNOBpgFOoAfRRTWNAC0ZptJmgBaXdTTSZoAkzRmo80m6gCYdOKazhVJPamKTTsBlIbvQBxl347jivGjW3/AHKNtZiefyrrbK4S6t0miOVcZFcnqvg8XF48saxEsc5P+FdTpdmLKyjhBzsFMC5S0lAoAWkoNFAC0UlKKAClpKWgBKQ0tFADCKbipMUYoAjoxTsU4CgBuKXbTsUuKAIyKaakNNIoASilxSUCFFLSYpcUALSUuKMUAFFLig0AJSZpcUlAC0tIKcKADFGKXFGKAEpQKWlUUAGKaRUmKaRQA3FLinUUAMxTwKOKUUALsU9aEtLZPmWJAx74pcU6gBuMdOKcBS4pwFACpTpXYRlV6d6KWgDmvE9hNf2sSwbF2MT8xxmvnr4h6c+meI5Uk2/vAHGDX0jrSblRc+tfPfxc48TRr/diFNAcrYTrFcozHAzzXa6PObXVbOeM5USA/ga89Hauq8J3wMkcMxy6NkZ7ihgfSFtceZCjDqRVxU3EZ71naUoktonHRlDfpWxEnzAmkA1bUelWoYgg6VKqgdaccdqYhCvFRHipGPFRMaAGtSLxS55ptMkax/eU/FN6nNPByKAEApVXml2cVJGlAAq81Yh+WkRaU8UAc38TtNGreC9ShxlkjMi+xFfN3gG+a01qEDj5gK+tZIRcWc0LjKyKykfWvkuW3Oi+Mp7eRduyY4+maCkfoB4MvPtvhjTJupMIVvw4rcrgfgve/bvBMDg/KkhT/wAdB/rXfDpSKCiiigAooooAKKKKACiiigAooooAKKKKACiiigAooooAKKKKACiiigAooooAKKKKACiiigAooooAKKKKACiiigAooooAKKKKACiiigAooooAKzbzVIradYRtZ26YP+c1F4h1BbDT5XDAFRlvYf4n/GvOfD13NfXEt/cE4J2xA9h60AegXeogEkHJ9M8CuX8SSvdaXdqCeYzUryFySTUNz80EinncMUmB5FbyFkBOc1bV81nQLKtxKjDG1yP1q+o496nqBMppzjK/WmLUq9KAPPPGnw4j1e5W8t5tsuArDHBHrXY+HrD+zNKt7XO4xIFzWlRjFMBjyKkqowIDc7uwqV2VELMcL60wR5+8c+xqTbkEMAR0x7UAEMsUnMciuOvFNuFG9P8AeqSKCOIHykVOO1R3pKhCP74FAD8UYp2KXFADKXNBFJQA1jTAeaeRQFpAApwFAHNSBaYDcUYqXFGKAIsUYqXFGKAIsUYqbYfejYfegCHFGKm2UbKAIqKk20baAI6Kk20baAI6TFS7aTbQBHijFSbaTbQAzFFP20baAAUjdadTWoAbS4zTaN2KAHUVEZVHVgPxppuIx/Gv50AT0cVVN1H/AM9FH40fbLcfemT86ALmB6UYFZ8upW4/5bxj8RTTrNkhCtOmT/tCgDTorLbXdPXrcxD6uKb/AMJBppLAXUXy9ctigDWo4rF/4SLTB/y+Q/8AfVH/AAk+lDrdw/8AfVAG1RisM+K9HH/L7D+dMPi3Rx/y+w/nQBvZozXON4y0cHBu0P0pjeNtFX/l5H5UXA6gGiuVPjnRgMicn6LUR8e6QD95z/wGi4HX7qTNcgfH+kekv/fNR/8ACwdK/uzf980XA7Skrh5PiHpw+5FM34VH/wALFsv+faei4HeUCvPpfiNbt921npn/AAsdP4bOT86Lgei0V5qfiNIfuWX5tUT/ABGuW+7ZL+dFwPTJH2ITgn6UZyoPrXls3xBvnQqLRR+NRf8ACxNRHH2NPzouB6zSYryf/hYmp/8APnH+dMb4g6qeltGv60XFY9cC0d68h/4T/V/+eS/lR/wnmr/88V/75ouOx6/S145/wnWr/wB3/wAdo/4TjWG7n/vmi4WPZabXjD+M9Zb/AJaSf981F/wl+sf89Jf++aLhY9s470mU/vCvE/8AhKtUP/LSb8qP+Ej1A/eln/Ki4WPaiyf3xSiRf7wrxQ+Ibw/8tbiga9dn/lpc0XFY9s8xO7D86PMj7uPzrxT+3Lju9x+dH9tzd3uPzouFj2nz4R1dfzo+1QD/AJaL+deL/wBsuerT/rR/a7f3pf1ouM9n+12/eVfzpDe2w/5bJ+deNf2x6tJ+tL/bK+r/AJGi4HsR1C2H/LZPzo/tK0HWZPzrx3+10Pdvyp41aP1P5UXA9dOp2Y/5bL+dKNVsx/y2WvJF1aP+8fyqZdXjHf8ASi4Hqv8AbVkOsooTW7LtKK8sOsRgcMPypo1mPPLD8qVwPWP7as/74NNOuWg6ZP4V5YutR5/1gqdNciHWSi4HpR12AchXb2Apv9u+Zwtu4HqTXnya7AD/AKwfnV+DXLfH+tH40XA62Sdpj5kgC+gFeA/F593i0/8AXMV61/blvs/1y1418SJftXiR5UyV2gVUWJnJZ5qe1neCVXQ4KnNQlDQCRTA+jfhRr66npvkO2ZIxx9K9LiQV8xfCLUpbPxVbRIf3cx2kV9QxjC0gFNNJpTTSKYhrGmNyak25o20ARY9aTbU+PanKme1MRXCVKie1TLF7VKseBQIh2cU5RipDhetMLZ6CgLCFsdKciFjTo4yx6VoW8AA5FAxtrB0JFfKPxhh+x/EOYgYDPnNfXYXaBXyt+0XD5HjuNh0dA1A0fS/7Mkpm+G5L9ftb/wDoCV64OnFeP/st8/DM/wDX4/8A6AlewUigooooAKKKKACiiigAooooAKKKKACiiigAooooAKKKKACiiigAooooAKKKKACiiigAooooAKKKKACiiigAooooAKKKKACiiigAooooAKZLII4yx6Cn1z3jS9+xaRJIDwnzH+n9T+FAHF+N71tT1aLT7ZzhuZsdhVq2hjt40jiQAKMVzfgW9g1OC6vt4e4eQhvYDpXT7hnrQBJ+FNcZFPVlNTKqmkI8t1e18jV7hcYBbd+dIsa16Hqeh2OpHNxH8394HmqsPhDTo/u7/wDvs1NhnE+WtO8sV3v/AAimn+jf99Gj/hFNN/uH/vo0coHB+VQQq/fIFdw3hHTG6qQfZjTf+EP0v+KMt9WNFgOI3wnq4/OkaSAdZU/Ou3XwXo//AD7JTj4I0Vv+XSOgDhvtdqP+W8f/AH0KQ31n/FcQ/iwruP8AhAtDP/LnF+VJ/wAK+0I/8uMH5U7AcL/alh/z9w/99Co5dZ01B813CP8AgQrvv+Fd6C3/AC42/wCVMPw30E9bC2P4UWA88fX9KUZN7F/31UL+KNGX/l9jr0R/hzoffT7b8qrS/DfQv4dPt/8AvmgDgH8XaKv/AC+x1Xk8a6GnW7X8Aa9D/wCFb6H/ANA+2/75p6/DbRD/AMw62/75oA82/wCE80Jf+Xkn/gJqGT4iaOv3ZGb6JXqP/Cs9E/6B9v8A980n/CtdDX/mH2//AHzQB5Q/xJ0v+Hzf++Kj/wCFk6f6S/8AfFet/wDCttD/AOgfbf8AfNJ/wrbRf+gfb/lRYDyFviXYj7sU5/4DUTfE22H3beY/8Br2I/DXRR/y4Qf981GfhvowP/HhB+VFgPH/APhaEX8NnNULfFBj9ywk/E17N/wrrR/+fCD8hR/wrrSP+gfD+VAHi/8Aws+b/oHv/wB9VE/xPuv4dPP/AH1XtX/CutH/AOfGH8qT/hXWj/8APjD+VFgPEW+Jd8fuWB/FqZ/wsnVB0sk/E17c/wAPtJHSxh/Kmf8ACvdKPWyi/wC+aAPET8R9XPS2j/OmH4h60ekEYr3L/hXmk/8APlEPwpP+Fe6V/wA+UZ/CiwHhf/Cw9c7JF/3zSH4ha92WL8q9zPw80r/nyj/Kmn4eaX/z5x/lRYDwr/hYHiD1i/74qN/H2vt/y1j/AO+a91f4d6S3/Lmn5Uz/AIV5pX/PnHQB4U3jfxE3/LcD/gNNHjLxAf8Al5I/4DXu4+Hel/8APon5Up+HumD/AJdE/KgDwV/FGvN1vHH4VA/iPXD1vpR9K99b4eaYT/x7L+VNb4d6Xj/j1SiwHgDa/rjf8xC4/wC+qik1jWm639x/31X0Ivw90tR/x7L+VIfh/pjdLVPyoA+d/t2pnreXJ/4EaPtWoHrdXH/fZr6G/wCEA07/AJ9k/Kk/4QDTf+eC0EnzuXvn63E5+rGkxdf89ZfzNfRY8A6f/wA+6/lTW8AaeR/x7r+VAHzt5U7dXkP4mhreTGSz/nX0SvgTT1/5YL+VB8C6ef8AlgPyoA+c/srHqT+dL9mb1NfQreANP7Q/pTX+H9g3/LL9KAPAFsc9qU2GO1fQEXgOxT/lj+lTL4KsB/ywFAHzyLD2p4sh/dr6C/4Qmw/54ij/AIQmw/54imM8BFn/ALP6Uos/9n9K99Hgmx/55Cl/4Qmx/wCeIoA8EFr/ALJpfsv+ya95/wCEJsf+eIo/4Qmy/wCeIoA8G+yexo+yH0Ne8f8ACF2P/PEUf8IXY/8APEUCPB1tD6GpPsrehr3I+DbIf8sBQPB1l/zwFA7nhotG9DSi0Poa9y/4Q+z/AOeIpR4Psv8AniKAueG/ZT6H8qUWpHY/lXuX/CH2f/PAU4eD7P8A54ClYZ4eLY/3T+VBtCf4f0r28+ELQf8ALEUDwlaf88RRYDxD7Kf7p/Kg2zf3D+Ve3/8ACIWn/PEUf8IjZ/8APAUWA8P+zMOx/KnCFh2P5V7cfCNl/wA8aQ+ELL/njRYLniYhP939KcLcnt+le1f8IfZ/88qcPCFn/wA8aLBc8V+yn0/Sl+yn0/Sva/8AhErP/njR/wAIlZ/88qLBc8WFufQ/lTvIPo35V7OPCNp/zypw8IWn/PKiwXPGFtiR9005bdycBWr2ceFLQcCGlXwnbA58miwHjf2ST+6fyo+yP/cP5V7R/wAIxb/88aP+EYt/+eNFgPGfsp/55n8qPsjf3D+Veyf8I1bHpGaUeGLf/nnRyiueNiyJ/gb8qUWWP4G/KvY/+EZtx/yzo/4Ru27xGiwXPHRaA/8ALI/lUgsR/wA8z+Vevjw5bdoqD4cg/wCedHKFzyJbH/YP5U8WP+wfyr1tfD1v/wA8zT/+Eeg/uGiwXPIzpynpH+lMOlEniP8ASvXv+EegH/LM0v8AYcI/5Z0coXPIl0v1jH/fNSDSl7oPyr1gaDB/zzNPGg2/9w0WC55WujRYGIwfwrQtNDgKjdAPyr0pdEgA4Spo9IhA+7Ryhc8+GhWjIQIAPwqofC1tPJhoFPuQK9RGlRAcJQLCNOiDP0osFzzxfBOnOmJLSM/8BFOj8BaIOthAT/uivQTbjOMULZjPC0wOV0jwlpOnXCz21jDHInIYLyK6MOd23FaAt8J0FH2f2oAqBPWniMelTlKXbimIgEQ9KUxipDkGmsTQAgjAp3yikAb3pCjHtQA7cPSkLHsKVIianEJpiKu0seasQ2+etTrFt7VMimgBscQXtVmMY7U0KalQHFAC49a+aP2lbMnxVpUuOJI8frX05tO3pXh/7QOnfaNV0FwOS5WgaPWP2abZ7X4bhW/iunb/AMdSvWBXMfDbThpfgvS7baFcxCR/q3P+FdPSKCiiigAooooAKKKKACiiigAooooAKKKKACiiigAooooAKKKKACiiigAooooAKKKKACiiigAooooAKKKKACiiigAooooAKKKKACiiigArzn4r+bJp9xAkvlhkBHv1r0auX+I2mrqHhLUVC5lSIshHXI5OKAPifRfHOoeDfFFzsYy2xkKyxE8H3r6Q8HeMNJ8T2MdxYz5b/lpGTypr5D8WwtFqs+c53E1U0LW7/Qr5LrTp3idTkgHhvrQB94zyWyXBET5QY5NOS7hWvE/h78ULLXlitdSdbe9xjk8OfavS/MzyDwaAOmF5BT1vYPX9a5jefWjzD60gOtF3Ae9OF1Af4q5ETN6ml85vU0Adf51v/fo822P8dcj5zeppPNf1oA7KOW0/v1IZLQ/x1xYmb1p4lY96AOziktCxDudvapN9lggSHP1rihKxGCTUiyH1OaAO2BsO8h/OnAaaesp/OuK80+ppdxPc0Adp5Fg33bjH40x4bLf8s/y/WuN3sOjGl81/75oA7b7LY4/4+B+dH2Wxx/x8frXGea2Opo81sdTQI7UWVoRxcfrSCxtj0n/WuNWZ8feP505Z2H8Z/OgDrv7Pgb7kmfqaj/s0A/61V/GuTa4dT8rkfQ0hvJcf6xvzoA7IadHj/Xg/jSNpqn/lqK49bt/77fnSm6l/56N+dAHVnTRkjeOOlNOn4YDzBk1y32uXJ/eN+dNN1KTnzG3fWgDpzZEf8tBUZtcfxiub+0y93P50C4bux/OmB0Ztv9oUw2/+0KwftTnuaTz39aANzyvcUeV7j86w/Pf+9R57/wB6gDYZAO9Nwp/iFY5mc/xGgSuP4jQBsbV9RTSq+tZRnb1pvnt60gNbatJ8ntWV5z/3qb5rf3jQBqkLTCF9qzvOb+8aaZm/vUAaJC+1J8tZ3nN/eo81v71AGkQPam4X2rOMzetJ5zepoA0sD2pCB7Vnec3qaaZm9TQBolU7gUhC+1Z3nt60nnv60AaBC+1NwtUfOf1pPOf1oAv4X2pMJ7VQ85/Wjz39aAL21fajatUPPf1o89vWgC/sWnbF9qzhcv604XL+tAF/YvtSbV9qom5f1phuH9aANDC+g/KkKj2qh9pelFy3rQBf2r6D8qTYvoPyql9qaj7U1AF7y19BShF9BVH7Q1H2lqAL2xfQUmxfQflVL7S1J9qb1oAv7F9KTy19Ko/az60v2pvWgC75a+lL5aelUftTetJ9rPrQBf8AKT0FJ5KelUhdN6077U3qKALflJ6Uvlp6VT+1N6im/am9aANDy19BSGJfSqX2o0C7NAF0RLR5S1T+1mnrdUAXREtOES1R+1mnC8NAFwxL6UhiWqn2w0n2s0AW/JT0pfJWqn2v3pPtfvQBb8laTyV9Kq/a/ej7X70AW/KX0FIYl9BVP7XSG7oAueSvoKPKHoKp/a/ej7ZQBcMS03yVNVvtgo+2D1oAuCBaXyFqoL0U8XgoAteStJ5K1W+2D1pPtdAFzy196Y8KVX+1+9Me796AJ/KT0FLtQdqpm8FMN570AXiF9KT5fQVR+1j1pDdDFAFlwM5wKQAEdBVQ3I7ml+0qO9MC3tX0pVC1QkuwBUsVyCgNAFsKvpUgVaqidfWnCcetAi0FX0pwVfSqonHrUizD1oAnwtSqqYqsJVPenCQetAF1FWpkRapxyCrKPxQBY2gelea+P9HXxF4x8PaYgyTIWf2Xv+leiSTBUy3asL4dQjWvG2pazjdb2a/Z4z/tH/6w/UUAj1GCNY41RAAqjAFS0DiigoKKKKACiiigAooooAKKKKACiiigAooooAKKKKACiiigAooooAKKKKACiiigAooooAKKKKACiiigAooooAKKKKACiiigAooooAKKKKACmTRrLEyOMqwwRT6M0AfAHxl05NP1+eNFxhmH615rXrvx9H/FSTn/AKaNXkJOKAHxu8Th0Yqw5BHUV6t8PPivc6UUs9cLXFn0En8SV5LmlBoA+1dJ1Sz1WyS6sJ0mhcZBU1dzmvj7wn4u1PwzdrLZSkxZ+aI8qRX0X4E+IGneJ4Fj3CC8A+aNj1+lAHbUtJRSAdRmm5ozQA+nA0wUtAEwNPBqBTUgNAEqtzUgNVwakU0CJc0mabmjNAEm6jdTKKAJN1JmmZpQaAA000uaKAGinCm96cKAFoptFADqSko70AOzS5puaM0AOzSUmaM0AGaXNMzTqAFptFFABRSUHpQAFqaWplIaAHZozTM0ZoAcTSbqaTSZ96AH5pCabn3ppPvQA7cPem59qZ+NJmgCTNJn6UzPvSbjQBJvppamZpCfegB5ak3U3NJn3oAk3Ub6ZketGR60AP3Uu6osj1o3CgCXNJmkzSE0AOzRn3qPd70bvegCTJpcmo93vRu96AHk0maYT703J9aAJM0ZqPPvSZ96AJc0ZqLPvS596AJM0bjUWfejNAEu40ZqLNGfegCUvShqhz70uaAJd1ODVCDTt1AE28Uu+q+76UbqALG+jfUG6l3UATbxRvFQ5o3UASl/ejf71FmkzQBKWPrTSx9aZupu6gCTcfWjcfWo80ZoAfuozURakzzQBYVqfuB7VApp1AEu4UuR6mo+aOaAHZ9zTSfc0c03mgBG+pqM0581Ec0APzj1phY0c0mKAA5xQCSaD1xTgOKAFKllqZOFApiD3p/TvQA8Gnio1qZMetMByipFFCgVIoFADl6U9FJNCipYhzQBJGpFWVyBTE4qUMAKAOa8dav/AGZo0m0kzTfu4wOuTXcfDbQf+Ef8J2lpIMXEn7+Y99zc/n2rgfDunSeL/iB9rkG7R9JIPPR5ew/z6V7SoxQAtFFFAwooooAKKKKACiiigAooooAKKKKACiiigAooooAKKKKACiiigAooooAKKKKACiiigAooooAKKKKACiiigAooooAKKKKACiiigAooooAKgupUgt5JZThEBYn8KnrifitrY0nw5Iin55uD9KAPkP46XSXHiKcxn+NjXkx6103jXUmv9Wndjn5jiuZPWgBtANTR208sUksUTPHH94qM4qtQBKDU1pcz2c6zWsrRSKchlOKrA08UAe3fD/4vGKNLPxACxHyrOP617Xp2pWuo26zWkqyIwzwa+J66zwb421Hw3OojdpLXPMRPb2oA+taK5vwZ4s0/xNp6TWkq+aB88ZPINdLSABThQKWgBB1qVajqRelADhSikxSigQ6im5pQaBjxz3pwHvTKXNAD6KTNGaBCmkzSE00mgBTSZNIT70maAHg06owacDx1oAdRSUUALRRRQAUUUUDG06m06gApKWmk4oEJSGkzSE0AIaQ0ZpM0AFFJmjNAB3ph60E803NADqQmkzTSaAFNJSE0wtQA8mmE0ham5oAeSKaTSZpuaAH5ozTM0ZoAdmjNNzRmgB2aM03NGaAH7vegt70zNGaAHZpM03JoyaAH5ozTM0ZoAfmjNMzRQA8mkphOKj8w5oAm3UppgIxSbqAJM0hNMzRmgB2aM03NGaAHbqXNMpc0AOBpc0zNLmgB+aM0zNGaAJM0ZpmaM0ASA0uaYKXNACk0maSloASiiigAooooAKXFAHNPC0AIoqQUoFLQAUtULvWdMs223N9BGw6guM1ial8QPDtkhLXyuR2QZoA6mkIryi/+MukROVt4JpR27V0XgPx/Y+LLh7aJHgnVdwV+4oA7JhUZWrRSmFaAIMUhWpsUm2gCHbzTwtP20oWgBFGKXFPApMUAGMVInPSmDHc/maUzQp96WIfVxQBYWplNY1zr+j2SFrrUbZAPVxWDe/E7wtaZDakjkf3OaYHeLUqGvIr3426DCQLeOeY9sLisfWfjvFbHba2O98dN3FAHvStUV2J7srY2JH2qf5UP90d2NeI+EfHni/xnqEVppdlFEZTwcZwPU19M+DfDq6HZKbmX7VqMq/vrhv8A0FfQfzoA0fD2j2uhaXFY2S4jQfM3d27k1pUUUDCiiigAooooAKKKKACiiigAooooAKKKKACiiigAooooAKKKKACiiigAooooAKKKKACiiigAooooAKKKKACiiigAooooAKKKKACiiigAooooAbI6xozscKBkmvmH9onxV9oD28T/AHFxwa928f6wNM0eYhgG25NfDXxM1yTUtYk+ckFmzz27UAcXcymWVnPUmq1PbjimUAdx8M9estNuZ7PUkX7Pc4+ZhkA+9dL4o+H1nqCtd6HIqM3OzOVP0ryHPvV+y13UrFdtreSovpu4qWgIdU0650y6a3vImjcevQ/Sq1T3d7cX0hkuppJWP941BTQC0tJRTAv6Rqt5pN4lzYzvFIpzwetfQPw9+KtnqpjstYIt7s4Ac/dc/wBK+b6cjlSCCQR0I7UAfccbpKgeNgynkEGnV8z/AA7+KV5oUkdpqrPc2JOASfmSvoTQdcsNctFuNPnSVSMkA8j60gNQU9aZTloAkFKKQUCgQtFJmigY7NGaSlFADs0ZpKKACkpTSUAFJSmkNAgFKKQUtAD+KMioZX8sZwT9KIJGc5aMqO2aAJqKKKBhRRRQAUUUUABNNzQaSgBKSlptACU0nFOpjUCDJpM0lJmgBCeaTNBNNJoAUmmMaCaYTQApamk0maSgBc0hNIaYTQA/NJmmZpuaAJc0ZqLNGaAJc0ZpmaM0APzRmmZozQBJmimZFGRQA+kpKM0ALkUEikzSE0ALRTc0ZNACmmYpxNG3NAACfWl60D04oxjvQAClopaAEpM80pplAD8UtLijFABiinbaNtADaKftpwWgCMUuKkCUuygCMClwalCUuygCICnBakC08JQBCVoC1MVoC0AQlaAtTFaAtAEYWnbakC807bQAiD1rz74v+KH0LRGW1fbcynYmO1d1e31taQs808aY9WAr5g+LXiQa74jZIHzb2/yLjoT60AckLua5v1e8mkcM4LknnrXsd3ZaTf6bssLS3jsUgG6SThyfXNeI1cl1W+kt1gNwwiUYAHFAFW4QLPIqHcqsQD6ivS/gPZSTeKvPGfLjQ5rzIfLW74Z8Zah4YEv9meWrSdSwzTYH2KV4zULsqglnQD3OK+T9Q+Kfiu8znUDGD2RQK5+88V63eE+fqdy3/AyKQH2Bdatp1qCbi9t48erisS98e+G7QHzNUhJHZTmvkaa8uJjmWeVz/tMahLE9efrQB9RXfxf8MW5ISaSUj+6tY178dNLjyLWwlk9CxxXzrn2o3ewosFj2u/8AjrevkWemxoP9ok1zd/8AF7xLdZ8qWOEH+6tec7qSmM6m68deJLknzNUmXPZTisi51rVLg5mv7h/q5rO5pUyWGKAJJJppeXldj7tUe4+5ra0fw5qWr3Qg0+0uZ5G/gijLH9K9y8Cfs261ebJ/EMsenRHkxn95KfwHA/E0AeBafY3F0wEUTHPevXvhp8EtZ8TzCe4ia3s/4pp0wPw/vH6V9SeDvhT4V8LKjWtgtzcr/wAt7gbz+A6D+dd2qqihUUADgAdqAOU8B+B9I8G6csGmxBrgjEs7DLOf6D2FdaKAKKACiiigAooooAKKKKACiiigAooooAKKKKACiiigAooooAKKKKACiiigAooooAKKKKACiiigAooooAKKKKACiiigAooooAKKKKACiiigAooooAKKKDQB87ftB+IPsVrLCZOX+br6/T06Z9q+Rry4aed5XOSTX1f+0R4UuLhmljVzG+dr4r5U1Kyls52ilQhh+tAFEmmnpS9+KaTzQADHekb2FPVHc/KKtQ6dPKPloApdKM16v4F+CnizxUiTWtmttaH/AJeLltiH6HqfwBr1TRf2WHO06xrkK+q20Rb9Tj+VAHysuSeBU6wyH+Gvt7Tv2dPB9rCqTSajOw/i81V/QLV7/hQPgz01H/v+v/xNAHwmYJP7tIYXH8Nfd3/Cg/Bv/US/7/r/APE1T1T9nvwrcWhjs572Cf8AheRlkA/DA/nQB8NEY4NbXhfxPqXhy9WewnZVz8ydQ31Feo/Eb4H634baSeOE3NmORPCCwx7jqPx/AmvIL7TZ7RysiEY9qAPpjwF8TdM8RxJDdyLa3mMFHOAT7V6HDIrqChDKehByK+GFLxtuUlSO4ruvCnxP1zQSqPL9qtx/BJzx9aQH1iKK8w8L/F7RtWCR3ZNnOeMN0/OvR7S8huolkgkWRG6FTmgCzRigU4CgAFOpwSjbQAlGKftpwFAEGKMVMRTStADCDSbaftNG00AR4pcCnYox7UANxSilAp22gBtGKdijpQAylpdpo20AJSU7FJigBDSGnEc02gBpphp5FNoAaTTSacRxTCKBDc0lFIaAEJppNONNI4oAYTTTTiKaRQA00hp1JQAw0zFSkU3FAEdJTytNxQAmKUCgA04A0AIKdQAacKAG4oxS4zS4oAZ+VGD7U/FLgetADccU0j2qTH1ox9aAG49qMe1Px9aNvtQBHj2oxUm32o20AMxS4qULSiM+lAEOKMVP5Zo8s0AQ4pdtTbOaXZQBDtpdvsKnC0u2gCHb7UoWpdtG2gBm32FO2+wpwKj7zCoJ76zg/wBbcwp9WAoAn2e1L5dYF7400CyJE+p24I7Bs1h3vxZ8MWwOLp5SOyLQB3mz2p6r7V5HdfHDSo8i2sbiX0JIFYt18dbjkWumKPdmosB7uFobYgLOyqP9o4r5pv8A4y+IrjIgEEIP+zmuU1bxj4g1bIu9Sm2n+FTgUwPrpbyzY4F1b5/3xUc+r6VbDM1/bIR6yCvjIXl2gz9rmz/vmoJbmV+JZ5H+pzQB9dX/AMQfC1lkTapAWHZea5rUvjH4bt8iBpZz22rivmQsPc0bvQUBY96uvjnaDP2XTpW9CxrEvPjjqcmRaWEUZ9W5rx/mk+poGejXnxe8UT5C3EUQ/wBlKwb7x74kvCfN1W4Gf7hxXMblpC/oKANCfVb+7ybq7uHH+055qk0in1z781HJISoWo8YFAEplNMMpqOloAUyMab160VveHYbRP9Ju1Em0429h9aAMKkrW8Rz2txdh7SBYBjlV6VkUALRRRQAlKKQDNOAoASlxViG3kuDsiTmvffhb+zzqeviPUPEzPplh/DGf9dIPZf4R7n8qAPG/CvhfU/EN4ltptrLPM5wqRoWJr6e+HH7OFraLFd+MJvNk6/Y4Dgf8Df8AoPzr2/wl4R0TwlpqWOhWUdtGBhmAy7n1Zup/p2xXQigDL0LQNL0K1FvpFhb2kQ7RoAT9T3rUoooAKKKKACiiigAooooAKKKKACiiigAooooAKKKKACiiigAooooAKKKKACiiigAooooAKKKKACiiigAooooAKKKKACiiigAooooAKKKKACiiigAooooAKKKKACiiigClq+nW2qWMltdoHjYd+3vXz58TfgXcXbST6IPtCnkIp2sPrnivo+igD4Yn+AXjXzf3ejv/AN/k/wDiqn0/9n7xcZv9J0l0/wC2yf8AxVfcFFAHzJoH7OE+Im1O5hgA6oG3sPyGP1r1fwf8JfDfh11mNuLy4X7rzjIX6L0/PNeiUUAJFGkSBI1CqBgACnUUUAFGKKKADFFFFABXj/xS+C2meKElu9IWOyvzljGFxHKf/ZTXsFFAH53+L/AGq6DfSQXNrJGUPzKR+oNcRc2rwsRg8dvSv0q8T+F9N8R2jQ6hArNj5ZAPmU/X0r5t+JfwWubNpJbGMyw8kMg4H19KAPl8Eg8cGu3+H2ueILe+CaZqBjij+ZxK2Vx+NZGu+HbnTpmWWNlI9qxbea4spxJC7RuO470AfXWleK4riFfOmRpR97b0Jrbt9YhkAIkXPoTXy1oHiZnKxyyeXL69jXZ2eu3MR4kPsM9akD6BivY2xz+Rq4lxG2MEV4ZZ+L54iA5Na48ay/Z2+z7PN7b+lA7HsW5Gxinoo7GvPdL8WLJBG1w6rKR8wB4zW7a+IYHxhwfxouKx0pjoEYxWZFq8bgfMKtxXqP0YUASlKNtOEimnBgaYEW2l21L9KTBoAh20uKn20bKAIMUhFTFKQrQBDijFSY9qNtAEZFJipCKTFAETCmmpSKaRQBGaYalIphFAEZpjdakIphFAiKkNOIpMUANNJTiKbigBh6001KRTGFAEZoqTbxSBc0AR4oxUuyjZQBBj3pNtT+XRspAQhacFqTZijbQBHtpdtS7OKNtAEW2l21IFp4WgCIIadsqXafQ0oFMCHy6Xy6n+XuwpMp/fWgCHyzS+XUcuqadbg+fe2649XFZN/wCN/Dll/rtTg/4Cc0Abnl04R159qHxd8NW2fKmlmI/uLWFffHHT04tNPml92O2gD18R08R14Be/HLUWyLTToowe7Nmse6+MPiedcRyQwj/ZUUAfSzgAc8VTnv7OD/XXMMY/2nFfKt/478R3ufP1ObB7KcVg3GoXly26a6mc+7GgD60vPFug2hxPqduPo2azLr4j+F7YfNqSN7KCa+VxI38TE/U0whadgPpG6+M3h2DIgS4mPbC4rCv/AI5RjIs9MLehc14V8opNy+oosB6refGrW5Mi2toISfxrAvPij4quicX5iB7IoFcOZFFIZh2FOwG9deKtdujmbVLk+uHIrNnvLmc5luJnP+1ITVEyE9KTLH1oAnclvvuT9TUZKDvUe09zS4FICTzQO2aTzf8AZpnApd+O1Ax28noKTLHvSbjSZPrQA4j1NIcetNxS4FABvHYUbie1GRSZNAC89zRxTKKAFLCmE0lFABRRRQAlFFFAC5pQ7AYDED0BpmaM0AKTnrSUmaM0ALmiit/w94X1LX7yC0020knnmbaqr60AYYBPTrXo3wy+FfiDxteJ9htvLs/+Wl1LlY1/HufYV7x8K/2cLTTRFqHjRxdT8N9gjPyL/vMOW+g/OvoqztYLO1jtrSFILeMbUjjXaFH0oA87+Gnwf8PeCFSdYRf6pj5rqdQdp/2F6D69a9KPTA4oooAAMCloooAKKKKACiiigAooooAKKKKACiiigAooooAKKKKACiiigAooooAKKKKACiiigAooooAKKKKACiiigAooooAKKKKACiiigAooooAKKKKACiiigAooooAKKKKACiiigAooooASio5ZUj/1jqtQNqEAHDZ/z70AW6Kwb3xLZ22wuyDd/ekH9Miqn/CZ2PrF/wB/f/rUAdVRXK/8JnYesX/fz/61OPjGyH/PL/v5/wDWoA6iiuV/4TOx9Yv+/v8A9ar1l4m065HEmD/vA/ljn9KANzFGKqx31tJ92ZfxNWFkRvuup+hoAdRRRmgAooooAKCBjkZoooA87+J3gmw8RxKRbQJOkbyM4QAtjb19etfGnxK8KnQr2RADtz6dK+/tRYCTPfyJP5rXyL+0TN5t1jYFw3X1oA+egSpyDyO9bmk6/LbEJcEvH69xWE33j9aSgD0+1u4riNZI2DKauxyY6GvLtP1Cexl3RMcd1PQ13Gj6vb36hVYJL3U1m0ykzoY5nzwTV2G9mQ8Ow/GspGyetTox7Gp1Hc37fXruLHzkj61r2XiyZMb81xoapBTuwselWni+NsB2IrbtPEsL4/ej868fVj3qVZWHRjRzBY9wg1yN+jg/jV+HUo27j868Jhv54+kjfnWjb67dx4w5NHMLlPcY7uJhw1TRujn7wryK08WSpjeK2LTxfGSNxIp8wcp6VtB6EUhSuOtvEsUgBEg5961rXW0cD5gfxppkmyVpNtVU1CNqmS6jbuKdwHeXSeX7U8Oh704AHvRcCuUppSrRSk2GmBUK1GVq061EwoAqtUZqaQc1EaBEZpKeRTSKAG4oxUmKMUARYowKlxRigCLFGKe8sUYJd0X6kCqFxrulWwzcX1un1cUAXdtKsdcxd/EDwzbZD6pESOy81hX3xi8N22RCZpj22rQB6Ky4pu2vGr746QDIstLdvQyHFYV58btYkyLeygiB9yaLAfQW2jb718v3nxW8VXGdt0Igf7i1i3vjDxFe58/Vbg59GxRYD60luLeL/WzxJ/vMBWVe+KNDs8/aNSt1x/tZr5Inu7uc5nu5nPu5qErn7xLfU5osB9P3nxQ8L22R9t8wj+4M1iXnxp0OLP2a3uJiO+MV89iMelLs9qdgPZb344ynP2LTfxdq5+8+MfiKbPlJBCD/ALNedbcU2iwHWXfxG8UXWd2oMgP9zisa78QazdkmfUrlv+Bmsz5R3pN6etAEjTzy/wCtnlc+7GomHOeTSNMi9OaY1z6CgCTGe1Lt96rGdj2xTDIx70AXDjuRSF1HeqvJ70u360ATmVe1NMvoKj2mlxQFg85j2xSbie9LkUm4elAxDzSbKXdTS1AD9oowtMG7vThQAuQKbv8ASl4peKAEyaKWigBMUUtGKACiikoAKSiigBKKKKAGUUUUAKTSUUUABpKDRQAUUhooAKKSigBaMUCnAUAS2kDXEyopAOQOa+8/2ffBWmaH4N07VUiWTUryHc0x/gXP3V9uOtfB9t8soIPcCvtb9njxyk/hy00XUZEBt0CQyZ7eh/xoA9yoNHakoAWiiigAooooAKKKKACiiigAooooAKKKKACiiigAooooAKKKKACiiigAooooAKKKKACiiigAooooAKKKKACiiigAooooAKKKKACiiigAooooAKKKKACiiigAooooAKKKp3+oQ2Ue+U/hQBcqOWeOL77AV5b4v+J9npvENwP9pV/x6/yrynxD8aXu4njgdVK9lNAH0drPiSz01FeR12t3zk/lXnXiL4rWttlYJWz6luP0xXzLrvjzVNQdtsxwfeuQu766uXJuLl8H8KAPoLVPjTIGaAMiJ/sDbWPefF6We3O12I6V4O0w6KGc9Mk1YtmlRNrHHPakB2uqeP8AULiZsTsKo/8ACZ6njicfnXNk55bBqNnh9RQB1H/CY6scEXC/i1WE8ZatKMCYZHvXFecCcJHn3NTWk20MWA+gpAdQ/i7WFOPO/WrFn461W2mBeVyPY1yD/OcnP4UgVuzGmB7LpfxdurWFVkmY+zc12uifGdyyrI3l/QYz9fX8a+ZP3gPGGq3aTSEHllx70gPs3RfizYSY+0SqfrgV32heJ9N1pFFpMvmn+Bj/AC9a/PcX1xEeJWA+tdR4Y8dX2mXCkSuijoc07gffoor568HfHJtkcGpKLk9N2cMa9RsfiT4du4Q5uXiJ/hZef0pgdpSEhRmuRl+Inh2MH/SyT7LXnfjj4vQxwyR2m0R/XrQCVzufFnjHTtLDmYkOsTr1HOSpHr6e1fJHxc8QJrDs6c55rD8Y+M7vVrh8ysI89M1zaz/a4drHPbmlcvlOfYj05poBq/Lp83mkKODVmHQ7qQcA4pk2MnHvSxu0Tho2KsO4rprDwbqN658tCsY6u/ArAvrWSzuZIZU+ZDgmgR02heIg+2C8O1ugfsfrXWRShgCCCK8krZ0bXZrEhJCZIfQ9R9KiUewHpSn0qZKydNv4ruIPEwOa1I2zzWfqWmWBzTwKiVqlU0BceKkFMUVIKBiilFApwoEKkrofkdh9DVyDVLqIjD5FUvwpQvrQBu23iS5T75Na9p4r6CQ1xuKVRincLI9KtPE0LkZk/Wti212NgNsg/OvH1BB4OKnjuJY+jt+dFxcqPaItXRu4NW49RRu4FeNQ6xdR/wAZNaMHiKZcbgTTuLlPWvOjbuKikYHpXn0HiYDG4kVxHxN1HxJcKt5oV9ILZRiSGPgj3pqQcp7dLIi/ekUfU1Rn1Gyh/wBbdwL9ZBXxzdeJtcmdluNRuyQcEFzVCa/uZzma5mc+7E1dhH1/feLtCtR++1S1BHYSA1gX3xS8M2uR9tMhH9xc18sl933iW+pp/HoKYH0JefG3SYsi1t5pj2yMViXXx0uckW2loPdmrxgLT8UAel3Xxm8RTZ8mO3gB9BmsO8+JPim6JDaiyA9kGK5LbS4xQBo3ev6zeEm41K5bP+2azJGklOZZZHP+0xqSnfLQBAIl7jP1p2wDoKV5I1/iqP7SnvTEP2Uu2oGuh2FMNy3YUAWttGB7VTMzHvTC7HqTQBeLIOpFNM0Y71SPuTRge9AFprkDoKha4c9OKZj2o20XCwrSue9MLNn1p+2jgdaQxnNG33p25fSk3igBMZ7U7bSFz6UmTQA/aO5pMqKjwfU0YNAD947Cjee1JilC0AJljRTsUYFADcUbadiigBAopaM0UAJmilooASloozQAcUYoooAKM0ZooAKQ0UlABRmikoAKaTQTSUAFFFFABQaKDQAlFFBoASig0UAJSU6kNAC0UUUASxvtOa7fwT4rm0e7iZZCFB9a4OnpIVPWgD79+FfxDttasora6lHmYAVif0r1EV+d/wAN/E91p+rQqjttBz16V9kfD/4gWmpLFZ3cqiUjCMT39KAPSaKKKACijNFABRRQSB1oAKKoT6pawAtJJhP71ZVx400K3/1t6v4CgDpKK5L/AIWD4b/5/v8Ax00v/CwPDn/P9/46aAOsorkv+Fg+G/8An+/8dNH/AAsHw3/z/f8AjpoA62isGDxXo90B5N1vz0GCK04r+3kCbZB83TJoAt0VHDNFKP3UiP8A7rA1JQAUUUUAFFFFABRRRQAUUUUAFFFFABRRRQAUUUUAFFFFABRRRQAUUUUAFFFFABRRRQAUUUUAFFFB6UAFBIxUcsqRRF5DtUV5t4x+I1npBkXKMf4c9P8A9dAHZav4gstOV/tMvlhRzk8n6V87fFj4nNIJIbOTaOQTnr71wvxB+JV5qFw4jkZh0AU15Zdzz38hlu3Jz/D2oAs6prt3qErEOxHdm6VShygJY7mPejKqMAYphkVWwA34UgCV2xhBxTBEW5kYn2NSEnqqYo+ZiN/AoAFAHQDFS7vU01kBHyDFCo/rQAOQ/UcVGyrnhalw2fvDNIVJbk0AMGQOnFKOKkYALhfvVHtdfvCgBSWPSmkTHuBTgVPXIpwC+uaAIdsjcNLjntU8DGAvglsjvSKOTgUhyG5A5pAPYb8buT60xkYfcOfrQTjrmmLOFY7kYimBPDcvEQdzoR3BrVj1WcxYjuZgfZzWK06MuBG35VPYDORtKj3oAvDV71M7p5XHu5qtdahLcjDux9iaZLtDkA/jTDGrH+ooAzrhGLt97HapNPTMuQcCrTowOCMr61b0uCJpk83Kgn5qVjTmPQPCWgjUURFiDMep9K9TsfBOl28CeZAHcDkn1rG8L32maZp6GORcEdO5q7feK1lDLG+yP9aCWzM8aahY6JZMkSguBwi188eILxr2+lnZQu9icCvQvHWswz71V8n1ry2d98hPamkJu5BSYp2KSmIs2F9PYTCSFseo7GvQND1u3v4wMhJu6mvNqdFI8Th42KsO4qXG4Hsqmp0NcR4d8ThwsF+cSdBJ6/WuxikDgMpBz6Vk1YpMuoelSjpUCHpUoNBRJS9qQU4dKQhRThSU4UALS0gpwoAAKfSAU7FACAU9aAKkRaAHIKfSqKXbQBznifwhp+uq8saC3viPvqMK31ryTWtFvtFuTDfwshz8rdm+hr37bUOoWNtqNsbe9hWaI+o5X6GrjK24mj50oVq7XxZ4FuNNZ7jTMz2vUr/EtcVtwxBBVh1BrRO5JKshqQS1BRupgTPcbV96hNy59Kjk5qKgCx5rHvS7ie5qAGpAaAFooooAMUoFLiigBQopdoppNNLmgB/FGRTKKAHbqTcaSkOaAFzR1pMUtACYo204UtACUYpaKAExRS0UALRSUUALRSUUAFFJmjNAAaSiigB1FFIaAFpM0lGaACijNGaACijNGaACkNLSUAFFFFADKKKKACiiigANJSmkoADSUtIaADOaMUuKMUANopxpKACiirNlbC4k2mRUb+Hd0NAFfFJWlc6ReQctEWXrleRTbaOKNszdfQjFAGnoMRgQyscMf5Vt2Pia6sr4NDK4APY1z0l4Nm2P6VAgJBLfeNSbwtHU+s/hZ8aC0EdrrT+bCDtEhPzr+PevZo/GehTAbL5ee3Svz1sLuW1dfKLAA9Aa6m18V3WQPNdcdOaLkT5Xqj7k/wCEu0Udb1ahuPG2hwRF/te76CviO48VX+GIkkP1NZ9z4p1GUczMPqaZmfWWu/GWxtpTHbKqf7TNk/4CuA8Q/GRbjcYJwT7Pn/61fO8+oXNwSZJWbPvUBD9S35nNAHqGsfEjVJwxild19A1cZf8Ai29u5DvlZc9QTWJHN5ByXJ9qluhE8QkKjJpAWRrV3nic/nS/27eDpcH86ywUA+7Sg5PGKYGzFr9wy7ZJWz2OaZPrF/EQzSsUPfNZZZB2GRVi0kLKRMAYvQ0gOl0rx1e2oXa7Aj/aro4fitqaY/eSfnXl0gQsdgAFRggDv+dMD3TRfixcmRWnfIHZ+a9H0f4zwExI8ik+jNkfrXyKGIPDMPrVu3uWPAkIkHQ0AfemheP9L1KFd7hXP905/SurtLyC6QNbyq49M81+fWl+Kb7TnUM7cdwa9A0H4sXMJWOSVuPU0AfZtFeGeFvi6kiok8gcnuxz+denaH4w0/U0GXCMfQ5FMDpaKRSCAQcg8iloAKKKKACiiigAooooAKKKKACiiigAooooAKKKKACiiigAooooAKKKKACo5pVhjLyEBR60TSpFGXkOFFeRfFb4gQ6bayRQyAN7f560AQ/FX4hxafbyw28gDYI4NfKXiXxNdaldyM8h2k8Amk8W+Ip9Yu3aSRuTwM1zyx5OZDk0gGyTMzEjknqTQpY/eNMYqGwKlB444oAXGTzTiAOF60wuqj5jio97OcKMD1oAkYherDPpmlznmo0hUct8x9am2cDAoAbnvk1JvYj0FRuUT73LegpmJJD/AHVoAczKDkmnr8w4NJGiIOQSadu5yFwKAAr3zTtygc80gBY57UjOidSM0AHBPC0uF7jmmiZ2/wBXHxTgZD99MCgBV4B7UwDIPenNwPWkh5fHSgBu4cBgQadnA4NPLIWwenrSGAMSY3oAZvPanJJzjJzSrGR99vypoI3EdB60APOD2zSbRnKkj2pjZHQ7qjMxU/vImWgCyWwRk/hUys0fzJVAzq+0Hj3rQkVvs6t2oA0bfWpIY1GelUrzxFcFiNxxVBlz1NV548npigCveXctzIS5ODVUp6VcaHaOarsMdKAIMGkNSUlMBlFPoxzQAyui8P8AiObT2WK4/eW/v1FYIHOKu6dps99L5VvG7v6Ku40mrgerWN5FdwLLbuHQ/pVxGrlfDvhPXrG4V4ILjaeqNGQDXotl4furiPcYZI3/AIkKGs3GxSZlKeKkHSrF1p81sxDoRj2qADA5qBjhThTQKcKAFpwFNHWnrQA4U7FIKcKAHLUyiolFTLQAopwpAKWgBRTxjtTQM04CkWNdAwwRXIeKfA9nqqNNZgQXfX5R8r/WuzxRimpNEtJnzpq2lXelXTQXsLRsOh7GqNfRmraXaarbGG9iWRT0JHI+hrybxV4GvNLLT2QM9qOcD7wrWM0yGrHFmmEVIevPWkxViI6VTSNSA0AS5p2ahzUgNADs0ZozSE0ABNJRThQAmKUUlOANABSZpSKTFACUUUUAKKWm0uDQAZozRtPpSUALSUuDRg0AGaM0lFAC5ozSUUAFFFBoAM0maKM0ALmkoooAKKXBoFACUUtFACUU7BpKAA0lFFABRRRQAyilxRigBKKKUjFACGkpT0oxzQAlFOxSGgBRT8ZFR08GgBpXmkIxUgp2zNAEIxnmpVIoMRzR5bdqANnTdZmtCFk/eReh6/hW1dPp1/ZNIy8j0+8DXJwQt/HWnZqi5Dd6loaK6xKOV/OpVTjk1cazBBaM/lVYwyI2WXj1NAagq8cce9HOeDk+tBPPPJ9KRzwM8e1MRYWXgea2R0Apl1tBGAKYihfmfk9hUcjZ6kUALvJ4Bow4xgbs1Huz17VNHMRwoxmgBRGE+Zxz6U6Rtyrnt2qNiWPLc1csrTziWc/KO9AFEtk+tSEKRtJxmpJ4GDEIhNN+yykbipGKAGosSdOT70FiT1GKcIXQ/NgfWkCsW52igBoPPA4pfl9qneNT9xlFQNE2ezUAR+UztncAKfGFhfP3jQ6svDIc0xge60AOnmMjgkVETk1IEZlyBxTcGgCe21G4tnBhlYY7V23hnx5eae6F5G2g+tef7XaQNGwqVISCDK/y+gpgfYPw9+K0dxFHFPIHQ/wsen09K9l0zU7XUoRJayBuMle4r86rLU5dOmV7WVwPSvXvh/8AFCazkjWaUqR3zQB9iUVyng/xfaa7bJiRRMR68GurzQAUUUUAFFFFABRRRQAUUUUAFFFFABRRRQAUUUUAFFFFABTXYKpLHAHWnHpXHeN/FMGi2MjM4yv/AI9/+r+f05AM/wCJPiy20bSZN0g85h+6Gf5jrn6/pXxv438STaxeyM8hOScDNa/xS8cz6vdyJHISMkYBrzMOS2XOSaQEpzuywyaaZCx2g/jUU0hIwD+VJEDj5Bg+poAmWMA9yfWnsyjvk0xVJ+8xqWKFAd2KAK75LZYZqQM+MBallHPTFR7u2RQAqmXpgU796TjIpocDvT4ZB5nWgBGXaOTzS/NgYanT8HORimBl/vCgBT5vcKacGkQYdB+FOSQBSBtOe9PXJHIBoAgO+Xk/IvtQqRL7n1NWARj0qN1GeVBBoAfG2BhSB9KCx7k1EIlI+UkUoWVBwQwoAVs/jQFI5JAqNmZ+ANppqwgn5pCT6UAT7Y1XLOKVGTqpDCmx28XVgTT2iiUZQUASNhhlOD6VEU3HjhqUetKjAHnBoAjO4HBxmkMjjgkGpi6s2MDHrUboA2V+YUAKrE/wq1LLM5UKcbfSkjRkBYrjNR43Z9aAHZHUc0Fd/wAxpq/K5/Wn52jcOlAEU0e5dves+VccdhWnL0DCqs6BxkUAZ+eacelIwwTSgUwEwR0q5aWU95NHHFG7u391a734Y/CnWvHGo+XbIkNqv+tuJM7E/wAT7CvsD4b/AAr0DwLaobWAXeokfPdzqCwP+z/dH6+9AHz/APDf9nLVdUEN54pf+zbN8MsQGZmHuP4fx59q+mPBvgPw74QtFh0TTYo3xhp5BvlY+7H+mBXVAUUAAGKDRRQBzXiTwhpmtQvvt0iuj0lUd/cd68H8V+DLvTLt0MZ+XkkdCPavp2oJraG4JE0MbjHVlBqXG407HyE+nzJ/A35VEbeReqn8q+qbrwjotzndYpG5/ij+X9On6VhX/wANdOuM+VO8Y9GQN/LFTyDufORRh1FKoPcV7dc/CPJJiu4mHuCD/WqknwpuV+6Uf6P/AI4pcjC54+B7Uor1ST4W6ic7IE/GRf8AGq0vwr1r+CCL/v6v+NLlY7o84XqKlFd6PhZr/wDzxh/7/L/jSj4Xa/8A88Yf+/y/40uV9h3RwdPArq7z4f8AiG2znTpZAO8ZD/yJrDvNI1GzbFzYXcR/24mX+YosxFLNOGD1NDQyqcNHIp91o2sOq1JQ6lpKWgEGKRgGUq4BB7GloxQM4bxZ4Et9RVp9OCw3XUgD5WrynU9Nu9MuGhvIWjYHuODX0fg1Q1fR7PV7Vob2JXB6NjlfpVxnbchx7Hzg4qLoa7jxb4FvNIZri0BuLTrx95a4t0x14rVO5NhtKDTaXNMRLQaaKcEZiABk0AJTgORW1onh++1SdYba3eSRuyqc/lX0Z8N/2eLh1gu/FDC0Tr5CHMv4/wB3/PFAHzhp+i3d8V8iCQ577Diuhtfh/qs3/LCQf8AIr758P+GtG8PWC2mk6dBbwjrtTJY+pJ5JrVCRjpEB/wABFAH59/8ACt9V/wCeD/8AfJqOX4daqg/1En/fBr9Chx91MUvzH0FAH5yzeBdXTP8AoU//AH7aq/8Awhes9tOu/wDvy3+FfpFtJ6tRtP8AeNAH5u/8IVrvbS7z/wAB3/wp/wDwg3iD/oFX/wD4Dv8A4V+j+0/3jRtP940AfnJ/wgPiT/oDaif+3WT/AApf+Fe+Kf8AoAar/wCAcn+Ffo1tP940bT/eNAH5z/8ACufFn/Qt6x/4BS//ABNKfhr4w/6FjW//AAAl/wDia/Rfaf7xo2n+8aAPzo/4Vh40J48La/8A+C+X/CpB8LfG5/5lXXPxsZB/Sv0T2n+8adQB+do+FPjg/wDMqax/4CuP6VIPhH47PTwrqv4wNX6HUUAfnqPg/wCPj/zK2pf9+qePgz4/PTwvffkv+NfoPRQB+fg+CfxCP/MtXf8A31H/APFVIPgZ8Qz/AMy1cf8Af6L/AOKr7/ooA+BB8CPiMf8AmW5f/AiH/wCLqQfAH4jH/mXiPreW/wD8XX3vRQB8Fj9n34jH/mAKP+3yD/4unD9nv4jd9EjH/b5D/wDFV95UUAfCI/Z4+Ih/5hEA+t5F/wDFVIP2dPiGf+YZaj63kf8AjX3VRQB8Lj9nL4h/8+Fn/wCBiVIP2bviB/z6WA/7e1r7kooA+HB+zV8QD/yw00f9vQ/wp4/Zn8f900of9vf/ANjX3BRQB8Rj9mXx33OkD/t6P/xNSD9mPxx/z20gf9vB/wDia+2KKAPi6H9mLxl/y0utIH/bZv8A4mrI/Zg8U97vS/8Av43+FfZFFAHxyP2YfE3e70z/AL+t/hViD9mTXgf3l3p//fxv8K+vqKAPlJf2atUCnNzZ57YkP+FUdT/Zv1uO0kktzZzSDoqyHc35jH619d0UAfm74o8F6poEzx31pLA6n7rrg/lXLuhH30wfyr9MfEvhjSPElo1vq9nFOpGAxHzL9DXy78XPgVc6N5t/oitdafyxIHzxD/a9fr/KgD5uK46dKStPUtMuLKVklRlI9qziPXg0AIKnj5XH61Fip9m2AtQA9ERhgH605VGcY+lRWkbsxwKuKpjUlhSAaBilGaMZ604YFAFi3uJIe+V9KfdXHn7QOBVfC5yTxSBc5xSHceAB1OPc1IRFt3OdzfwrUIU9TwKcsbSHIXaPU0xCbyzHPerH2PMOerUz93EeBvYd6U3MjDqFHoKBEX2U55IFSrAqr8x49RURJwc5Oe9I0rbNgORQA/zFQ/Kn50C4kIIRtg9BUKjcen51KkLt0wF70gEedyABhcdT61PBclDufLL6Gqu0ZYA5Apw5Trn60ASzyea24cCmdevSmFsdRxUkabhl+FpjHyeXj9zk1ECV6Zz71IRGv3NxqNjQBY8wGP5vvVCWwOetJuHam5AOepoAlS4ZVxtBqJsOeDtPpQY5c7ghC0beMkfhQAGJyPl+b6Uwgg4IIPvUsEvlN0pJZDK+cUARnpUlvK0UgZTgikQx5wynNNdSpyvzD0oA9F8FeOrjSbiNfNKgHua+nvhx8SLXWUS2vZVEp+6c18NFQzhtxDDv610/hbXZ9Lu4yszAg8c8UAfoeCCMjpRXk3wn+IUOrWsVnfSASgAKxP8AnivWQQQCKYBRRRQAUUUUAFFFFABRRRQAUUUUAFFFFAARSDpS1BdzLBC0jHgCgCjruow6fZSvO4VQOTnp7f5/wr49+MvjV72+eCCY7QcBc13Hxp+IzAS2ttL8oyOD1r5k1K4lv7t53JJJ4pAQyTbnJclnPU0oRm9hTFVYx7+tSwSHdwOPWgBRGFHPNN3hT61JKu7qcVGF20APDM33Vx9ali3bvnI/CogST14p6nDcmgB0yAnJJxUYVR0A/GnzN6CogfcUAScAcAU5CA2cCoS3HUUpbkUAWpQGTJxUahcfcBpxK+T71Eh96AJjHHx8uPpR5afwuQaUbccNzSFW7EUAPIwMHrTC7qPmXIp6524Yc0pbI65xQBGHUjuKlQZHBBpuQR90Go/JGdykqfSgCTHzYpskS9QefagBh1NLvU8dDQBErOp55Wn+YGPy/rSEEHjpTcIe3zUAPYk9sUgIA6jNR7HbhidtOEcWMZJoAejr3K08EfwmiOC2Y4wRTZEWFsRtkUASM5dcE1CSRxTgwIz3qQIHXdgUAQtEZBuU4NMXzs7cZHeppNwJB4HtUasVOQeaAJp1C2wJGKqcEA1NLI0nBPHpVcEq2MUANW2EshC9D1r6O+DvwKTWNFj1bXppLZJf9TEgG5h6nPQenc14r4C08ah4itLeUZilmjRvxbFfofZ2sdlZwWlqojghQIgHYCmBW8P6JYaBpsdjpdusMCDoByx9SfWtKjtRQAtFFFABRRRQAUUUUAFFFFABRRRQAUUUUAFFFFABRRRQBVmsLOY7pbWB29WjBrOuvCui3QPnadASe4G3+VbdFAHFXfw10CfJijntyf8AnnKSP/Hs1iXfwog5NrfN7B1r1Cip5UO7PEr74Z6pbgmBUnA6bHA/Q1y994a1K0cia0mjPupr6VoYAgggEHsaTgmPmZ8xJo90RnyzTJrCaLIaMj8K+kZtLsZ8+baRE+oXH6isfUfB9jcgmNnjY9sBh/jU+zHzHz3JFlSrrlT1BFcH4t8AQakWuLDbBcdcY+Vq+qW+HsZ6XKH/AIBS/wDCurYj5plP/AKFBoOZM/PrVdGvtLuDDeQOjDoSOD9KpCJuwNfoPqfwo0vUrdobvy3B6EpyK5Ifs6aJuJa+kI9NlaIk+ONO0e9vnVIIHYnpgV7z8M/gBqupiK81wCxs+vzcu30Hb8a+lfCPw+0DwvEo0+yjacDmdxlj9PSutAwMCmI5jwh4I0PwnbKmk2cYlA5nkGZD+Pb6DFdQKSigBaKKKACiiigAooooAKKKKACiiigAooooAKKKKACiiigAooooAKKKKACiiigAooooAKKKKACiiigAooooAKKKKACiiigAooooAKKKKACkZQykMAQeCDS0UAeMfFP4MWGvwS3eiRrBc8l7cDCt/u+n0r5V8W+B73Q5ZI5IJBsOCGHIr9Ea5vxd4N0rxNbMl5Cqz4+WVRz+PrQB+bbqUfawwRVlTlMV7x8WPhK+h3c72YMtuuCHxgHgE5/OvDry2e2mZGGMGkBJaP5Y9QavoY5E61lx8c9anY4TryaAEnKlzt5FOiRCvzcCoFHPoKkUEj1FAA4G/wCXpV2OJBBljg+tVlVYyGk69lpJXaRuuB2FAEqNCrcktUl/KrRosfHc1RoznrQA9TnpTsN1C8etPVV2jjIommJXavyqPSgRCzYOAaVU+XpzTVBbuCatW8ZaQKRj60ARxR4GW4FJNJvwBwo9O9WrtFUAEnb7VWDRr0TP1pAQn24FPG7A+Wnmc9kUU0SsScmgCRIjt34z/s0xllPO3j0zVqB1ZcHg+tQyR/P1NAyMLLj7lMKSA/cpzq6Hqfzo3HHJP50wBFJbbjB9amZUgAONzUkbAdelOYHO5BkUgIXuHk6Nj2FRMxPWrDt6IuPpUbhG/hKn60wIz060AjHPFOEJxhG/OnCPaP3goAjLqOAD9aVSc/Kal88BcKgxTC+RwuDQA5UWQ4+69Kcxttfg9iKaG5yODSFiTyM0AdX4S8SXGk3cZEjAA8HNfYfwo8aQ6/pkcEjjz1GFBPb0r4XiZGVlP3u1eg/DLxfLoepxDeV2kY5oA+66KwfB/iG38RaNFdwsPMwA6dwf/r1vDpTAKKKKACiiigAooooAKKKKACiig9KAAkAZPSvKfiz4y/sewkjikEcxUhcHkCu38V6xFpOmzSSMBhc18c/FzxlNq+pTbnycnj2oA4DxPqUuqX0jsx25zWCzHotTmRmBz3quzbSf1pAGOctU0LDPHSqrP3FR+aeg4oAvzMAMioBN2OagMhxyaaGPpQBbDcUhclutVdxPekLE96AL/mZHJpgINVQxx1oDGmBeUp6VIGSs4Mfenbj70AaQKHvSFUP8VZwc08SGgDQWLjhqCrL/ABVSExHc04XBoAthmx60JJg/MoNQLP604SKTzQBcj2N0ODTZCR71AMdjTSzDvUgTB6CV7iog+eopw56HNADgp6oc+1MzzgjafepCcH5eDRuD8N19aYDwPlHNRMu4nAxUgGwetAHUjk0ARiQIQCOaB6kcU+NVZj5vSmMDHjHK5oAeQBgClJbGM4qB5Mk7QTilWbjLKeO1AEvRcHvSiIBdxOaaHDrzQrkDB6UAJxUTcnI605u4BquyvGxPUUAdJ4Jums9atps4KyK35EGv0N0S/j1TSLO9iOUniVwfqK/NmymeOVJFyNpr7E/Zp8aLq2gjQrqTNzajfDk/eTuPw/rQB7hgUcUUUwCiiigAooooAKKKKACiiigAooooAKKKKACiiigAooooAKKKKACiiigAooooAKKKKACiiigAooooAKKKKACiiigAooooAKKKKACiiigAooooAKKKKACiiigAooooAKKKKACiiigAooooAKKKKACiiigAooooAKKKKACiiigAooooAKKKKACiiigAooooAKKKKACiiigDifiZZi80KTcqkg5/SviDxxbiDWJFGAcmvtv4i6pa2+mSoZVzz/IV8W/ECdZ9adotpHNLqBygwvPYUq/OQe1BbHy8c1JCnzgtwByaAHPbOhHp608EIpK9RTbm4aQ4B+WoQ2AcHrQAD5jn+I0FSWwOg60+MA8nvSzPwFXgDrQBEwOcA1JFEWbHWmKpP3R+NXtPRd3JywoAhlzuEca8CjamfnbJ9BU13EQxZTjNU1GGJJ5pCsShwrYRAvvUkUhDZPP1qJV3noR71IIRnJagLFl2WVe2apTIVPSpFZEPGaeWRxzTGVRExGeMU4R+pomXaMqTVcS4PNAFkgr0apEbK8nmqgkB7GnJIV5pASkEnnOKQqhP3jUiTeaMcZqGXKNTAkEadnanouxvv5FVwzkZA4pocg8jNAFuRCTlDxUTxtn1FNWb+HGKC5Bx2oAcCEPQ496nOJUyCM1V83nB6U9fLJBbKn2oAac85AJqPZzlTj2qy6HG5WBqEnJ5GPegCIE5+YcetPJweMt7Cnrt+71qVcRpvUc0AVWZgw3IVFSQuyyB0bBpZp3fCSgc00hQOOKAPfPgR48OnahHb3DnyjhXUnqPWvrOCZJ4UliYMjjIIr849G1BrKeOVCQ6nqO9fYHwI8brq+lR6beyjzkGYiT19qAPYKKKKYBRRRQAUUUUAFFFFAAelRzyiKIuakrmvF2qw6fp9w8kmNq/L/vf/WH+eKAPHvjt4ta1tpbYuN65yB6/5/Svk/Urp55nkkbc7nNdv8UvET6lq82XLDcSea82lkySQc0gJFlwcGq8rkvkdKaWz0ptABuozTc0ZpgOpaSigAooooAfRRRQAoxS8UmfagH2oAUgUACkIoH1oAXvSk47005BpSc9aAHbqFbFN4ooAmWXFSrJVQ5pQxFIC+rg9eDQ2eoNU1kqRZMd6ALIm5AcZqVVBGVb8KqFwacrEdKALgbj0+tIvJ4+U1GjEgZp2cdaAHA7WIbgnvTh9wcZpNyyEBh8tICyDaRx2NACTEpyoBHcULNuAKqD6ikk6c8E96hPytlfyFAFqRkI+UYNRdqVSpGRSN6gUAKU+XNR5OMU7JxjNGKADd8m2ux+GHiOfQfEVpcQuY2ikBB9R3H4iuLbgg0+0mMV2jf7QNAH6T+H9Vg1rR7XULZgY50DYz0PcfnWhXjH7OOtfadEmspHGBiRAT+B/pXs9MAooooAKKKKACiiigAooooAKKKKACiiigAooooAKKKKACiiigAooooAKKKKACiiigAooooAKKKKACiiigAooooAKKKKACiiigAooooAKKKKACiiigAooooAKKKKACiiigAooooAKKKKACiiigAooooAKKKKACiiigAooooAKKKKACiiigAooooAKKKKACiiigANcL8SvEh0bT2KShQRt+prt5XCRs3oK+Xf2gNckjma2Vs46ihgeaeMvHd7fXLxiQlPXNefXtxJPKXckk1FPMZZSTShCwpAMiQt1p+7AIboOlSSSJHFtT71QRruPzHigBM56dKenzECiQBMKn41JbD5xxmgB0g2jp83YVGYuA0h/wCA1emj8tcj71UyC/PagBGc429F9KcpKjIPHb1oCdPTvSl0X7n60AXIZvNi/e9ajmiVRuUZqk0pBqa2ud3D9KQwErH0UUwyEHk5qeWBZBhOpqpsZW2t2oAVps8CmFyp4NTLDu7U5YI1PzGmIFkDR9cmqpjJckg1cIjTlaY0y9iKAI1iNSpAGHLYqEzt6jFN+0HsaALPlqnRqidtxxUJlNN872oAsKxHyilKgDpk1AJx3oE3NAEhiLDOcGpY1DrtYgEVW8wZ60CbB4xQA6QhT6+9ICD3ppcMe2KUEE8CgCXzWTjGVpQ+On3agl4HFSQkFcMefegCUFG4PDdiKkWQoNsnK+oqmxIbFOSXnrigCZf4gefSoyCOQePSpS6yKCPvjuKjB253DOehoAVWzgjt1rufhz4mm0XVIWjkIwwIOa4mOIMD2JpoBhkVopCGHNAH6KeDtdi8Q6LDdRsDKABIPf1rfr5a/Z88cPb3cdtct+7f5GB/nX1HG6yIrqcqwyDTAdRRRQAUUUUAFFFFAEN5MIIGcnntXzd8bvHCiL7JA33cjg17b441KKz0m6kklwY1wPqef5fzr4V+JWtvf6vLhyRk96QHLavcNcXDMWOSeazfxodizZpgoAcKTvRS0wEopaKACiiigAoopaAFJ5oBzRjNKBQAUtFOoAZmlpcUbaADNJkUbcUYoAXNGaTmkoAfSZpKKAFpabS0APB5FTI3NV8804Ng0AX1cEClJzVRHqdXoAnB4p6OMfNUAbHNO9+1IBZGPf8ACosEfWptwxz0psgwmR09aAI1JU+1PMmKEHBz1oOA3tQA0yrnGKVGweehoKo31prEDIoAWXG7IqJXBGcYINKTwKVNr7g3FAH0F+zTrnk+IbKJn+WQmMjP97gfqRX13mvgn4P6nHp2v2sgPKOCPwOa+8oHEsSyL0cAimBJRRRQAUUUUAFFFFABRRRQAUUUUAFFFFABRRRQAUUUUAFFFFABRRRQAUUUUAFFFFABRRRQAUUUUAFFFFABRRRQAUUUUAFFFFABRRRQAUUUUAFFFFABRRRQAUUUUAFFFFABRRRQAUUUUAFFFFABRRRQAUUUUAFFFFABRRRQAUUUUAFFFFABRRRQAUUUUAFBoooAyfEVz5Gmyupxhc/5/Svir4x6t9t1iX5snfX1N8WdVOn6VN5bAZTb/n9K+JPFl6brVJ5GOcNikwMZsBhjvTppDtCr0FRZGSaBkKT3NACKM4yasDCDGMmoI1JYFutWCMt6CgBigsfbuasREISRz71AGBk4+76U4Zb5U6/yoAvJMsvD8NUM0Hzbh+VMCiNfmOW9akivFHyuM+9AFZ3xx0qAsSeB+NXbmIS/MnSoVj2denpQBFtz96pY0IHtSOyiomnwOKYF+OVU+tRvcDdzVBpSTwahLEtyaANB7r0qs8zE9ahBJpQKQD/MJ6mm7gaXjFNoAM0g9jTiR6UgI9KADmm5welKG56UpPtQAlOxSZpd5oAQrTDkVJu9aT5D1NADN9OEuKhNJimBaWWniUVTo3UAaO0S45pGjGMCqkUpU4zUyS56mkA8EqeBTlkK4PY1PCqumaibGCKAJY3KHevK9xSTMGkDL0qurNG3HTvUuAyEp36igDofCGsPpmqxMGI5FfbXwo8TR65oKRlwZYQO/wDD/wDWr4EQ8g9GFe4/Avxo+k6xAkr/ACk7XXPVelAH2KKKZC6yRq6EFWAII7in0wCiiigApk8ixQs7H5VGTT6wfF+ofYNKeQHlfmP07fr/ACoA8T+Pni8W1k1rGcnncR3PevkbUZzcXUjk9TXoXxe8RvqWrSoHyu4968y60AMoxSGgUALRRR2oAKUUClAoAKMGngUuOKAGhaKM0E0ALmjNNJpAeaAH0UUtA7FqxtDdDhwnOBmmXMD27kOwb3FEEzwrhQNhPQ0ksrSnkDA5AFIfKQ5B6UU7BpCKAsIaTijAooFYKWjFLTEJSU6kxQAd6U0lBoAcDUiPUIpQaALm/jFOBJGKqo3PNTq350ASfw+1LHNgbW+7SKwI5pjACkBKMqTnkUsnC/WljO5cd6ZIc9eooAjUnFBOc0p5HFIMdTQAhHy5pqk1Iw4z2poweKANzwdJs1iH3Yfzr9GNJP8AxKrM/wDTFP5Cvzi8MjGsW+P74/nX6OaSP+JVZf8AXFP/AEEUwLlFFFABRRRQAUUUUAFFFFABRRRQAUUUUAFFFFABRRRQAUUUUAFFFFABRRRQAUUUUAFFFFABRRRQAUUUUAFFFFABRRRQAUUUUAFFFFABRRRQAUUUUAFFFFABRRRQAUUUUAFFFFABRRRQAUUUUAFFFFABRRRQAUUUUAFFFFABRRRQAUUUUAFFFFABRRRQAUUUHpQB4b+0LdeXo4OU3/Mfl+uB+gFfHt45kunPZjmvpb4/X23fDnoCK+abgqApX73NICAj5sUjDBpUO45NNY5bFAE0AJkAAzmrVzF+7FV4X29OtXBIr4U9fWgCkuBmnFwPlXj1NSyQHnbx7+tUwCXIPFADmJJxnj1qQAAdKZjHXpQ8gYYBoAlExRcCopJcjnrUIYZ5NRyvzQArvkVHnikLcUmaYDxQOvSkB4pc0AOzSFqYG9aQ4zxSAcXoHPemnNAGepoAcfrQGGKAo96NtAAGGaQsTShT6Cgg+lACYpeRS/N6U0n1oADzTSKCRSZoASjNJS0wDNFFJmgAxTlJpAM4qTGKALEE23jPFNL5c1ARg59aUHAJpAWQc96euV+7VaNj1NWFcHgUAObnkferY0C9a2uUkU4dDz71kEZHFOjYqysv3loA+8/gx4jOteGo4JXDTWwAyTyV7f5+leh18pfADxTHaapBG74R/kcZ7d/y619VxuHQMDkEZB9aYDqKKKACvIvjZ4hbTtIuI92FbIH+f88Yr1e8mEFs8hPQV8mftE+IjcSmBX+6NpH04oA+e9fuTc6jK5Ock1mjpTpn3yMx7moz0FACClpBS0AFFFKKAHbc0oXApy0pNADa3VW0W2VlUHIxWFSbuMZOKRSQsoG9sdM0wDmgAk1PHHk0FKNyNUJNTR2zN2q7BCDitG3hUAcVm5nVRw3M9Shb6Y8mOK2tN8LzXTjC1qaVEpYcV32gW6kjjFYyqM9vD4Cm9zkrf4aXVzEDF96qh+G2rRzFTAMCvoDQ4lWJR3rbVE25IFQqjOuWCo9j5tl+G9+kIZlGfTFYV94Qu4vvRdPSvpjVmUggCuSvYI2zuQGj2kkP+z6MlsfPNzodxD/AfyrMmgeI4dSK+gbjSoJgcoOfaua1XwrDMGKIPwq41+5w4jKE9YM8eoFdPrXhqa0YsinFc06lGIPUda6YzUloeDXwtSi/eQlG2uvSzsZtLULCT0+dOx75rlrlVjuJEQkqrYB9aZz2IDxSGnYzSHimISig0UAOFPBxTR0pKALCHNP61XRsGp1PFADhlSPrUkgzzUeSxoLnkUgBcE00gZxSrw3tSPgAGgAORxmmk4oBBpevagDZ8Ljdq9sf9ofzr9HNK/5BVn/1xT/0EV+f/wANdK+36vB/vD+dfoJZJ5djbp/djUfpTAnooooAKKKKACiiigAooooAKKKKACiiigAooooAKKKKACiiigAooooAKKKKACiiigAooooAKKKKACiiigAooooAKKKKACiiigAooooAKKKKACiiigAooooAKKKKACiiigAooooAKKKKACiiigAooooAKKKKACiiigAooooAKKKKACiiigAooooAKKKKACg9DRRQB8g/tDXP/E1lUH+I14FKcvzXtX7Qzk+JZ0HQOa8TkOWNIBV4BpueDTofmbFDJg0ALGpJGOtTs6xJjq/eod+wYHWoslm9fWgC3DdMDz92nsFfLDpVLIU8dKd5pHTpQBKzAKRVYkDNDvk1FIaYAT82aC1N7UAZoASiiigAooooAPqaUAnoKFGDwPzqYEd6QDBEx+8cU8RKvbNKW9OKYS3rQMceOgpM5ozjrTTyaALFvbT3GfJhdwO4FROGRirggjsa7rQNWt4tJjSFoFdV2nzGwQa5nxPPFc6iHiYOdoDOBgE1HNrYdjJ3CjcKaRSY96skc2DUZWl6Um6mA2ilooATIopcCjBoAUUnelHSlHNABntQaAOaGoAUHbSh8EUw80maAL8TgjmlYbWyKpxsccVchbcvNIDo/BmrvpupxyIxGGGfrX3Z8ONcj13wzbSq26SNQjflx/n2r88on8qYEevNfUv7NniR1uBp8r/JKNoBPftQB9JDpRRRTAwfF2oCw0uSUnoCf8/j/KvhD4u6qb7XpsNn5sV9cfGXWRaaJcJuAJOF/D/6+78hXwxr90bvUZpCc8k0AZRoNFFAAKKKKACnKKbUi9KAF3bVx3oUZ603qfepG+SPHekMbIccUxaD70+NcUFD4x7VaiAJquhq3AhJqGdNONy1CMVfhIxzVNVIqVSe1YtnfT0N6wu4YCPMaut0zxTpduBukkyPRK84pahxudsMU4bHvWk/EbQI0AkklB6Z2Vu23jzw5coFjvVUnswIr5pyfWjcfWp5DT663ufSN1qlpc7mt7mF1Po1ZMz5NeFw3U0J/dSOv0NbOn+KtStSAZjIvo/NS4M6YY6PVHqhqJ/mrm9J8ZW1ziO6Qwv/AHu1dIjLIgeNgynkEVLVjqhVjU2ZmapYpPGwK15pr/hhhKzwjHqK9ZkPXNZdzCrg5FVGbi7oyr0IVVaSPE7q2ubMsjM6r6A4qjXqOu6QkuSBXn2qWL20p44rrhUUj5vGYB0neOxn0uAR70g65p4GTmtjySLGDzRipmG8cVE3HFABRSUUAKOKlRqhpwNAFkNigc5NMVsipFOMUgD+H3pr849qcT8ufemuecUARfxVKOlRNwalj5xQB7B8Abf7T4msItuQ8qr+tfcAr5F/Zd00zeKrWZl/dxhpPyXj9SK+uqYBRRRQAUUUUAFFFFABRRRQAUUUUAFFFFABRRRQAUUUUAFFFFABRRRQAUUUUAFFFFABRRRQAUUUUAFFFFABRRRQAUUUUAFFFFABRRRQAUUUUAFFFFABRRRQAUUUUAFFFFABRRRQAUUUUAFFFFABRRRQAUUUUAFFFFABRRRQAUUUUAFFFFABRRRQAUUUUAFB6UUHpQB8WftCceJro/7ZrxIHjJr2v9orjxFc+7mvEm7UgLenqpkOe9STxbnyOAKrWrlckH2qy1wsQGfmI60DKsykNTQORjpVsussZYCqykdxQIbLwOKYxwPenO4wc9ahJ64oAXOR1pvWlBwKTimAUCjNIOtABShc04LThQAwjFGK6bw54ZOrxLPNKI4jnAB5OOtU/EOj/wBlSoI5PMhf7p9KVwMfpSgU9F3HavLVoWWnvL1FJyS3N6VCdR+6jOCFjwKspaO1dno/hK5vMGOPA9TXoXh74aJIFa7bP0rF1l0PWo5U3rI8RTTJX7H8qm/sS4/ut+VfTVp8P9NhA/dAmp5/CtlGvyxLxU+2Z2Ryul1Z8snR7hThgR+FTpokpGetfQ2o+GbRhnyRmsObQoY8hUUfhUe1NllVJHiMuizKDwaoS6fPGTwa9pvNJiH8IrHutGibPy01XZlUyiD2PJ2ikT7y1C556Yr0W80JCCQK5zUNGKk4WtY1kzza+VzhqjnQRRUlxbvC5BHFRId3FbJ3PLnTcHZmha6XeXUAmgt2eP1FVpopIXKyIyMOxFdXoXiKG109IC4gZV2nKbvxFYOuXy6he+ZHkqoC5PVsd6DMzyMD3po4oPWlxTAByaGBHWlHynNK7BhQAyk7UhNFACq22rVu3FVDzUkbYOKQF5hkj869d/Z41RLfx5pa3EmxHm2/N7g4/WvHo35ra8OXr2OqQyo5BVgwIPoaAP0g/hFOHSuK+FficeJfDEDSuDeQqFkP94dmrtR0pgfMH7SWrm3Hkq/RQD9TXynK24sx6sa+h/2kjmRvrXzqfuLQA2g0UGgAooooAKcfSrFjbefOqeoJq1f2MUEe+GTOMFge1JsaRnhdqknqKYzbjUkrZAx261F2oKQvepVqNRWhZ2/8bVMnY0pw5mPtbfPzPV5Rj6UAflTqxlK56MIKKFoooqSxc08Go6UGgof+FLimhqXNIBaKKKRRIK1tK1y709h5chKd0bkGskdKKUjWEnHVHpml65BqMYGQk/dSasyNmvLoZniYMjFXHpXXaPri3arDcHbMON3ZqzaPQo4nm0ZpXeGBFcnrdmsma6W5bGeaybzDA1UXYVdcyPOr2AwTHjioR04rpNZtVZCwHNcyfkYqa7ISufNYqhySuh0fWmSLk8U7OKQmrOJoYODSmhhzTTTELRSGl7UAPQ5yKmB4qsODUqmkBITnb7U08nNKegpv8FADnba1SQDMin1qvLyav6bGZJ4lHOSKAPrr9l/TkS1urvGCkYQH6n/61e+15b+z3pklj4DSWRcNPKT/AMBAx/PdXqQpgFFFFABRRRQAUUUUAFFFFABRRRQAUUUUAFFFFABRRRQAUUUUAFFFFABRRRQAUUUUAFFFFABRRRQAUUUUAFFFFABRRRQAUUUUAFFFFABRRRQAUUUUAFFFFABRRRQAUUUUAFFFFABRRRQAUUUUAFFFFABRRRQAUUUUAFFFFABRRRQAUUUUAFFFFABRRRQAUUUHpQB8W/tEjPiS4/3zXiWMtXv/AO0HZZ1W5lx/Ga8GC9T70gIl+T8Kjkbc31qSToajRc/hQBKGwMUxjTWbFMdqYCMcmkHFJ1ooAXoaCMUUZ45oAU420kY7mhBvPtT244FADcmiiikBs6PrsunwNC0KTRE5AYkYqLUr+fU5VLKqogwqL0FU7WFpK3bKy3bcis5TUTuw2FdR6hoGjPOwbqa9N8NeG4iiMU5rM8P2QhK13elukajb0rkqVbs+mweGjTjsdJoWmRQjaAAR7V08CKgXHaud0uUZLKOT6Vste21vGHuJkjA/vNipTOqojSb2qpcLkGua1D4haLaFljkadx2Qf1rldT+KTkstraIF7FzmncwT5Wdnfq3Jrn7xc5ribv4gapcZ2+WgPoorMm8V6k//AC1A+gqWmbqvBHYXSA56ZrLni67sfga53/hI70/fKn6inDxE/wDy1jU/SlYPbxZpzxrj2rKu7VJOgx+FTx6xBNw3yn3p0sqyfdw1MmU4yOV1PSVfJxXNXmlPESVGK9DkTIOfyrNuoFYEAZrWFRxPNxOEhU1POZDJGTnimrJk88V0mr6YSCyCuZljaNirDmuuMlLVHz+Iw8qT8iXOQKfncaih+bg07kHmqOZkvUVF0bHannpkdKaOQRQSMoNKRSYpjFWg0gNKDQA+JtpHNXrdyHyDWcKsxvgCgD6q/Zn8Qf8AEx+xu3EybfxHI/lj8a+lq+FPg1rJ07xDbPuwA4P4V9zwSrPDHKn3XUMPxFAHx3+0ccu/1r56b7or3L9oS6Ml/LHn+KvDD9xaAG0Gig0AFFFKOtAEqStGoKEhgexoeeabhmJGfWoz0pV6cmkMWX7opg70+T7opgoKLFpH5kgHathVAUKKraZFtj3GrfQ1hN3PQoQsriinU2nwhpSAgJPtWZu5JbjR1obANTTW0sS5ZSKpvJjqKYnNbjmcjrSB/Q4+tVHmz0yx9qi2zMfmYIPetFE5ZYixoiTB6g1ZijaQZH8qxjGV6zpn61LFeTwdG3D60/ZkrFG0YJAen6VIsBZcgd8YxVS11xgQsgDp3BHNa11qttPaxmA7CowVPrUOmbLEqw/S9C1DVJjHZW7SEDPHpTNQ0i+0/H2yCSLPQsvBrpPCWry2Sl4WcYGdw6fjXTavrn9seG2trnY0oGAzDpUtW3EsS7nkp6CnoSrAg8g0kvyuwxTQMAGoZ3wldJo6Gyv/AD49kh+df1olfKn0rDjfY4YHkVph/MUMO9Kx0xndFW9TdGa5C+j2St9a7aZdykVzOsQ4YmtabOLGQ5o3MpeRT3idAGZGVT0JHBp+n+Wt5CZ8eWG5zXW6vNbz6btmWICMHaykc+mK6TxH2OMIzUZqRetMk4NMkSlFJ2oFACnoafGeaZ1pRwc0ASmkzhvalByppj9qQDge1dF4Kg87VIExn5hXPJzxXo3wd0WTU/ElnEg/1kip+ZxQB9weCbP+z/Cml22MEQKxHu3P9a3qZCipGqIMKoCgewp9MAooooAKKKKACiiigAooooAKKKKACiiigAooooAKKKKACiiigAooooAKKKKACiiigAooooAKKKKACiiigAooooAKKKKACiiigAooooAKKKKACiiigAooooAKKKKACiiigAooooAKKKKACiiigAooooAKKKKACiiigAooooAKKKKACiiigAooooAKKKKACiiigD53/aA0wLazXAXh93P0JH9K+VnbZuHqcV9hftEAtpDIPkxn+WT+pNfHFy379s9BSAZcR7lBQ1CDtGO9KsmXxnimyDrmgCJ+ab2penFNPWmALSmkpaAEpPvNinEU5FwPegB64Ue1IR3700nJ9qVjQA08DPenQoXYGoiS7DFadlFwDiok7HTQp8zuXbCHHaui02MKwJrJt+AOK1LZ8LXLNtnu4dKJ1ljNt24rcttQito987BR6VxEV95C5B3HtVW5u5Z33SMSew7VztHo+25djs9Q8cSRoY9PXb/tmuS1DVry/ctc3DuT2J4qizZ60ymkYzrSkPLEnkk0A0wU4GrM7hmjNNzRmgQ6kpM0UDEp6SSJ91iPxqPJozQFy/De8YlGfepyyuuVIIrJNCOyHKk0D52W7lAykGuV1ixwS6iun80Ome9Zt6N6kVrB2OWvBTjZnFsCj/SrIIljBH3h1qbUbfY+QOKpIxRuK6U7ng1KbhKzJlbBx2pHXaeOhpPvDIpVbsaoyGGjNKw5ptMQpoFApKAFp6nFMAp7f0oA6jwTdGHV4Gz3FffXw81Man4TspS2XjXym/Dp+mK/OjS7g293G4OMGvtf9nHVhe6HcWzNkriQfyP9KAPEP2hLLZdyS46kGvBX+6K+qf2l9K8wmQD2/u96+V5l2kr6EigCMUUUUAFKvWkpy0AFKKSikMc9IB8woboKVOopFLc3LYYhWpDTYhiNfpTjXOerD4UMkPy4HU8V1nhGaO1QsY1fgY3Doa5UjkVciuXhjdYJjHu6qRmlYyrJs6/xrNZy6fDLEEWXo5XvXmtxKD3wta2pXPm221mwvp6mucuJMttHQVrCJySm0rD3uPkxGNvr6moN5I5zUZPOaljVcbpPwrW1jnbGj3wacGx61LCN7Ejao96dIuVPA/CgCFZe/wCtWIpSTz09aqyIRyOlLExBwelAHV6VqqqiROzKwG35T1Fag1Ly7fykY7q4yA4cMvUVtK25Q3tWM0dmGipuzJWOaB0pgp4rE9SIuKuWbYOKqdqfC+DUlxNFyMGsXVV+U/Std2G0Vl6jgqfpVQ3IraxOXlOGNSEnAps4wxqRhjb9K61seJUWpFzmnvyBQw4+lIMkUzIjxSindRTcc0wAUuaXFJQA4UHmhakwKQAg+bHevpP9lfRftOvR3kifLBGZTn16D9TXzlaRebdIg74FfbP7NekCz8LXF2yYaVgin2HJ/mKAPY14ApaQdKWmAUUUUAFFFFABRRRQAUUUUAFFFFABRRRQAUUUUAFFFFABRRRQAUUUUAFFFFABRRRQAUUUUAFFFFABRRRQAUUUUAFFFFABRRRQAUUUUAFFFFABRRRQAUUUUAFFFFABRRRQAUUUUAFFFFABRRRQAUUUUAFFFFABRRRQAUUUUAFFFFABRRRQAUUUUAFFFFABRRQelAHj3x9tXuNKBA/5Z/8A1q+LdVi8q7mUjuRX6AfEvThfaLIduSsbH8iP8f0r4W8cWxt9YuExj5qQHNRjnND9akjX5TUb0ARMeaKQ9aUUwE70hNKaSgBRy1SZxTI+tXtKsxfXyQu4SM8sfakwKRNRyNXXat4fsorV2tHfzUXccnOa5CQdKB2J7VNze1bEC7VBrOsEJrVjHSsKjPVw0bRuW4j8o9asxMWqnGCzgCr+3aoArCR6NJEhPFIaaKWoNhTTaDSUCH59qQtUTuB3qrJcqp5aqsRKpGO5dHrkUhcHvWRJqsa8Z/SoTqy9t35Vfs2YPFU11N7eD1oznpWRDqcT/ebB96ux3CSD5TmpcGio14z2LlNpENaOm6ZcahJttInlb0Rc1NjZySWpn03ODVu/srixkKXMMkZH95SKosaaJU09h2eagmbnmpM5FRTLlaqLFJ3M28XerGsGUYYiugfncDWLdptfNdMGeTilrcSMfus11mjaJp7aeZbt98hXcAP6VylrysiHuM1Ytr65tB+6kIFXY4GO1a1W0vniTO0c89qo1YaVpyzuSzsckmoWXFUSMFOFNFOFADlHNPxlTiox1FSx42sKAI4ztcV9Tfsn6qJNXmtWPDWzAD3BU/yBr5VY4Ne6fsz6ium+LI7iQ4jVXDfijf1oA93+Pelx3GiS3AXLMobP6f4V8Namu2+mX0dv51+iXxQ0sal4YnQDLLx/n/Pevgjxzpp0/WJVxgFiRQBzLdaSig0AFOXpTaetACGkpTSUhinoKcnUUxutKOGFIpbm/EcxL9KeaitjmJamrnPVh8IYo4oxRQUV77/VVhv941t3vMRrDf7xramefiviEqSbkr9KiHWn5y30FaHKBO3GKd5pH0pUj3nI+9T3iEYw33jSAcPnt39uRVarBbyo2H8T/oKrUAW7Nx5q5PfFbVq2YQPciudiyHBHrmt3Tv8AVAnuSayqHZhPjLq06kWlFYHrIXPFOTrTcU5aQkWN3yiqF83B+lW2YBazb58g1cUZ1ZaGLOfmp752r9KhkyZKnlBCiuhbHj1Nxm75KFOQaYx+QU6OqMgVcihxg0K2KfIMrmmBFQaXNITQAq1KKiFPBpAbnhW0N1q8aAZORX6C/D3Rxofg3S7ILh1iDv8A7zcmvjz9nzw4da8a2KsuYd4kkz/cXlvzxj8a+5cBVCrwBxQA4UUUUwCiiigAooooAKKKKACiiigAooooAKKKKACiiigAooooAKKKKACiiigAooooAKKKKACiiigAooooAKKKKACiiigAooooAKKKKACiiigAooooAKKKKACiiigAooooAKKKKACiiigAooooAKKKKACiiigAooooAKKKKACiiigAooooAKKKKACiiigAooooAKKKKAMXxZF5uh3Cjqoz/Q/oc18MfE/T3g1ackYBY81993MIlhkRhkMMV8hfH3S1iv2MS4XdnP4UmB4URhTmqb/eNW34U1Sb7xoAQUtIKWmAlJTmpnegCeMcnNOtppbe4E0JwymogTnNKPXPFAGpea1c3URj2pFkfNsHWsUEs+P51ciU+XLIewqpF98fWoN4rRGxYINoNXgOaq2Y4Aq4o3ECueb1PUpLRFuzTgsasc5waZF8qCpR0rJnfDRDa0vDukza3fiCF1iA6u3QVmmtjw7c/YSJY2xj7wpIxxFSUIXibereA57ZA8F9DLj8K4a+L2VxJDcDa6HBrtNR8SLLtCSK8j9EU9K8x8Vak9zqD/Nz0JFXCDbPMjjJrch1DUiXKwH6ms8sXO5ySfeof50p9664wUTlq1pVHqSkgdCKTfn+Kogw9KOT0FWYku/6VYtpTGQY3Kt6HpVKgHHSk0mUpOLujprTUA8RR/ll9PWvZfhV4o/sLTX+VBnvgEk189xPnAb8DXXeHdV22zQSNhiPl4rCVO2qOiWIlUionr/ivxFY6tCY5o42z1yB09RXlF/FHFcusJPl5+XPNLdSXFz807xoqdNnU/Wqigr1YtWLR1YPnTHkUnBHPSndRTSKR6Zl3y7JAexrLvOVrc1JN1uWA6c1hSndz7VvTZ5uLjZla2/1wHqCKlkX92frUUHFwKtyqPLb61sec0VYvSkfrSJw1Ok61RkMpRSUCgB2eMUm4j8aTvSH0oAaxr1r4Kyj+0JQfQ/yNeSMa9U+DsfmXshHof5GgD7xvLdbm2lhcZWRSPxr4s+Pfh5oL+edUwQ27p+dfbdeO/Hfwp/aOnSXUSA5B3fWgD4Tcc5pprV12wexvpYnBGDWUaAAU5e9NFOWgB8f+10ramt7VoF2pg8neOmKxKcztjG47fTNA7kZHJooopAaeny5G0mtDOKwLeQpIDW5G29ARWM1ZnoYepzKzJc0ZpuaM1B1CSoGUgjrWJeQmJz6Vumq11CJkPrVRlZmNelzowSM9Kb0qzPA0Z6VAffrXQnc8yUXHccjkH0NPknZjluWqGiixI4knkmkzn2pCDU1vbSTsAgP1o2BK4trG0rhQK6GBBHGBUFrbiBRx8x61cUetc9SV2ephqPIrvcVTThSDFKKyOwWgdaWg9KAuMlbArKvZeDVy5fANY11ISxrSKOLET0Ily0gwOallBBwcnFSWe1ELMMu33RViTTL7yftJgby+ua3R58ncz27UopG60etFiBAaUHg0ztS07AONJijNLTAUcc1NbwtNMkajljioRyK7P4aaFPrfiC2t4It7PIEH1NID6g/Zh8JjTdCm1aZMPMBFET6D7x/kPzr3Ss/w/pkWjaLZ2EAASCMJ9T3NaFMBaKKKACiiigAooooAKKKKACiiigAooooAKKKKACiiigAooooAKKKKACiiigAooooAKKKKACiiigAooooAKKKKACiiigAooooAKKKKACiiigAooooAKKKKACiiigAooooAKKKKACiiigAooooAKKKKACiiigAooooAKKKKACiiigAooooAKKKKACiiigAooooAKKKKACvBfjzoAkt5JkTvkf5+vH4V71XGfEzSf7T0VwByFP+I/kaAPz/ANUj8meRCMYJFZhPFdb46sWtNVmG0gEmuRI+WkAh60Uh60tMApB1paQdaAJM9KcPu1GKlH3BQMlTi0mFVIfvCrltzHKp9KpL8shqOpvHZG5aNhQau2nzS5rNsm3ACtKy4lxXPLc9KjLY0B0p45FMFLmsT0RStLDM0L5HQ9RTcmlwKCZRUlZkF7crBC7xRKpxXFSlpZS7nknNdVq5/wBCkPHpXKnrz6V10keJjacabVgpUUyNhfxpKnhPl2Msi9ScVscQ+3WPftwCPWnTsqvhcEVSQkc55+tK3PLMPpmkBYCxzZA+V+3vVfaykhuCKAxG3Hbmp70fvV91yfrQIhjPzgn7oNaumzbrtR/CRisUHLD3q/pxxcxfXFKexpS+NHVg5puMGnIOKUiuI+jQmaRvWgjmnAUFIrXIzbSj2rm2PymummH7mUe1csx4atqSPPxvQii/12aslshqqxnDGpgflzWx5ciIffpzcmm/xCnDqasyGmmmnGmmgAooNKOlADDXuf7Mdj/aPiyG3k+46P8AojGvDG6V9K/seWe/xReTEf6mzZgfcso/qaAPreqer2SahYS28gBDKauUGgD4S+NPhl9O1ac7MbWIrx512sa+7Pjt4RTUtNa7hjBJGGwP4vX/AD718U+I9NewvpI2UjBNAGPRRRQA+lplOFAARTKkppFIY0HBrQsbnB2seKzzSq208Umrlwm4u6OjHIpcVm2V3/C9aIYEVg1Y9KlVU0LijFGaM0jUjeNWHzAGqk1gj8rwavUYpptESpxlujGksnX6UyGzkkfCjNbLrkYqbTkCvgdatTOSpQS2NDSfANxeoWkuY0bbuA9faqkli2nEwuAHHX1rqtP1by5fLUkqqjnpXPazL9ov3kXnNQ5NjoQSepS5JFSYqMZ608GpPQFpw6U2nA1IwzkZqOWXAonk2LWfPNxVRiY1KnKR3c/as8/O3tT5X3n3oRcit4o86pU5mSxN5csUjfdUjj2rsLjXoDY7EmDx8/Jj5unSuLdt3Ham7tvSrMWJ3NIT8tJnk0E8iixIUCkBoB4pgBNBPailQbmFAE0KliBjrX1h+y14RxLJrM8f7qFdsZI6uw/oP5ivnHwdoz6lq1vCq7tzDgV+gfgPQ08O+F7LTgoEiIGkx/ePX/CkBvmgUUtMAooooAKKKKACiiigAooooAKKKKACiiigAooooAKKKKACiiigAooooAKKKKACiiigAooooAKKKKACiiigAooooAKKKKACiiigAooooAKKKKACiiigAooooAKKKKACiiigAooooAKKKKACiiigAooooAKKKKACiiigAooooAKKKKACiiigAooooAKKKKACiiigAooooAKqanALqxuIcfeQ4+vardJQB8TfGvRHsb6dnXALbh+NeKt1ZfQ19hfH7QPNjnmVPkwf8f8A61fIV9C0F08bcEHBpAVT1pRSHrQKYC0DrRQOtAC96lz+7FR+lKDlcUhj4X2MTUMp/eE+tPC5U1G6nApFxZo2D8Cte1OJxXO2khV8VswS4ZTWEkd+HnZm1SjrTQeM9qBXOz11qiSmnvRTTQMrX0fmW8i46jiuRkG1iPwrtDiub1m0McnmIPlb07GuilKzsebmFHnjzLoZRPNWbSVfLeCT7r9D71WYU0da6TxiWVGQkEY96YFHUnJp/mkjDHPvTC6g8DigCWIBmGeAOtJcyeZIfQdKiZ+DjpTepBoAVDg5rT0dd14vtzWaBzXR6Hb+XEZGHzN0+lRUlZHRhoOdRWNgUhPNKOlNI5rjPfQtITQ1NNBSIb19lpIfauUdv1rf1ybbAsY6mueYZYCuikrI8rGTvKwkf3qnP3BTE2it7RtCGox75pxCm3cOOorU85mB/FS5q7qNmLK6aJX8xcZDVTK1RAyiiigAo9aB1oxQA3G4gepr7F/ZJ0j7NpmpX5GN6pED69T/AEr5G0+Ay3Ma4zlgK++fgJo/9j/DmxMi7ZLkmY/T7q/oM/jQB6NRRRQBV1Ozjv7Ga2lAKuuPoa+Sfjd4Bms7qWSKLjOTgfrX2BWB4w8Pwa9pskToplAO0kdfagD81L2BredkYYINQV6p8V/CEulapMRAV5PavLWUq2D1oAbThTaWgB6nNBXNMzipFbNADCMUhqQ00j0oAYGINXrS8IIVzxVPb60AVLSZcJuLujfjlDD5eRUmc1ixzNF0PFXYrxW68GsXBo76ddPRl36GlGfaolkDelPzUm/MmPI9qQEikDe9Lx60gauS/aJPWmZ3ck80hGKO1IFFLYeOO9H0zTM0hlVOpoKukSqc/X0pk04iHXJ9KqT3nUJ+dZ81xk8HJq1FswqYiK0LU9wWOWPHpVCWYvwOBUbszHJpACa2jFI4p1XIkUenWn5xwKaDjjvT1XcaZkxmPyppOakk44HSowKYmFIaKKYgFLijFFAAKntIvMfA7VEoyeK774W+F5/EPiG0tbdP9c23/wCv9B1oA9w/Zl8BFrga7fRDyrf/AFO4fek9fwr6brN8N6RBoWi2un2wASFACR/Ee5rSoAKKKKACiiigAooooAKKKKACiiigAooooAKKKKACiiigAooooAKKKKACiiigAooooAKKKKACiiigAooooAKKKKACiiigAooooAKKKKACiiigAooooAKKKKACiiigAooooAKKKKACiiigAooooAKKKKACiiigAooooAKKKKACiiigAooooAKKKKACiiigAooooAKKKKACiiigApDS0lAHG/E/SzqWguqLk4I/w/z9K+GPH+mNZatJ8uAT+tfolewC4tZYmHUcV8lfHnwv9muJpVTAOWGB3pAfOZGDSg06ZdshB7GmUwFNApKUUAOqSJPMkVM43EDNRp1qTigaO2/4RGzFjv8AtX77HAyOT9K46VVjneGQ/dYqTWkNfvo7YRZjzjAkx81Y7EuSzHLNyfrUJMaIyDDIRWlaSbhVNl82LH8a9Pem28nltg0pI3hLlZ1FnN5kW09RVnd2rFtJ9sikdO9ayuCMiuWase1h6nPElzRTA1LmpsbjWHpUMsayoVYZBqYHmhhnpTE1danL6jp7wMWUZQ1n7a7cpkYIyKy7zSopsmP5G9ulbwrdJHmV8Fd81P7jmiKbjir9xYSRSbPvN2xVyHw5qcoBW3O09ya25kebODi7MxtvFOA6VryaFdwSKs6bVY43dRWna6ZBBgsN7eppOoka0cPKrsZemacZGEso+XsPWuhRdoAA4p21VUADinD7tcspOTPYo0Y0o2QgpKKKk2AjIpmQoJPanbuKzNVuvLj2KeTRFXZFSahG5l6jcebM5P3RwKonoM9TTnOSfSkXlh+ldcV0PCqzcpXHoCBgjIq5bajNb4UbWT0aqpOAeOfcU1MkjNWYlmWR55DJIcsagc05m7UxjxTEM70hpSMCjGRQA0VIOlNA7U5+mKAOu+Gejza14ksrWNcmSZVHHqa/Q+wto7OygtYVAiiQRgD0AxXy3+yl4X83XpdTuI/ktItykj+M8D+tfVlAC0UUUAFFFFAHC/EzwLaeLtNkxEq3qr8jgff9j/jXxF8QfBd34f1CZJImUqeRjpX6L1wnxO8BWfi7TZGWNFv1X5Gx/rPY/wBDQB+dbA55600V3nj/AMGXeg38ytCyhWIII6VwrjBOeDQAlFFFADgant/llU7d3PT1qtUkMrRvuWgDV1C7heLYyDcBgcYNZFSSzGZsuPmqOkMCab3paKAHJM69GNWEvZB1qoVpMH1o5UUqkl1NJNQA6ipBqCelZJBoCmlyI0Vea6m0b9BTDfr2FZIFKCRU8iH9Ym+poPf56Cq8lyW71AQTTce9PkRDqSe7HFie5ooAp4UVRmPii3+ufQCntGUcDBB/2q1/DdzFAziQoHyCN/Qj0pmvXUNxKPL2lwSSV6AUCMnbk4pS20bRSFuMCmGgB/XrTW9KTOaKACig0lMBzHimr1oINSKv50AXNLsXvLoRoK+2f2evh+nhnQU1S8jH9oXSDy1I/wBVGf6n/PevLf2b/hi2q3Kaxq8I/s+3bIVh/rn/ALv0HevrKNAihVAAHpQA6iiigAooooAKKKKACiiigAooooAKKKKACiiigAooooAKKKKACiiigAooooAKKKKACiiigAooooAKKKKACiiigAooooAKKKKACiiigAooooAKKKKACiiigAooooAKKKKACiiigAooooAKKKKACiiigAooooAKKKKACiiigAooooAKKKKACiiigAooooAKKKKACiiigAooooAKKKKACkpaSgAryX42eHRqGmyyKuVIJ/GvWqpazYJqGny27gHcDj60Afm14ksmtNQkUjHP61k17P8AGnwk+n6lNIkZCkk1406lWII5oAbRRS0AOU4p/bNRU8HIxSGh4ORim5wc0h44oPNADw2fY0113ZZeGHUUzPPvUg5A9aRSYQzMvU1rWF7yEY5rGfk/NxSI5Tg8VEoXN6VZwd0dcDT6xbDUCuEl5X1rYVgygqciuWUXE9ilWjUV0OpM0ZpKRsOyaKKKAJNOtY3vN8g5HTjpXSTanBDlQyjYvO44rl0Yq2VJz6ipGm3MHaNGbplhnNXFnBWw7nK6J72fz48g5QnI9qqd6c0rN979KbSlK5tQpOmrDqKKKk6Bcimk+lISBVC/1FLdCBy1NJydkRUqKCuyS+u1t0IH3jXPTzGRyzHJqK4uWmcsx5NRDJrpjDlR49eu6j02FY7uKlUbQDSRp3pzHPFaJHK3cTO81JjApqDFDNzTJEY88U0nJoJwKaKYC9aDxSU5QTzQAL1rZ8PaW+palDCilizDt+VZQQluK+pP2Yfh9v3a/qkP7mJsQK4+9J3P0H88elAHtnwn8KR+E/CNrbFALuVRJOe+fT8K7KiigBaKKKACiiigAooooA4T4m+ArTxbp0jJGq6gq8Njh/Y/0NfEXxB8GXeg6hKrxMoViCCOlfoxXDfEjwFZ+LdOkfy0W+VeDjiT2P8AQ0AfnQylTyKSvVPiH8PLzR7uUrC4VScgjkV5jcQPA5VxigCGlzikooAWnA03NJQBJmimU4GgBNppcY604NmnDBoAYBWjbaW88LSCRAFGcHrVLAqUXEixeWp+XOaYEUsXluVJ5FMAzT8l33OaCo9aQEYIowPSpMAUhIHagAApwFN3Uuc0AOyBSFjTcUmaAFFBNIaSgApRSUooAKWgDPSpYIXlcLGpJpAEMTyNgflXsnwa+F194m1SJ5EKWiEPJMRwo9Pr6U/4O/Cu78T6hHJLGUtEIMkpHCj/AB9q+y/D+jWeg6ZFp+nxCOCMenLH1PvQBPpGm2ukadBY2ESxW8KhVUVcoopgFFFFABRRRQAUUUUAFFFFABRRRQAUUUUAFFFFABRRRQAUUUUAFFFFABRRRQAUUUUAFFFFABRRRQAUUUUAFFFFABRRRQAUUUUAFFFFABRRRQAUUUUAFFFFABRRRQAUUUUAFFFFABRRRQAUUUUAFFFFABRRRQAUUUUAFFFFABRRRQAUUUUAFFFFABRRRQAUUUUAFFFFABRRRQAUUUUAFFFFABRRRQB5v8WvCcWtaVLNHGC4HPHQ/wCf8818TeNtFk0nU5EZCFya/R2eJZonicZVhg18vftAeCPLkmuY4+OoIFAHy43WkqaeJopHRhgg1DQAtLmkzRQAooFIKcKAHmFhGJM5z2pucHilUt2OfanugxnuaQyM/NUbLT+h4qwbK58vf9nl2+uOKB3KSuynitC1vmjx8x+lUmXgjGDUZyBSaTLjUcHdM6i2vo5MbuKuAhhlCDXGpKwP3iKsxX0sZ+VqxlRvsd1PHW0kdV0oHJrAj1eRfvrmrSavCfvBhWbpyR1xxlORsY4ppHFZv9rW/wDeNH9rW/8AeNLkl2L+s0+5oUCs06vAOhJqvJrIH3Fo9nJkvFU11NwH1/Wq9xeRRD5n59BWBPqksmctx7VRkmZzk5/GrjRfU5amPW0Uat3qrPkR8CsmWQyHLGm/MxpVQDrzW8YqJwVK0pvUI0J61KExWrodhDcsXuXIiUgEDqam8RWVraqjWium44w3eqMrmNn0pwHrTVBFPz6UCEZsVHnNS7O5qNuvFADD19qXFIKXtTADU0fC8VCB610/gvwzd+ItWgs7ON5JJWCqq0Adj8G/AFx4t12CIIRACHkcjhVzyT+HSvuXSdPttKsILGyiWK2hUJGg7Cuc+G3guz8FeH4rK3VWuWAM8wHLN6D2rrqAFopKKAFooooAKKKKACiiigAooooAxfE3hvTvENoYr+BWfHyyY5H+Ir5f+K/wVubFpLiwj8yA871H8/SvrqmTRJMhSVA6nggjOaAPzK1fQLzTpSk0TKR6isgqVOCMGv0A8a/CXSNeEj2qpDMedjDKn8e1fOfjv4OajpUrlIGRO3GQfoaAPCaK29X0K7sJGWaJhjvisd4yp5FADKWjaaSgBaXJpKKAHbqN1NzRmgB26jdTaKAH7j3pc0ylDZoAfmkpKXmgAzRmkozigBaUUdaAOaAFoAweanhgklIEaE13fgP4f6t4k1BILO0aRup4+79T2FAHIaZpNxfSKIlODx0619EfCb4F3V/5V9rZe1sv4criST6DsPc/rXrnw3+D+k+F0judQVLzUByCR8kZ9h3/ABr1IYAwBgUAUND0ix0PT47LTYEhgQYwo6+59av0UUALRRRQAUUUUAFFFFABRRRQAUUUUAFFFFABRRRQAUUUUAFFFFABRRRQAUUUUAFFFFABRRRQAUUUUAFFFFABRRRQAUUUUAFFFFABRRRQAUUUUAFFFFABRRRQAUUUUAFFFFABRRRQAUUUUAFFFFABRRRQAUUUUAFFFFABRRRQAUUUUAFFFFABRRRQAUUUUAFFFFABRRRQAUUUUAFFFFABRRRQAUUUUAFFFFABWB4t0CLxBpktu6qJSvyl+RW/RQB8MfFT4Z6lol5LK9tIsWeDj5fzHFeRXFtJbuVkUjFfqBc28N1E0VzEksZ6q6gg186/Gb4LW3lzatoEWIBlpLdesfuvt/KkB8hilzWprmkTabcujoQAfSsoUwHUUmaU9KAJAfSjdiowcUZzSAk3FWVlPzKcitoa4DAFkExI/gzxmsGnBqAAuWYlh1pQAelLgGjy/SgCN4scioyhHvVj5hRkHqKAKuPc0c/3qslV9ab5anvQBAPekqwtsZHCxqWY9AKvTaNdwwiSSHCkZ6jOKBmSc0mKn2jNKESgCEL6inrGT2qcMo4UUbJG6DNAhnlhe9IBk8CrKW3d2xT9yR/dGTQAy3aWIko5j+hpbiR523TSNIR0yc0xpCT71HvyQaAHdacAAM96ZuxTcnrQA5nP4UwkHpSk5ppHpQAhpVBxS4NdB4Z8OX+szbLaCZ/9xSev0pgZ+i6dNqN5HDChYsQMAda+4Pgd8N08HaRHfX0YOqTpkAjmBT/D9T3/ACqn8E/hHaeE4ItV1WFX1dxmNWH/AB7j/wCK969joATtRRRQAtFFFABRRRQAUUUUAFFFFABRRRQAUUUUAIVB61Dc28dxE0U8aSxnqGFT0UAeXeNfhJpetxu9kiwyn+Aj5fz618/+M/gnqmml3S0Yp2ZRlfzFfaNIQCOQKAPzZ1PwfqNk7CSF1x6isC5spoGIkQiv0m1vwjomso322whZz/HGNjfmK8x8UfAXTb0NJpVz5bH/AJZzLx/30P8ACgD4f2n0ptfRXiL4Dazab2hszIo/ii+auAv/AIX6taOwmtpFI/vKR+lAHm4XNG3FdLqHhK/tif3TflWU2jXi5zE35UAZ9FXv7Hu/+ebflR/Y93/zzb8qAM/FHNaX9j3f/PI/lSjRrvP+qb8qAM6it+z8NXtzjEbflXT6d8MNWvR+6tJX/wBwE/0oA85HNOERPevaNN+BXiW6wRpc/l+r/L/OvRvCn7OU+FfWbmK1X+6v7x/8P1oA+ZtI0G/1W5SG0gkkkY4CquSfoK9n0n9nTxPcWkU80EEQcbtskwBX6jtX1D4K8A6H4QiJ0y2D3TDDXEgy5Hpnt+FdaOlAHzr4M/Z8+zyrJrc0cSL1SP52b8egH517toOhafoFkttpVukMY6kDlvcmtSigBe3NFFFABRRRQAUUUUAFFFFABRRRQAUUUUAFFFFABRRRQAUUUUAFFFFABRRRQAUUUUAFFFFABRRRQAUUUUAFFFFABRRRQAUUUUAFFFFABRRRQAUUUUAFFFFABRRRQAUUUUAFFFFABRRRQAUUUUAFFFFABRRRQAUUUUAFFFFABRRRQAUUUUAFFFFABRRRQAUUUUAFFFFABRRRQAUUUUAFFFFABRRRQAUUUUAFFFFABRRRQAUUUUAFBAYEEAg9jRRQB8//ABu+E8V3BNqekQ/Ly0kSjlfce38vp0+S9d0efTbp0kQgA46V+mbKGUhgCD2NeC/Gv4UxXkE2paVCNnLSRqPue49v5UAfGAp2a3vEXh650y4dWjYAH0rnyCDgjFAC0UUUAFOBpmaKAH0ocimc04GgCQNnrTsKahzRmlcCXy1NJ5VN3Uu80AWLZ5LWVZYjll/HirNxqkskTLHHtYjaSTnis5XOevFK75yKABYvWpBCo61CrnNSF+KAH4VelL5xHSoCwpAfegCV5TioGcmlZqYDQAoJzR2pKB0oAd9aQ0gNLQAZoA5Gasw2cs/+qQ16p8NPhJq3iiaIrbOlpu+a4kyqL/j9BQBz/wAL/AOp+Ntcis7KIiHIMsrD5Y09T/nmvuXwL4P0vwZokWm6VEBwGkmYfPK/95v88VJ4I8Jab4O0SPT9KiAwAZJCPmkb1NdCeuaYC0E0lFAC0UUUAFFFFABRRRQAUUUUAFFFFABRRRQAUUUUAFFFFABRRRQAYooooAMCo5YI5VKyIrqezDIqSigDKfw7or/f0jTm+tsn+FM/4RnQf+gJpn/gLH/hWxRigDH/AOEZ0D/oCaZ/4Cx/4Uf8IzoH/QE0z/wFj/wrYwKMCgDH/wCEZ0H/AKAmmf8AgLH/AIUf8IzoP/QE0z/wFj/wrYwKMCgDMi8P6NF/qtJ09P8AdtkH9K0lUKoVQAoGAB2paKACiiigAooooAKKKKACiiigAooooAKKKKACiiigAooooAKKKKACiiigAooooAKKKKACiiigAooooAKKKKACiiigAooooAKKKKACiiigAooooAKKKKACiiigAooooAKKKKACiiigAooooAKKKKACiiigAooooAKKKKACiiigAooooAKKKKACiiigAooooAKKKKACiiigAooooAKKKKACiiigAooooAKKKKACiiigAooooAKKKKACiiigAooooAKKKKACiiigApGAZSGAIPY0tFAHm3jv4X6Zr0Mk1pEkU5yfLx8rH29K+W/H/wANbvSLmVmhZcH7uK+7ayNf0Cw1u2aK9hViRgNjkUAfmpd2klvKVZSMVAa+rfiN8DrrEtzpcf2lOuIh834jr+VeCa74J1HT5XUwPlTyCuMUAcXSirtxp9zbnE0LDHtVYpj1B96AGUUd8UuDSuACjFJilBoAWjNJmjNMApaSigB2OM0maTNIcigBSaQ0nPpSdaAHGmilGTSgGgBMH0pRn0rW07RLq+x5cb16t4L+B2va55UotjFbn/lrN8g/Xr+FIDxy2s552HlRn616R4D+EeveJ5QbazfyP4ppPlRfx/wzX034E+B+g6CqS6mq310P4QMRj+p/SvWoIYreFIoI1jiQYVVGABQB5L4D+COgeH0jm1VF1G7HO1lxEp+n8X4/lXrEMccMSxQRrHGowFUYAH0qWimA0CnUUUAFFFFABRRRQAUUUUAFFFFABRRRQAUUUUAFFFFABRRRQAUUUUAFFFFABRRRQAUUUUAFFFFABRRRQAUUUUAFFFFABRRRQAUUUUAFFFFABRRRQAUUUUAFFFFABRRRQAUUUUAFFFFABRRRQAUUUUAFFFFABRRRQAUUUUAFFFFABRRRQAUUUUAFFFFABRRRQAUUUUAFFFFABRRRQAUUUUAFFFFABRRRQAUUUUAFFFFABRRRQAUUUUAFFFFABRRRQAUUUUAFFFFABRRRQAUUUUAFFFFABRRRQAUUUUAFFFFABRRRQAUUUUAFFFFABRRRQAUUUUAFFFFABRRRQAUUUUAFFFFABRRRQAUUUUAFFFFAAazdV0XTtVjKahZw3GeNzLyPxrSpKAPKfEvwU0DVVY2ha1c9iA6/4j9a8e8V/ADVLTe1jGlwn96I7j/3z1r63HFFAH55658PtV01nE1s+V6/KQa5iTQr9ScwSD8K/Si+06yv4yl7awzr6SIDXN33w88NXGT/AGekRPePigD89W0u8XrE/wCVV5LSaP7yMPqK++b/AOEWgXMZWMyIcZ+dVYfoBXnfi/4TaRpwUiXfu6/ugP60gPkYoy9VNN4r3+7+HmkrJ0P/AHzVU+AdJz90/lQB4TRXu3/CvtI9G/Kl/wCFfaR6NQB4Rg+lTQwSy/dBr3OH4d6O0vIevUfCnwN0S4to7l7uTbu+55Q/nn+lMD5DTSr1vuwsfoKv6b4Z1C7m2fZpAfcV93WHwo8M2gGYJZiP77AfyAro9P8ADGi6WA1lptrG4/jMYLfmaAPi7w58FPEOr4khtJWjP8TLtT8zxXsPhH9nC1g2S6/eRkcExW6bj+LHgfka+iY1AGadQByHhv4d+F/DwX7BpUJmX/lrMN7H8+P0rrc9hTqKAAUUUUAFFFFABRRRQAUUUUAFFFFABRRRQB//2bhK9z8AAAAA+nNC8MJBo/GAAdigwDwIog==;" parent="OVYCunuswZ6QjZjq1MuV-24" vertex="1">
          <mxGeometry y="15" width="55" height="70" as="geometry" />
        </mxCell>
        <mxCell id="dE0_XPoRY15QC2PA_eT_-6" value="&lt;font face=&quot;宋体&quot;&gt;熟悉现有框架+源码&lt;/font&gt;&lt;div&gt;&lt;div&gt;&lt;font face=&quot;宋体&quot;&gt;发现并修复现有问题&lt;/font&gt;&lt;/div&gt;&lt;/div&gt;" style="rounded=1;whiteSpace=wrap;html=1;fillColor=#dae8fc;strokeColor=#6c8ebf;" parent="OVYCunuswZ6QjZjq1MuV-24" vertex="1">
          <mxGeometry x="295" y="15" width="115" height="70" as="geometry" />
        </mxCell>
        <mxCell id="OVYCunuswZ6QjZjq1MuV-14" value="" style="group" vertex="1" connectable="0" parent="OVYCunuswZ6QjZjq1MuV-24">
          <mxGeometry x="251" y="100" width="160" height="160" as="geometry" />
        </mxCell>
        <mxCell id="OVYCunuswZ6QjZjq1MuV-13" value="" style="rounded=1;whiteSpace=wrap;html=1;fillColor=#f5f5f5;fontColor=#333333;strokeColor=#666666;" vertex="1" parent="OVYCunuswZ6QjZjq1MuV-14">
          <mxGeometry width="160" height="160" as="geometry" />
        </mxCell>
        <mxCell id="OVYCunuswZ6QjZjq1MuV-11" value="" style="group" vertex="1" connectable="0" parent="OVYCunuswZ6QjZjq1MuV-14">
          <mxGeometry x="10.062893081761006" y="95" width="140.88050314465409" height="55" as="geometry" />
        </mxCell>
        <mxCell id="dE0_XPoRY15QC2PA_eT_-9" value="&lt;font face=&quot;宋体&quot;&gt;抓取&lt;/font&gt;" style="ellipse;whiteSpace=wrap;html=1;fillColor=#e1d5e7;strokeColor=#9673a6;" parent="OVYCunuswZ6QjZjq1MuV-11" vertex="1">
          <mxGeometry x="100.62893081761007" y="17.5" width="40.25157232704402" height="20" as="geometry" />
        </mxCell>
        <mxCell id="OVYCunuswZ6QjZjq1MuV-7" value="&lt;font face=&quot;宋体&quot;&gt;坐标变换&lt;/font&gt;" style="whiteSpace=wrap;html=1;rounded=1;arcSize=50;align=center;verticalAlign=middle;strokeWidth=1;autosize=1;spacing=4;treeFolding=1;treeMoving=1;newEdgeStyle={&quot;edgeStyle&quot;:&quot;entityRelationEdgeStyle&quot;,&quot;startArrow&quot;:&quot;none&quot;,&quot;endArrow&quot;:&quot;none&quot;,&quot;segment&quot;:10,&quot;curved&quot;:1,&quot;sourcePerimeterSpacing&quot;:0,&quot;targetPerimeterSpacing&quot;:0};fillColor=#e1d5e7;strokeColor=#9673a6;" vertex="1" parent="OVYCunuswZ6QjZjq1MuV-11">
          <mxGeometry width="80.50314465408805" height="25" as="geometry" />
        </mxCell>
        <mxCell id="OVYCunuswZ6QjZjq1MuV-8" value="" style="edgeStyle=entityRelationEdgeStyle;startArrow=none;endArrow=none;segment=10;curved=1;sourcePerimeterSpacing=0;targetPerimeterSpacing=0;rounded=0;exitX=0;exitY=0.5;exitDx=0;exitDy=0;" edge="1" target="OVYCunuswZ6QjZjq1MuV-7" parent="OVYCunuswZ6QjZjq1MuV-11" source="dE0_XPoRY15QC2PA_eT_-9">
          <mxGeometry relative="1" as="geometry">
            <mxPoint x="-65.40880503144655" y="41.5" as="sourcePoint" />
          </mxGeometry>
        </mxCell>
        <mxCell id="OVYCunuswZ6QjZjq1MuV-10" style="edgeStyle=entityRelationEdgeStyle;rounded=0;orthogonalLoop=1;jettySize=auto;html=1;startArrow=none;endArrow=none;segment=10;curved=1;sourcePerimeterSpacing=0;targetPerimeterSpacing=0;exitX=1;exitY=0.5;exitDx=0;exitDy=0;entryX=0;entryY=0.5;entryDx=0;entryDy=0;" edge="1" parent="OVYCunuswZ6QjZjq1MuV-11" source="OVYCunuswZ6QjZjq1MuV-9" target="dE0_XPoRY15QC2PA_eT_-9">
          <mxGeometry relative="1" as="geometry" />
        </mxCell>
        <mxCell id="OVYCunuswZ6QjZjq1MuV-9" value="&lt;font face=&quot;宋体&quot;&gt;运动学解析&lt;/font&gt;" style="whiteSpace=wrap;html=1;rounded=1;arcSize=50;align=center;verticalAlign=middle;strokeWidth=1;autosize=1;spacing=4;treeFolding=1;treeMoving=1;newEdgeStyle={&quot;edgeStyle&quot;:&quot;entityRelationEdgeStyle&quot;,&quot;startArrow&quot;:&quot;none&quot;,&quot;endArrow&quot;:&quot;none&quot;,&quot;segment&quot;:10,&quot;curved&quot;:1,&quot;sourcePerimeterSpacing&quot;:0,&quot;targetPerimeterSpacing&quot;:0};fillColor=#e1d5e7;strokeColor=#9673a6;" vertex="1" parent="OVYCunuswZ6QjZjq1MuV-11">
          <mxGeometry y="30" width="80.50314465408805" height="25" as="geometry" />
        </mxCell>
        <mxCell id="OVYCunuswZ6QjZjq1MuV-12" value="" style="group" vertex="1" connectable="0" parent="OVYCunuswZ6QjZjq1MuV-14">
          <mxGeometry x="10.062893081761006" y="10" width="140.88050314465409" height="79.5" as="geometry" />
        </mxCell>
        <mxCell id="dE0_XPoRY15QC2PA_eT_-8" value="&lt;font face=&quot;宋体&quot;&gt;识别&lt;/font&gt;" style="ellipse;whiteSpace=wrap;html=1;fillColor=#f8cecc;strokeColor=#b85450;" parent="OVYCunuswZ6QjZjq1MuV-12" vertex="1">
          <mxGeometry x="100.62893081761007" y="27" width="40.25157232704402" height="25" as="geometry" />
        </mxCell>
        <mxCell id="OVYCunuswZ6QjZjq1MuV-1" value="&lt;font face=&quot;宋体&quot;&gt;更新识别算法&lt;/font&gt;" style="whiteSpace=wrap;html=1;rounded=1;arcSize=50;align=center;verticalAlign=middle;strokeWidth=1;autosize=1;spacing=4;treeFolding=1;treeMoving=1;newEdgeStyle={&quot;edgeStyle&quot;:&quot;entityRelationEdgeStyle&quot;,&quot;startArrow&quot;:&quot;none&quot;,&quot;endArrow&quot;:&quot;none&quot;,&quot;segment&quot;:10,&quot;curved&quot;:1,&quot;sourcePerimeterSpacing&quot;:0,&quot;targetPerimeterSpacing&quot;:0};fillColor=#f8cecc;strokeColor=#b85450;" vertex="1" parent="OVYCunuswZ6QjZjq1MuV-12">
          <mxGeometry width="80.50314465408805" height="25" as="geometry" />
        </mxCell>
        <mxCell id="OVYCunuswZ6QjZjq1MuV-2" value="" style="edgeStyle=entityRelationEdgeStyle;startArrow=none;endArrow=none;segment=10;curved=1;sourcePerimeterSpacing=0;targetPerimeterSpacing=0;rounded=0;entryX=1;entryY=0.5;entryDx=0;entryDy=0;exitX=0;exitY=0.5;exitDx=0;exitDy=0;" edge="1" target="OVYCunuswZ6QjZjq1MuV-1" parent="OVYCunuswZ6QjZjq1MuV-12" source="dE0_XPoRY15QC2PA_eT_-8">
          <mxGeometry relative="1" as="geometry">
            <mxPoint x="-70.44025157232704" y="90" as="sourcePoint" />
          </mxGeometry>
        </mxCell>
        <mxCell id="OVYCunuswZ6QjZjq1MuV-3" value="&lt;font face=&quot;Times New Roman&quot;&gt;YOLO&lt;/font&gt;&lt;font face=&quot;宋体&quot;&gt;系列&lt;/font&gt;" style="whiteSpace=wrap;html=1;rounded=1;arcSize=50;align=center;verticalAlign=middle;strokeWidth=1;autosize=1;spacing=4;treeFolding=1;treeMoving=1;newEdgeStyle={&quot;edgeStyle&quot;:&quot;entityRelationEdgeStyle&quot;,&quot;startArrow&quot;:&quot;none&quot;,&quot;endArrow&quot;:&quot;none&quot;,&quot;segment&quot;:10,&quot;curved&quot;:1,&quot;sourcePerimeterSpacing&quot;:0,&quot;targetPerimeterSpacing&quot;:0};fillColor=#f8cecc;strokeColor=#b85450;" vertex="1" parent="OVYCunuswZ6QjZjq1MuV-12">
          <mxGeometry y="27" width="80.50314465408805" height="25" as="geometry" />
        </mxCell>
        <mxCell id="OVYCunuswZ6QjZjq1MuV-4" value="" style="edgeStyle=entityRelationEdgeStyle;startArrow=none;endArrow=none;segment=10;curved=1;sourcePerimeterSpacing=0;targetPerimeterSpacing=0;rounded=0;entryX=1;entryY=0.5;entryDx=0;entryDy=0;exitX=0;exitY=0.5;exitDx=0;exitDy=0;" edge="1" target="OVYCunuswZ6QjZjq1MuV-3" parent="OVYCunuswZ6QjZjq1MuV-12" source="dE0_XPoRY15QC2PA_eT_-8">
          <mxGeometry relative="1" as="geometry">
            <mxPoint x="-70.44025157232704" y="90" as="sourcePoint" />
          </mxGeometry>
        </mxCell>
        <mxCell id="OVYCunuswZ6QjZjq1MuV-5" value="&lt;font face=&quot;Times New Roman&quot;&gt;3D&lt;/font&gt;&lt;font face=&quot;宋体&quot;&gt;识别&lt;/font&gt;" style="whiteSpace=wrap;html=1;rounded=1;arcSize=50;align=center;verticalAlign=middle;strokeWidth=1;autosize=1;spacing=4;treeFolding=1;treeMoving=1;newEdgeStyle={&quot;edgeStyle&quot;:&quot;entityRelationEdgeStyle&quot;,&quot;startArrow&quot;:&quot;none&quot;,&quot;endArrow&quot;:&quot;none&quot;,&quot;segment&quot;:10,&quot;curved&quot;:1,&quot;sourcePerimeterSpacing&quot;:0,&quot;targetPerimeterSpacing&quot;:0};fillColor=#f8cecc;strokeColor=#b85450;" vertex="1" parent="OVYCunuswZ6QjZjq1MuV-12">
          <mxGeometry y="54.5" width="80.50314465408805" height="25" as="geometry" />
        </mxCell>
        <mxCell id="OVYCunuswZ6QjZjq1MuV-6" value="" style="edgeStyle=entityRelationEdgeStyle;startArrow=none;endArrow=none;segment=10;curved=1;sourcePerimeterSpacing=0;targetPerimeterSpacing=0;rounded=0;entryX=1;entryY=0.5;entryDx=0;entryDy=0;exitX=0;exitY=0.5;exitDx=0;exitDy=0;" edge="1" parent="OVYCunuswZ6QjZjq1MuV-12" source="dE0_XPoRY15QC2PA_eT_-8" target="OVYCunuswZ6QjZjq1MuV-5">
          <mxGeometry relative="1" as="geometry">
            <mxPoint x="112.70440251572327" y="55" as="sourcePoint" />
            <mxPoint x="90.56603773584905" y="58" as="targetPoint" />
            <Array as="points">
              <mxPoint x="85.53459119496856" y="65" />
            </Array>
          </mxGeometry>
        </mxCell>
        <mxCell id="OVYCunuswZ6QjZjq1MuV-16" style="edgeStyle=orthogonalEdgeStyle;rounded=0;orthogonalLoop=1;jettySize=auto;html=1;exitX=0.5;exitY=1;exitDx=0;exitDy=0;entryX=0.638;entryY=0;entryDx=0;entryDy=0;entryPerimeter=0;strokeWidth=2;endArrow=classicThin;endFill=1;endSize=2;" edge="1" parent="OVYCunuswZ6QjZjq1MuV-24" source="dE0_XPoRY15QC2PA_eT_-6" target="OVYCunuswZ6QjZjq1MuV-13">
          <mxGeometry relative="1" as="geometry" />
        </mxCell>
        <mxCell id="OVYCunuswZ6QjZjq1MuV-17" value="&lt;font face=&quot;宋体&quot;&gt;基于改进&lt;/font&gt;&lt;font face=&quot;Times New Roman&quot;&gt;YOLOvxx&lt;/font&gt;&lt;font face=&quot;宋体&quot;&gt;的柑橘采摘机器人抓取检测算法&lt;/font&gt;" style="text;html=1;align=center;verticalAlign=middle;whiteSpace=wrap;rounded=0;" vertex="1" parent="OVYCunuswZ6QjZjq1MuV-24">
          <mxGeometry x="210" y="265" width="200" height="30" as="geometry" />
        </mxCell>
        <mxCell id="OVYCunuswZ6QjZjq1MuV-22" value="" style="group" vertex="1" connectable="0" parent="OVYCunuswZ6QjZjq1MuV-24">
          <mxGeometry x="50" y="100" width="180" height="160" as="geometry" />
        </mxCell>
        <mxCell id="OVYCunuswZ6QjZjq1MuV-21" value="" style="rounded=1;whiteSpace=wrap;html=1;fillColor=#f5f5f5;fontColor=#333333;strokeColor=#666666;" vertex="1" parent="OVYCunuswZ6QjZjq1MuV-22">
          <mxGeometry x="1" width="180" height="160" as="geometry" />
        </mxCell>
        <mxCell id="OVYCunuswZ6QjZjq1MuV-20" value="" style="group" vertex="1" connectable="0" parent="OVYCunuswZ6QjZjq1MuV-22">
          <mxGeometry x="10" y="25" width="160" height="110" as="geometry" />
        </mxCell>
        <mxCell id="OVYCunuswZ6QjZjq1MuV-18" value="&lt;font face=&quot;宋体&quot;&gt;模块化设计开发&lt;/font&gt;&lt;div&gt;&lt;font face=&quot;宋体&quot;&gt;更换不同型号的机械臂、相机&lt;/font&gt;&lt;/div&gt;" style="rounded=1;whiteSpace=wrap;html=1;" vertex="1" parent="OVYCunuswZ6QjZjq1MuV-20">
          <mxGeometry width="160" height="50" as="geometry" />
        </mxCell>
        <mxCell id="OVYCunuswZ6QjZjq1MuV-19" value="&lt;font face=&quot;宋体&quot;&gt;检测模型迭代&lt;/font&gt;&lt;div&gt;&lt;font face=&quot;宋体&quot;&gt;增加不同水果的识别&lt;/font&gt;&lt;/div&gt;" style="rounded=1;whiteSpace=wrap;html=1;" vertex="1" parent="OVYCunuswZ6QjZjq1MuV-20">
          <mxGeometry y="60" width="160" height="50" as="geometry" />
        </mxCell>
        <mxCell id="OVYCunuswZ6QjZjq1MuV-23" style="edgeStyle=orthogonalEdgeStyle;rounded=0;orthogonalLoop=1;jettySize=auto;html=1;exitX=0;exitY=0.5;exitDx=0;exitDy=0;entryX=1;entryY=0.5;entryDx=0;entryDy=0;strokeWidth=2;endArrow=classicThin;endFill=1;endSize=2;" edge="1" parent="OVYCunuswZ6QjZjq1MuV-24" source="OVYCunuswZ6QjZjq1MuV-13" target="OVYCunuswZ6QjZjq1MuV-21">
          <mxGeometry relative="1" as="geometry" />
        </mxCell>
        <mxCell id="OVYCunuswZ6QjZjq1MuV-25" value="研究内容（大框架）V1.0" style="text;html=1;align=center;verticalAlign=middle;whiteSpace=wrap;rounded=0;" vertex="1" parent="OVYCunuswZ6QjZjq1MuV-24">
          <mxGeometry x="5" y="260" width="155" height="30" as="geometry" />
        </mxCell>
      </root>
    </mxGraphModel>
  </diagram>
</mxfile>
